{
.appVersion = "1141";
copyright = "Copyright 2011, 2017 Google Inc. All Rights Reserved.";
customParameters = (
{
name = glyphOrder;
value = (
space,
exclam,
quotedbl,
numbersign,
dollar,
percent,
ampersand,
quotesingle,
parenleft,
parenright,
asterisk,
plus,
comma,
hyphen,
period,
slash,
zero,
one,
two,
three,
four,
five,
six,
seven,
eight,
nine,
colon,
semicolon,
less,
equal,
greater,
question,
at,
A,
B,
C,
D,
E,
F,
G,
H,
I,
J,
K,
L,
M,
N,
O,
P,
Q,
R,
S,
T,
U,
V,
W,
X,
Y,
Z,
bracketleft,
backslash,
bracketright,
asciicircum,
underscore,
grave,
a,
b,
c,
d,
e,
f,
g,
h,
i,
j,
k,
l,
m,
n,
o,
p,
q,
r,
s,
t,
u,
v,
w,
x,
y,
z,
braceleft,
bar,
braceright,
asciitilde,
exclamdown,
cent,
sterling,
currency,
yen,
brokenbar,
section,
dieresis,
copyright,
ordfeminine,
guillemotleft,
logicalnot,
registered,
macron,
degree,
plusminus,
twosuperior,
threesuperior,
acute,
paragraph,
periodcentered,
cedilla,
onesuperior,
ordmasculine,
guillemotright,
onequarter,
onehalf,
threequarters,
questiondown,
Agrave,
Aacute,
Acircumflex,
Atilde,
Adieresis,
Aring,
AE,
Ccedilla,
Egrave,
Eacute,
Ecircumflex,
Edieresis,
Igrave,
Iacute,
Icircumflex,
Idieresis,
Eth,
Ntilde,
Ograve,
Oacute,
Ocircumflex,
Otilde,
Odieresis,
multiply,
Oslash,
OE,
Ugrave,
Uacute,
Ucircumflex,
Udieresis,
Yacute,
Thorn,
germandbls,
agrave,
aacute,
acircumflex,
atilde,
adieresis,
aring,
ae,
ccedilla,
egrave,
eacute,
ecircumflex,
edieresis,
igrave,
iacute,
icircumflex,
idieresis,
eth,
ntilde,
ograve,
oacute,
ocircumflex,
otilde,
odieresis,
divide,
oslash,
oe,
ugrave,
uacute,
ucircumflex,
udieresis,
yacute,
thorn,
ydieresis,
circumflex,
caron,
breve,
dotaccent,
ring,
ogonek,
tilde,
hungarumlaut,
quoteleft,
quoteright,
minus,
nbspace,
Amacron,
Abreve,
Aogonek,
Aringacute,
Adblgrave,
Ainvertedbreve,
Adotbelow,
Ahookabove,
Acircumflexacute,
Acircumflexgrave,
Acircumflexhookabove,
Acircumflextilde,
Acircumflexdotbelow,
Abreveacute,
Abrevegrave,
Abrevehookabove,
Abrevetilde,
Abrevedotbelow,
Cacute,
Ccircumflex,
Cdotaccent,

glyphs = (
{
glyphname = exclam;
layers = (
{
layerId = "3459A980-FF7D-466A-B966-D2EC6A15CC7A";
paths = (
{
closed = 1;
nodes = (
"186 48 OFFCURVE",
"250 -22 OFFCURVE",
"310 -22 QCURVE SMOOTH",
"370 -22 OFFCURVE",
"434 48 OFFCURVE",
"434 97 QCURVE SMOOTH",
"434 146 OFFCURVE",
"370 216 OFFCURVE",
"310 216 QCURVE SMOOTH",
"250 216 OFFCURVE",
"186 146 OFFCURVE",
"186 97 QCURVE SMOOTH"
);
},
{
closed = 1;
nodes = (
"392 410 LINE",
"407 1456 LINE",
"213 1456 LINE",
"228 410 LINE"
);
}
);
width = 620;
}
);
unicode = 0021;
},
{
glyphname = quotedbl;
layers = (
{
layerId = "3459A980-FF7D-466A-B966-D2EC6A15CC7A";
paths = (
{
closed = 1;
nodes = (
"265 966 LINE",
"280 1320 LINE",
"280 1456 LINE",
"100 1456 LINE",
"100 1320 LINE",
"115 966 LINE"
);
},
{
closed = 1;
nodes = (
"645 966 LINE",
"660 1320 LINE",
"660 1456 LINE",
"480 1456 LINE",
"480 1320 LINE",
"495 966 LINE"
);
}
);
width = 760;
}
);
unicode = 0022;
},
{
glyphname = numbersign;
layers = (
{
layerId = "3459A980-FF7D-466A-B966-D2EC6A15CC7A";
paths = (
{
closed = 1;
nodes = (
"360 -20 LINE",
"822 1476 LINE",
"678 1476 LINE",
"216 -20 LINE"
);
},
{
closed = 1;
nodes = (
"866 -20 LINE",
"1328 1476 LINE",
"1184 1476 LINE",
"722 -20 LINE"
);
},
{
closed = 1;
nodes = (
"1405 404 LINE",
"1405 542 LINE",
"64 542 LINE",
"64 404 LINE"
);
},
{
closed = 1;
nodes = (
"1480 914 LINE",
"1480 1052 LINE",
"140 1052 LINE",
"140 914 LINE"
);
}
);
width = 1544;
}
);
unicode = 0023;
},
{
glyphname = dollar;
layers = (
{
layerId = "3459A980-FF7D-466A-B966-D2EC6A15CC7A";
paths = (
{
closed = 1;
nodes = (
"21 219 OFFCURVE",
"289 -3 OFFCURVE",
"511 -3 QCURVE SMOOTH",
"732 -3 OFFCURVE",
"991 219 OFFCURVE",
"991 393 QCURVE SMOOTH",
"991 566 OFFCURVE",
"794 757 OFFCURVE",
"579 820 QCURVE SMOOTH",
"363 885 OFFCURVE",
"224 990 OFFCURVE",
"224 1077 QCURVE SMOOTH",
"224 1183 OFFCURVE",
"359 1300 OFFCURVE",
"501 1300 QCURVE SMOOTH",
"644 1300 OFFCURVE",
"788 1164 OFFCURVE",
"788 1052 QCURVE SMOOTH",
"788 1040 LINE",
"965 1040 LINE",
"965 1052 LINE SMOOTH",
"965 1222 OFFCURVE",
"714 1459 OFFCURVE",
"501 1459 QCURVE SMOOTH",
"289 1459 OFFCURVE",
"49 1241 OFFCURVE",
"49 1077 QCURVE SMOOTH",
"49 913 OFFCURVE",
"232 734 OFFCURVE",
"451 668 QCURVE SMOOTH",
"671 602 OFFCURVE",
"816 489 OFFCURVE",
"816 393 QCURVE SMOOTH",
"816 286 OFFCURVE",
"658 156 OFFCURVE",
"511 156 QCURVE SMOOTH",
"363 156 OFFCURVE",
"198 282 OFFCURVE",
"198 410 QCURVE SMOOTH",
"198 422 LINE",
"21 422 LINE",
"21 410 LINE SMOOTH"
);
},
{
closed = 1;
nodes = (
"586 -150 LINE",
"586 90 LINE",
"572 100 LINE",
"572 728 LINE",
"436 728 LINE",
"436 -150 LINE"
);
},
{
closed = 1;
nodes = (
"586 728 LINE",
"586 1606 LINE",
"436 1606 LINE",
"436 1366 LINE",
"450 1356 LINE",
"450 728 LINE"
);
}
);
width = 1024;
}
);
unicode = 0024;
},
{
glyphname = ampersand;
layers = (
{
layerId = "3459A980-FF7D-466A-B966-D2EC6A15CC7A";
paths = (
{
closed = 1;
nodes = (
"80 220 OFFCURVE",
"330 -20 OFFCURVE",
"550 -20 QCURVE SMOOTH",
"810 -20 OFFCURVE",
"1162 380 OFFCURVE",
"1162 674 QCURVE",
"990 674 LINE",
"990 420 OFFCURVE",
"730 132 OFFCURVE",
"550 132 QCURVE SMOOTH",
"420 132 OFFCURVE",
"264 270 OFFCURVE",
"264 380 QCURVE SMOOTH",
"264 490 OFFCURVE",
"410 652 OFFCURVE",
"550 740 QCURVE SMOOTH",
"710 840 LINE SMOOTH",
"806 900 OFFCURVE",
"922 1060 OFFCURVE",
"922 1180 QCURVE SMOOTH",
"922 1310 OFFCURVE",
"730 1486 OFFCURVE",
"575 1486 QCURVE SMOOTH",
"420 1486 OFFCURVE",
"210 1300 OFFCURVE",
"210 1160 QCURVE SMOOTH",
"210 1060 OFFCURVE",
"324 870 OFFCURVE",
"430 740 QCURVE SMOOTH",
"1034 0 LINE",
"1256 0 LINE",
"570 840 LINE SMOOTH",
"472 960 OFFCURVE",
"392 1090 OFFCURVE",
"392 1160 QCURVE SMOOTH",
"392 1230 OFFCURVE",
"490 1334 OFFCURVE",
"575 1334 QCURVE SMOOTH",
"660 1334 OFFCURVE",
"750 1240 OFFCURVE",
"750 1170 QCURVE SMOOTH",
"750 1110 OFFCURVE",
"690 1010 OFFCURVE",
"610 960 QCURVE SMOOTH",
"450 860 LINE SMOOTH",
"300 766 OFFCURVE",
"80 540 OFFCURVE",
"80 380 QCURVE SMOOTH"
);
}
);
width = 1280;
}
);
unicode = 0026;
},
{
glyphname = quotesingle;
layers = (
{
layerId = "3459A980-FF7D-466A-B966-D2EC6A15CC7A";
paths = (
{
closed = 1;
nodes = (
"275 966 LINE",
"300 1320 LINE",
"300 1456 LINE",
"100 1456 LINE",
"100 1320 LINE",
"125 966 LINE"
);
}
);
width = 400;
}
);
unicode = 0027;
},
{
glyphname = parenleft;
layers = (
{
layerId = "3459A980-FF7D-466A-B966-D2EC6A15CC7A";
paths = (
{
closed = 1;
nodes = (
"664 -256 LINE",
"540 -180 OFFCURVE",
"319 193 OFFCURVE",
"319 508 QCURVE SMOOTH",
"319 532 LINE SMOOTH",
"319 861 OFFCURVE",
"540 1220 OFFCURVE",
"664 1296 QCURVE",
"664 1476 LINE",
"460 1380 OFFCURVE",
"124 917 OFFCURVE",
"124 525 QCURVE SMOOTH",
"124 515 LINE SMOOTH",
"124 140 OFFCURVE",
"460 -340 OFFCURVE",
"664 -436 QCURVE"
);
}
);
width = 700;
}
);
unicode = 0028;
},
{
glyphname = parenright;
layers = (
{
layerId = "3459A980-FF7D-466A-B966-D2EC6A15CC7A";
paths = (
{
closed = 1;
nodes = (
"240 -340 OFFCURVE",
"576 140 OFFCURVE",
"576 515 QCURVE SMOOTH",
"576 525 LINE SMOOTH",
"576 917 OFFCURVE",
"240 1380 OFFCURVE",
"36 1476 QCURVE",
"36 1296 LINE",
"160 1220 OFFCURVE",
"381 861 OFFCURVE",
"381 532 QCURVE SMOOTH",
"381 508 LINE SMOOTH",
"381 193 OFFCURVE",
"160 -180 OFFCURVE",
"36 -256 QCURVE",
"36 -436 LINE"
);
}
);
width = 700;
}
);
unicode = 0029;
},
{
glyphname = asterisk;
layers = (
{
layerId = "3459A980-FF7D-466A-B966-D2EC6A15CC7A";
paths = (
{
closed = 1;
nodes = (
"447 969 LINE",
"183 671 LINE",
"337 559 LINE",
"540 903 LINE",
"743 559 LINE",
"897 671 LINE",
"633 969 LINE",
"1022 1057 LINE",
"963 1237 LINE",
"597 1079 LINE",
"635 1476 LINE",
"445 1476 LINE",
"483 1079 LINE",
"117 1237 LINE",
"58 1057 LINE"
);
}
);
width = 1080;
}
);
unicode = 002A;
},
{
glyphname = plus;
layers = (
{
layerId = "3459A980-FF7D-466A-B966-D2EC6A15CC7A";
paths = (
{
closed = 1;
nodes = (
"967 591 LINE",
"967 755 LINE",
"57 755 LINE",
"57 591 LINE"
);
},
{
closed = 1;
nodes = (
"602 188 LINE",
"602 1160 LINE",
"422 1160 LINE",
"422 188 LINE"
);
}
);
width = 1024;
}
);
unicode = 002B;
},
{
glyphname = comma;
layers = (
{
layerId = "3459A980-FF7D-466A-B966-D2EC6A15CC7A";
paths = (
{
closed = 1;
nodes = (
"215 -291 LINE",
"294 -224 OFFCURVE",
"390 -40 OFFCURVE",
"390 70 QCURVE SMOOTH",
"390 220 LINE",
"210 220 LINE",
"210 70 LINE SMOOTH",
"210 -20 OFFCURVE",
"158 -154 OFFCURVE",
"110 -218 QCURVE"
);
}
);
width = 580;
}
);
unicode = 002C;
},
{
glyphname = hyphen;
layers = (
{
layerId = "3459A980-FF7D-466A-B966-D2EC6A15CC7A";
paths = (
{
closed = 1;
nodes = (
"604 544 LINE",
"604 716 LINE",
"40 716 LINE",
"40 544 LINE"
);
}
);
width = 644;
}
);
unicode = 002D;
},
{
glyphname = period;
layers = (
{
layerId = "3459A980-FF7D-466A-B966-D2EC6A15CC7A";
paths = (
{
closed = 1;
nodes = (
"160 51 OFFCURVE",
"227 -22 OFFCURVE",
"290 -22 QCURVE SMOOTH",
"353 -22 OFFCURVE",
"420 51 OFFCURVE",
"420 103 QCURVE SMOOTH",
"420 155 OFFCURVE",
"353 228 OFFCURVE",
"290 228 QCURVE SMOOTH",
"227 228 OFFCURVE",
"160 155 OFFCURVE",
"160 103 QCURVE SMOOTH"
);
}
);
width = 580;
}
);
unicode = 002E;
},
{
glyphname = slash;
layers = (
{
layerId = "3459A980-FF7D-466A-B966-D2EC6A15CC7A";
paths = (
{
closed = 1;
nodes = (
"76 -125 LINE",
"684 1456 LINE",
"508 1456 LINE",
"-100 -125 LINE"
);
}
);
width = 584;
}
);
unicode = 002F;
},
{
glyphname = zero;
layers = (
{
layerId = "3459A980-FF7D-466A-B966-D2EC6A15CC7A";
paths = (
{
closed = 1;
nodes = (
"110 240 OFFCURVE",
"358 -30 OFFCURVE",
"578 -30 QCURVE SMOOTH",
"796 -30 OFFCURVE",
"1046 240 OFFCURVE",
"1046 460 QCURVE SMOOTH",
"1046 996 LINE SMOOTH",
"1046 1216 OFFCURVE",
"796 1486 OFFCURVE",
"578 1486 QCURVE SMOOTH",
"358 1486 OFFCURVE",
"110 1216 OFFCURVE",
"110 996 QCURVE SMOOTH",
"110 460 LINE SMOOTH"
);
},
{
closed = 1;
nodes = (
"304 1006 LINE SMOOTH",
"304 1146 OFFCURVE",
"438 1328 OFFCURVE",
"578 1328 QCURVE SMOOTH",
"718 1328 OFFCURVE",
"852 1146 OFFCURVE",
"852 1006 QCURVE SMOOTH",
"852 450 LINE SMOOTH",
"852 310 OFFCURVE",
"718 128 OFFCURVE",
"578 128 QCURVE SMOOTH",
"438 128 OFFCURVE",
"304 310 OFFCURVE",
"304 450 QCURVE SMOOTH"
);
}
);
width = 1156;
}
);
unicode = 0030;
},
{
glyphname = one;
layers = (
{
layerId = "3459A980-FF7D-466A-B966-D2EC6A15CC7A";
paths = (
{
closed = 1;
nodes = (
"732 0 LINE",
"732 1476 LINE",
"702 1476 LINE",
"172 1276 LINE",
"172 1090 LINE",
"540 1245 LINE",
"540 0 LINE"
);
}
);
width = 1156;
}
);
unicode = 0031;
},
{
glyphname = two;
layers = (
{
layerId = "3459A980-FF7D-466A-B966-D2EC6A15CC7A";
paths = (
{
closed = 1;
nodes = (
"1070 0 LINE",
"1070 166 LINE",
"348 166 LINE",
"755 595 LINE SMOOTH",
"870 716 OFFCURVE",
"1030 948 OFFCURVE",
"1030 1090 QCURVE SMOOTH",
"1030 1250 OFFCURVE",
"785 1486 OFFCURVE",
"585 1486 QCURVE SMOOTH",
"385 1486 OFFCURVE",
"110 1230 OFFCURVE",
"110 1030 QCURVE SMOOTH",
"110 1020 LINE",
"300 1020 LINE",
"300 1030 LINE SMOOTH",
"300 1170 OFFCURVE",
"465 1328 OFFCURVE",
"585 1328 QCURVE SMOOTH",
"705 1328 OFFCURVE",
"840 1180 OFFCURVE",
"840 1080 QCURVE SMOOTH",
"840 980 OFFCURVE",
"734 810 OFFCURVE",
"630 700 QCURVE SMOOTH",
"110 140 LINE",
"110 0 LINE"
);
}
);
width = 1156;
}
);
unicode = 0032;
},
{
glyphname = three;
layers = (
{
layerId = "3459A980-FF7D-466A-B966-D2EC6A15CC7A";
paths = (
{
closed = 1;
nodes = (
"80 200 OFFCURVE",
"348 -30 OFFCURVE",
"558 -30 QCURVE SMOOTH",
"768 -30 OFFCURVE",
"1042 200 OFFCURVE",
"1042 401 QCURVE SMOOTH",
"1042 540 OFFCURVE",
"890 730 OFFCURVE",
"764 762 QCURVE",
"764 766 LINE",
"880 816 OFFCURVE",
"990 1000 OFFCURVE",
"990 1100 QCURVE SMOOTH",
"990 1270 OFFCURVE",
"748 1486 OFFCURVE",
"558 1486 QCURVE SMOOTH",
"368 1486 OFFCURVE",
"120 1260 OFFCURVE",
"120 1100 QCURVE SMOOTH",
"120 1090 LINE",
"306 1090 LINE",
"306 1100 LINE SMOOTH",
"306 1210 OFFCURVE",
"448 1328 OFFCURVE",
"558 1328 QCURVE SMOOTH",
"668 1328 OFFCURVE",
"798 1210 OFFCURVE",
"798 1090 QCURVE SMOOTH",
"798 970 OFFCURVE",
"648 836 OFFCURVE",
"510 836 QCURVE SMOOTH",
"405 836 LINE",
"405 682 LINE",
"520 682 LINE SMOOTH",
"670 682 OFFCURVE",
"848 540 OFFCURVE",
"848 400 QCURVE SMOOTH",
"848 260 OFFCURVE",
"690 128 OFFCURVE",
"558 128 QCURVE SMOOTH",
"426 128 OFFCURVE",
"266 260 OFFCURVE",
"266 380 QCURVE SMOOTH",
"266 390 LINE",
"80 390 LINE",
"80 380 LINE SMOOTH"
);
}
);
width = 1156;
}
);
unicode = 0033;
},
{
glyphname = four;
layers = (
{
layerId = "3459A980-FF7D-466A-B966-D2EC6A15CC7A";
paths = (
{
closed = 1;
nodes = (
"904 0 LINE",
"904 1456 LINE",
"732 1456 LINE",
"50 468 LINE",
"50 342 LINE",
"1108 342 LINE",
"1108 500 LINE",
"852 500 LINE",
"775 500 LINE",
"269 500 LINE",
"712 1149 LINE",
"724 1149 LINE",
"724 450 LINE",
"724 398 LINE",
"724 0 LINE"
);
}
);
width = 1156;
}
);
unicode = 0034;
},
{
glyphname = five;
layers = (
{
layerId = "3459A980-FF7D-466A-B966-D2EC6A15CC7A";
paths = (
{
closed = 1;
nodes = (
"100 195 OFFCURVE",
"360 -30 OFFCURVE",
"570 -30 QCURVE SMOOTH",
"780 -30 OFFCURVE",
"1056 235 OFFCURVE",
"1056 465 QCURVE SMOOTH",
"1056 695 OFFCURVE",
"790 952 OFFCURVE",
"600 952 QCURVE SMOOTH",
"520 952 OFFCURVE",
"386 906 OFFCURVE",
"336 876 QCURVE",
"380 1286 LINE",
"980 1286 LINE",
"980 1456 LINE",
"224 1456 LINE",
"150 730 LINE",
"282 668 LINE",
"342 728 OFFCURVE",
"480 793 OFFCURVE",
"570 793 QCURVE SMOOTH",
"700 793 OFFCURVE",
"866 625 OFFCURVE",
"866 465 QCURVE SMOOTH",
"866 305 OFFCURVE",
"700 128 OFFCURVE",
"570 128 QCURVE SMOOTH",
"440 128 OFFCURVE",
"284 255 OFFCURVE",
"284 365 QCURVE SMOOTH",
"284 375 LINE",
"100 375 LINE",
"100 365 LINE SMOOTH"
);
}
);
width = 1156;
}
);
unicode = 0035;
},
{
glyphname = six;
layers = (
{
layerId = "3459A980-FF7D-466A-B966-D2EC6A15CC7A";
paths = (
{
closed = 1;
nodes = (
"88 274 OFFCURVE",
"390 -30 OFFCURVE",
"600 -30 QCURVE SMOOTH",
"810 -30 OFFCURVE",
"1084 244 OFFCURVE",
"1084 464 QCURVE SMOOTH",
"1084 684 OFFCURVE",
"840 956 OFFCURVE",
"640 956 QCURVE SMOOTH",
"440 956 OFFCURVE",
"200 684 OFFCURVE",
"200 464 QCURVE",
"270 464 LINE",
"270 624 OFFCURVE",
"470 798 OFFCURVE",
"600 798 QCURVE SMOOTH",
"740 798 OFFCURVE",
"894 624 OFFCURVE",
"894 464 QCURVE SMOOTH",
"894 304 OFFCURVE",
"740 128 OFFCURVE",
"600 128 QCURVE SMOOTH",
"460 128 OFFCURVE",
"276 344 OFFCURVE",
"276 604 QCURVE SMOOTH",
"276 654 LINE SMOOTH",
"276 1004 OFFCURVE",
"600 1328 OFFCURVE",
"880 1328 QCURVE SMOOTH",
"900 1328 LINE",
"900 1486 LINE",
"880 1486 LINE SMOOTH",
"500 1486 OFFCURVE",
"88 1024 OFFCURVE",
"88 644 QCURVE SMOOTH",
"88 614 LINE SMOOTH"
);
}
);
width = 1156;
}
);
unicode = 0036;
},
{
glyphname = seven;
layers = (
{
layerId = "3459A980-FF7D-466A-B966-D2EC6A15CC7A";
paths = (
{
closed = 1;
nodes = (
"490 0 LINE",
"1052 1352 LINE",
"1052 1456 LINE",
"78 1456 LINE",
"78 1295 LINE",
"852 1295 LINE",
"294 0 LINE"
);
}
);
width = 1156;
}
);
unicode = 0037;
},
{
glyphname = eight;
layers = (
{
layerId = "3459A980-FF7D-466A-B966-D2EC6A15CC7A";
paths = (
{
closed = 1;
nodes = (
"73 188 OFFCURVE",
"347 -30 OFFCURVE",
"547 -30 QCURVE SMOOTH",
"747 -30 OFFCURVE",
"1020 188 OFFCURVE",
"1020 386 QCURVE SMOOTH",
"1020 516 OFFCURVE",
"878 698 OFFCURVE",
"766 743 QCURVE",
"766 747 LINE",
"852 790 OFFCURVE",
"974 967 OFFCURVE",
"974 1087 QCURVE SMOOTH",
"974 1269 OFFCURVE",
"727 1486 OFFCURVE",
"547 1486 QCURVE SMOOTH",
"367 1486 OFFCURVE",
"119 1267 OFFCURVE",
"119 1087 QCURVE SMOOTH",
"119 967 OFFCURVE",
"241 790 OFFCURVE",
"327 747 QCURVE",
"327 743 LINE",
"215 698 OFFCURVE",
"73 516 OFFCURVE",
"73 386 QCURVE SMOOTH"
);
},
{
closed = 1;
nodes = (
"261 516 OFFCURVE",
"417 666 OFFCURVE",
"547 666 QCURVE SMOOTH",
"677 666 OFFCURVE",
"832 516 OFFCURVE",
"832 396 QCURVE SMOOTH",
"832 276 OFFCURVE",
"677 128 OFFCURVE",
"547 128 QCURVE SMOOTH",
"417 128 OFFCURVE",
"261 276 OFFCURVE",
"261 396 QCURVE SMOOTH"
);
},
{
closed = 1;
nodes = (
"303 1187 OFFCURVE",
"437 1328 OFFCURVE",
"547 1328 QCURVE SMOOTH",
"657 1328 OFFCURVE",
"790 1187 OFFCURVE",
"790 1077 QCURVE SMOOTH",
"790 967 OFFCURVE",
"657 824 OFFCURVE",
"547 824 QCURVE SMOOTH",
"437 824 OFFCURVE",
"303 967 OFFCURVE",
"303 1077 QCURVE SMOOTH"
);
}
);
width = 1093;
}
);
unicode = 0038;
},
{
glyphname = nine;
layers = (
{
layerId = "3459A980-FF7D-466A-B966-D2EC6A15CC7A";
paths = (
{
closed = 1;
nodes = (
"72 786 OFFCURVE",
"317 520 OFFCURVE",
"516 520 QCURVE SMOOTH",
"716 520 OFFCURVE",
"956 786 OFFCURVE",
"956 1002 QCURVE",
"886 1002 LINE",
"886 847 OFFCURVE",
"686 678 OFFCURVE",
"556 678 QCURVE SMOOTH",
"416 678 OFFCURVE",
"262 847 OFFCURVE",
"262 1002 QCURVE SMOOTH",
"262 1157 OFFCURVE",
"416 1328 OFFCURVE",
"556 1328 QCURVE SMOOTH",
"696 1328 OFFCURVE",
"880 1112 OFFCURVE",
"880 852 QCURVE SMOOTH",
"880 802 LINE SMOOTH",
"880 452 OFFCURVE",
"556 128 OFFCURVE",
"276 128 QCURVE SMOOTH",
"256 128 LINE",
"256 -30 LINE",
"276 -30 LINE SMOOTH",
"656 -30 OFFCURVE",
"1068 432 OFFCURVE",
"1068 812 QCURVE SMOOTH",
"1068 842 LINE SMOOTH",
"1068 1182 OFFCURVE",
"766 1486 OFFCURVE",
"556 1486 QCURVE SMOOTH",
"346 1486 OFFCURVE",
"72 1218 OFFCURVE",
"72 1002 QCURVE SMOOTH"
);
}
);
width = 1156;
}
);
unicode = 0039;
},
{
glyphname = colon;
layers = (
{
layerId = "3459A980-FF7D-466A-B966-D2EC6A15CC7A";
paths = (
{
closed = 1;
nodes = (
"176 48 OFFCURVE",
"240 -22 OFFCURVE",
"300 -22 QCURVE SMOOTH",
"360 -22 OFFCURVE",
"424 48 OFFCURVE",
"424 97 QCURVE SMOOTH",
"424 146 OFFCURVE",
"360 216 OFFCURVE",
"300 216 QCURVE SMOOTH",
"240 216 OFFCURVE",
"176 146 OFFCURVE",
"176 97 QCURVE SMOOTH"
);
},
{
closed = 1;
nodes = (
"176 900 OFFCURVE",
"240 830 OFFCURVE",
"300 830 QCURVE SMOOTH",
"360 830 OFFCURVE",
"424 900 OFFCURVE",
"424 949 QCURVE SMOOTH",
"424 998 OFFCURVE",
"360 1068 OFFCURVE",
"300 1068 QCURVE SMOOTH",
"240 1068 OFFCURVE",
"176 998 OFFCURVE",
"176 949 QCURVE SMOOTH"
);
}
);
width = 600;
}
);
unicode = 003A;
},
{
glyphname = semicolon;
layers = (
{
layerId = "3459A980-FF7D-466A-B966-D2EC6A15CC7A";
paths = (
{
closed = 1;
nodes = (
"225 -291 LINE",
"304 -224 OFFCURVE",
"400 -40 OFFCURVE",
"400 70 QCURVE SMOOTH",
"400 220 LINE",
"220 220 LINE",
"220 70 LINE SMOOTH",
"220 -20 OFFCURVE",
"168 -154 OFFCURVE",
"120 -218 QCURVE"
);
},
{
closed = 1;
nodes = (
"176 900 OFFCURVE",
"240 830 OFFCURVE",
"300 830 QCURVE SMOOTH",
"360 830 OFFCURVE",
"424 900 OFFCURVE",
"424 949 QCURVE SMOOTH",
"424 998 OFFCURVE",
"360 1068 OFFCURVE",
"300 1068 QCURVE SMOOTH",
"240 1068 OFFCURVE",
"176 998 OFFCURVE",
"176 949 QCURVE SMOOTH"
);
}
);
width = 600;
}
);
unicode = 003B;
},
{
glyphname = less;
layers = (
{
layerId = "3459A980-FF7D-466A-B966-D2EC6A15CC7A";
paths = (
{
closed = 1;
nodes = (
"918 424 LINE",
"324 677 LINE",
"918 930 LINE",
"918 1123 LINE",
"100 744 LINE",
"100 600 LINE",
"918 221 LINE"
);
}
);
width = 1024;
}
);
unicode = 003C;
},
{
glyphname = equal;
layers = (
{
layerId = "3459A980-FF7D-466A-B966-D2EC6A15CC7A";
paths = (
{
closed = 1;
nodes = (
"967 381 LINE",
"967 550 LINE",
"57 550 LINE",
"57 381 LINE"
);
},
{
closed = 1;
nodes = (
"967 776 LINE",
"967 945 LINE",
"57 945 LINE",
"57 776 LINE"
);
}
);
width = 1024;
}
);
unicode = 003D;
},
{
glyphname = greater;
layers = (
{
layerId = "3459A980-FF7D-466A-B966-D2EC6A15CC7A";
paths = (
{
closed = 1;
nodes = (
"106 920 LINE",
"700 667 LINE",
"106 414 LINE",
"106 221 LINE",
"924 600 LINE",
"924 744 LINE",
"106 1123 LINE"
);
}
);
width = 1024;
}
);
unicode = 003E;
},
{
glyphname = question;
layers = (
{
layerId = "3459A980-FF7D-466A-B966-D2EC6A15CC7A";
paths = (
{
closed = 1;
nodes = (
"320 48 OFFCURVE",
"384 -22 OFFCURVE",
"444 -22 QCURVE SMOOTH",
"504 -22 OFFCURVE",
"568 48 OFFCURVE",
"568 97 QCURVE SMOOTH",
"568 146 OFFCURVE",
"504 216 OFFCURVE",
"444 216 QCURVE SMOOTH",
"384 216 OFFCURVE",
"320 146 OFFCURVE",
"320 97 QCURVE SMOOTH"
);
},
{
closed = 1;
nodes = (
"245 1095 LINE",
"245 1115 LINE SMOOTH",
"245 1210 OFFCURVE",
"360 1314 OFFCURVE",
"470 1314 QCURVE SMOOTH",
"580 1314 OFFCURVE",
"688 1200 OFFCURVE",
"688 1100 QCURVE SMOOTH",
"688 1000 OFFCURVE",
"584 864 OFFCURVE",
"502 783 QCURVE SMOOTH",
"406 689 OFFCURVE",
"342 545 OFFCURVE",
"342 420 QCURVE SMOOTH",
"342 410 LINE",
"528 410 LINE",
"528 420 LINE SMOOTH",
"528 490 OFFCURVE",
"569 617 OFFCURVE",
"654 694 QCURVE SMOOTH",
"726 758 OFFCURVE",
"874 966 OFFCURVE",
"874 1100 QCURVE SMOOTH",
"874 1270 OFFCURVE",
"660 1476 OFFCURVE",
"470 1476 QCURVE SMOOTH",
"280 1476 OFFCURVE",
"60 1280 OFFCURVE",
"60 1115 QCURVE SMOOTH",
"60 1095 LINE"
);
}
);
width = 968;
}
);
unicode = 003F;
},
{
glyphname = at;
layers = (
{
layerId = "3459A980-FF7D-466A-B966-D2EC6A15CC7A";
paths = (
{
closed = 1;
nodes = (
"615 220 OFFCURVE",
"780 0 OFFCURVE",
"920 0 QCURVE SMOOTH",
"1000 0 OFFCURVE",
"1140 100 OFFCURVE",
"1190 180 QCURVE",
"1230 100 OFFCURVE",
"1404 0 OFFCURVE",
"1520 0 QCURVE SMOOTH",
"1720 0 OFFCURVE",
"1996 360 OFFCURVE",
"1996 650 QCURVE SMOOTH",
"1996 1000 OFFCURVE",
"1500 1486 OFFCURVE",
"1100 1486 QCURVE SMOOTH",
"700 1486 OFFCURVE",
"114 880 OFFCURVE",
"114 460 QCURVE SMOOTH",
"114 40 OFFCURVE",
"640 -446 OFFCURVE",
"1000 -446 QCURVE SMOOTH",
"1140 -446 OFFCURVE",
"1330 -400 OFFCURVE",
"1400 -356 QCURVE",
"1400 -200 LINE",
"1334 -236 OFFCURVE",
"1140 -290 OFFCURVE",
"1000 -290 QCURVE SMOOTH",
"700 -290 OFFCURVE",
"300 100 OFFCURVE",
"300 460 QCURVE SMOOTH",
"300 820 OFFCURVE",
"760 1330 OFFCURVE",
"1100 1330 QCURVE SMOOTH",
"1440 1330 OFFCURVE",
"1816 920 OFFCURVE",
"1816 650 QCURVE SMOOTH",
"1816 420 OFFCURVE",
"1640 136 OFFCURVE",
"1500 136 QCURVE SMOOTH",
"1420 136 OFFCURVE",
"1336 230 OFFCURVE",
"1360 350 QCURVE SMOOTH",
"1480 946 LINE",
"1390 946 LINE",
"1340 985 OFFCURVE",
"1190 1052 OFFCURVE",
"1100 1052 QCURVE SMOOTH",
"910 1052 OFFCURVE",
"615 680 OFFCURVE",
"615 400 QCURVE SMOOTH"
);
},
{
closed = 1;
nodes = (
"805 620 OFFCURVE",
"989 912 OFFCURVE",
"1130 912 QCURVE SMOOTH",
"1170 912 OFFCURVE",
"1250 890 OFFCURVE",
"1280 870 QCURVE",
"1180 390 LINE SMOOTH",
"1153 260 OFFCURVE",
"1040 156 OFFCURVE",
"970 156 QCURVE SMOOTH",
"890 156 OFFCURVE",
"805 280 OFFCURVE",
"805 400 QCURVE SMOOTH"
);
}
);
width = 2110;
}
);
unicode = 0040;
},
{
glyphname = A;
layers = (
{
anchors = (
{
name = top;
position = "{640, 1432}";
}
);
layerId = "3459A980-FF7D-466A-B966-D2EC6A15CC7A";
paths = (
{
closed = 1;
nodes = (
"192 0 LINE",
"596 1100 LINE SMOOTH",
"608 1133 OFFCURVE",
"626 1195 OFFCURVE",
"633 1228 QCURVE",
"643 1228 LINE",
"650 1195 OFFCURVE",
"668 1133 OFFCURVE",
"680 1100 QCURVE SMOOTH",
"1080 0 LINE",
"1280 0 LINE",
"726 1466 LINE",
"554 1466 LINE",
"0 0 LINE"
);
},
{
closed = 1;
nodes = (
"1039 380 LINE",
"981 538 LINE",
"297 538 LINE",
"238 380 LINE"
);
}
);
width = 1280;
}
);
unicode = 0041;
},
{
glyphname = B;
layers = (
{
layerId = "3459A980-FF7D-466A-B966-D2EC6A15CC7A";
paths = (
{
closed = 1;
nodes = (
"680 0 LINE SMOOTH",
"897 0 OFFCURVE",
"1160 220 OFFCURVE",
"1160 420 QCURVE SMOOTH",
"1160 560 OFFCURVE",
"1020 732 OFFCURVE",
"910 764 QCURVE",
"910 768 LINE",
"1000 800 OFFCURVE",
"1122 950 OFFCURVE",
"1122 1070 QCURVE SMOOTH",
"1122 1270 OFFCURVE",
"870 1456 OFFCURVE",
"650 1456 QCURVE SMOOTH",
"170 1456 LINE",
"170 0 LINE"
);
},
{
closed = 1;
nodes = (
"358 680 LINE",
"680 680 LINE SMOOTH",
"830 680 OFFCURVE",
"970 540 OFFCURVE",
"970 420 QCURVE SMOOTH",
"970 300 OFFCURVE",
"830 158 OFFCURVE",
"680 158 QCURVE SMOOTH",
"358 158 LINE"
);
},
{
closed = 1;
nodes = (
"358 1298 LINE",
"650 1298 LINE SMOOTH",
"800 1298 OFFCURVE",
"932 1180 OFFCURVE",
"932 1070 QCURVE SMOOTH",
"932 960 OFFCURVE",
"800 836 OFFCURVE",
"650 836 QCURVE SMOOTH",
"358 836 LINE"
);
}
);
width = 1260;
}
);
unicode = 0042;
},
{
glyphname = C;
layers = (
{
anchors = (
{
name = bottom;
position = "{720, 0}";
}
);
layerId = "3459A980-FF7D-466A-B966-D2EC6A15CC7A";
paths = (
{
closed = 1;
nodes = (
"115 346 OFFCURVE",
"460 -30 OFFCURVE",
"720 -30 QCURVE SMOOTH",
"980 -30 OFFCURVE",
"1254 256 OFFCURVE",
"1274 456 QCURVE SMOOTH",
"1275 466 LINE",
"1083 466 LINE",
"1082 456 LINE SMOOTH",
"1070 336 OFFCURVE",
"900 134 OFFCURVE",
"720 134 QCURVE SMOOTH",
"540 134 OFFCURVE",
"309 426 OFFCURVE",
"309 682 QCURVE SMOOTH",
"309 774 LINE SMOOTH",
"309 1030 OFFCURVE",
"540 1322 OFFCURVE",
"720 1322 QCURVE SMOOTH",
"900 1322 OFFCURVE",
"1070 1120 OFFCURVE",
"1082 1000 QCURVE SMOOTH",
"1083 990 LINE",
"1275 990 LINE",
"1274 1000 LINE SMOOTH",
"1254 1200 OFFCURVE",
"980 1486 OFFCURVE",
"720 1486 QCURVE SMOOTH",
"460 1486 OFFCURVE",
"115 1110 OFFCURVE",
"115 774 QCURVE SMOOTH",
"115 682 LINE SMOOTH"
);
}
);
width = 1325;
}
);
unicode = 0043;
},
{
glyphname = D;
layers = (
{
layerId = "3459A980-FF7D-466A-B966-D2EC6A15CC7A";
paths = (
{
closed = 1;
nodes = (
"602 0 LINE SMOOTH",
"882 0 OFFCURVE",
"1255 370 OFFCURVE",
"1255 682 QCURVE SMOOTH",
"1255 774 LINE SMOOTH",
"1255 1086 OFFCURVE",
"882 1456 OFFCURVE",
"602 1456 QCURVE SMOOTH",
"170 1456 LINE",
"170 0 LINE"
);
},
{
closed = 1;
nodes = (
"362 1298 LINE",
"602 1298 LINE SMOOTH",
"812 1298 OFFCURVE",
"1061 1020 OFFCURVE",
"1061 774 QCURVE SMOOTH",
"1061 682 LINE SMOOTH",
"1061 436 OFFCURVE",
"812 158 OFFCURVE",
"602 158 QCURVE SMOOTH",
"362 158 LINE"
);
}
);
width = 1370;
}
);
unicode = 0044;
},
{
glyphname = E;
layers = (
{
anchors = (
{
name = top;
position = "{626, 1556}";
}
);
layerId = "3459A980-FF7D-466A-B966-D2EC6A15CC7A";
paths = (
{
closed = 1;
nodes = (
"1094 0 LINE",
"1094 158 LINE",
"362 158 LINE",
"362 672 LINE",
"992 672 LINE",
"992 830 LINE",
"362 830 LINE",
"362 1298 LINE",
"1084 1298 LINE",
"1084 1456 LINE",
"170 1456 LINE",
"170 0 LINE"
);
}
);
width = 1162;
}
);
unicode = 0045;
},
{
glyphname = F;
layers = (
{
layerId = "3459A980-FF7D-466A-B966-D2EC6A15CC7A";
paths = (
{
closed = 1;
nodes = (
"362 0 LINE",
"362 643 LINE",
"973 643 LINE",
"973 801 LINE",
"362 801 LINE",
"362 1298 LINE",
"1072 1298 LINE",
"1072 1456 LINE",
"170 1456 LINE",
"170 0 LINE"
);
}
);
width = 1130;
}
);
unicode = 0046;
},
{
glyphname = G;
layers = (
{
layerId = "3459A980-FF7D-466A-B966-D2EC6A15CC7A";
paths = (
{
closed = 1;
nodes = (
"115 346 OFFCURVE",
"460 -30 OFFCURVE",
"750 -30 QCURVE SMOOTH",
"940 -30 OFFCURVE",
"1210 90 OFFCURVE",
"1278 160 QCURVE",
"1278 728 LINE",
"730 728 LINE",
"730 570 LINE",
"1092 570 LINE",
"1092 230 LINE",
"1020 180 OFFCURVE",
"860 134 OFFCURVE",
"750 134 QCURVE SMOOTH",
"540 134 OFFCURVE",
"309 426 OFFCURVE",
"309 682 QCURVE SMOOTH",
"309 774 LINE SMOOTH",
"309 1030 OFFCURVE",
"540 1322 OFFCURVE",
"720 1322 QCURVE SMOOTH",
"900 1322 OFFCURVE",
"1075 1140 OFFCURVE",
"1085 1040 QCURVE SMOOTH",
"1086 1030 LINE",
"1278 1030 LINE",
"1277 1040 LINE SMOOTH",
"1259 1220 OFFCURVE",
"980 1486 OFFCURVE",
"720 1486 QCURVE SMOOTH",
"460 1486 OFFCURVE",
"115 1110 OFFCURVE",
"115 774 QCURVE SMOOTH",
"115 682 LINE SMOOTH"
);
}
);
width = 1358;
}
);
unicode = 0047;
},
{
glyphname = H;
layers = (
{
layerId = "3459A980-FF7D-466A-B966-D2EC6A15CC7A";
paths = (
{
closed = 1;
nodes = (
"362 0 LINE",
"362 672 LINE",
"1096 672 LINE",
"1096 0 LINE",
"1288 0 LINE",
"1288 1456 LINE",
"1096 1456 LINE",
"1096 830 LINE",
"362 830 LINE",
"362 1456 LINE",
"170 1456 LINE",
"170 0 LINE"
);
}
);
width = 1458;
}
);
unicode = 0048;
},
{
glyphname = I;
layers = (
{
anchors = (
{
name = top;
position = "{271, 1432}";
}
);
layerId = "3459A980-FF7D-466A-B966-D2EC6A15CC7A";
paths = (
{
closed = 1;
nodes = (
"367 0 LINE",
"367 1456 LINE",
"175 1456 LINE",
"175 0 LINE"
);
}
);
width = 542;
}
);
unicode = 0049;
},
{
glyphname = J;
layers = (
{
layerId = "3459A980-FF7D-466A-B966-D2EC6A15CC7A";
paths = (
{
closed = 1;
nodes = (
"25 200 OFFCURVE",
"280 -30 OFFCURVE",
"485 -30 QCURVE SMOOTH",
"690 -30 OFFCURVE",
"945 215 OFFCURVE",
"945 425 QCURVE SMOOTH",
"945 1456 LINE",
"753 1456 LINE",
"753 425 LINE SMOOTH",
"753 285 OFFCURVE",
"610 134 OFFCURVE",
"485 134 QCURVE SMOOTH",
"360 134 OFFCURVE",
"217 270 OFFCURVE",
"217 400 QCURVE SMOOTH",
"217 410 LINE",
"25 410 LINE",
"25 400 LINE SMOOTH"
);
}
);
width = 1100;
}
);
unicode = 004A;
},
{
glyphname = K;
layers = (
{
layerId = "3459A980-FF7D-466A-B966-D2EC6A15CC7A";
paths = (
{
closed = 1;
nodes = (
"362 0 LINE",
"362 500 LINE",
"1242 1456 LINE",
"1010 1456 LINE",
"362 740 LINE",
"362 1456 LINE",
"170 1456 LINE",
"170 0 LINE"
);
},
{
closed = 1;
nodes = (
"1286 0 LINE",
"610 890 LINE",
"486 756 LINE",
"1050 0 LINE"
);
}
);
width = 1266;
}
);
unicode = 004B;
},
{
glyphname = L;
layers = (
{
layerId = "3459A980-FF7D-466A-B966-D2EC6A15CC7A";
paths = (
{
closed = 1;
nodes = (
"1052 0 LINE",
"1052 158 LINE",
"362 158 LINE",
"362 1456 LINE",
"170 1456 LINE",
"170 0 LINE"
);
}
);
width = 1076;
}
);
unicode = 004C;
},
{
glyphname = M;
layers = (
{
layerId = "3459A980-FF7D-466A-B966-D2EC6A15CC7A";
paths = (
{
closed = 1;
nodes = (
"352 0 LINE",
"352 1050 LINE SMOOTH",
"352 1080 OFFCURVE",
"346 1155 OFFCURVE",
"342 1185 QCURVE",
"354 1185 LINE",
"360 1155 OFFCURVE",
"384 1080 OFFCURVE",
"396 1050 QCURVE SMOOTH",
"810 0 LINE",
"976 0 LINE",
"1390 1050 LINE SMOOTH",
"1402 1080 OFFCURVE",
"1426 1155 OFFCURVE",
"1432 1185 QCURVE",
"1444 1185 LINE",
"1440 1155 OFFCURVE",
"1434 1080 OFFCURVE",
"1434 1050 QCURVE SMOOTH",
"1434 0 LINE",
"1620 0 LINE",
"1620 1456 LINE",
"1372 1456 LINE",
"940 365 LINE SMOOTH",
"928 335 OFFCURVE",
"907 270 OFFCURVE",
"899 240 QCURVE",
"891 240 LINE",
"883 270 OFFCURVE",
"862 335 OFFCURVE",
"850 365 QCURVE SMOOTH",
"418 1456 LINE",
"170 1456 LINE",
"170 0 LINE"
);
}
);
width = 1790;
}
);
unicode = 004D;
},
{
glyphname = N;
layers = (
{
anchors = (
{
name = top;
position = "{740, 1432}";
}
);
layerId = "3459A980-FF7D-466A-B966-D2EC6A15CC7A";
paths = (
{
closed = 1;
nodes = (
"358 0 LINE",
"358 1000 LINE SMOOTH",
"358 1030 OFFCURVE",
"354 1105 OFFCURVE",
"350 1135 QCURVE",
"360 1135 LINE",
"374 1110 OFFCURVE",
"411 1050 OFFCURVE",
"431 1020 QCURVE SMOOTH",
"1090 0 LINE",
"1290 0 LINE",
"1290 1456 LINE",
"1102 1456 LINE",
"1102 456 LINE SMOOTH",
"1102 426 OFFCURVE",
"1106 351 OFFCURVE",
"1110 321 QCURVE",
"1100 321 LINE",
"1086 346 OFFCURVE",
"1049 406 OFFCURVE",
"1029 436 QCURVE SMOOTH",
"370 1456 LINE",
"170 1456 LINE",
"170 0 LINE"
);
}
);
width = 1460;
}
);
unicode = 004E;
},
{
glyphname = O;
layers = (
{
anchors = (
{
name = top;
position = "{730, 1432}";
}
);
layerId = "3459A980-FF7D-466A-B966-D2EC6A15CC7A";
paths = (
{
closed = 1;
nodes = (
"115 346 OFFCURVE",
"460 -30 OFFCURVE",
"730 -30 QCURVE SMOOTH",
"1000 -30 OFFCURVE",
"1345 346 OFFCURVE",
"1345 682 QCURVE SMOOTH",
"1345 774 LINE SMOOTH",
"1345 1110 OFFCURVE",
"1000 1486 OFFCURVE",
"730 1486 QCURVE SMOOTH",
"460 1486 OFFCURVE",
"115 1110 OFFCURVE",
"115 774 QCURVE SMOOTH",
"115 682 LINE SMOOTH"
);
},
{
closed = 1;
nodes = (
"309 774 LINE SMOOTH",
"309 1030 OFFCURVE",
"540 1322 OFFCURVE",
"730 1322 QCURVE SMOOTH",
"920 1322 OFFCURVE",
"1151 1030 OFFCURVE",
"1151 774 QCURVE SMOOTH",
"1151 682 LINE SMOOTH",
"1151 426 OFFCURVE",
"920 134 OFFCURVE",
"730 134 QCURVE SMOOTH",
"540 134 OFFCURVE",
"309 426 OFFCURVE",
"309 682 QCURVE SMOOTH"
);
}
);
width = 1460;
}
);
unicode = 004F;
},
{
glyphname = P;
layers = (
{
layerId = "3459A980-FF7D-466A-B966-D2EC6A15CC7A";
paths = (
{
closed = 1;
nodes = (
"362 0 LINE",
"362 570 LINE",
"652 570 LINE SMOOTH",
"892 570 OFFCURVE",
"1150 815 OFFCURVE",
"1150 1015 QCURVE SMOOTH",
"1150 1215 OFFCURVE",
"892 1456 OFFCURVE",
"652 1456 QCURVE SMOOTH",
"170 1456 LINE",
"170 0 LINE"
);
},
{
closed = 1;
nodes = (
"362 1298 LINE",
"652 1298 LINE SMOOTH",
"822 1298 OFFCURVE",
"958 1135 OFFCURVE",
"958 1015 QCURVE SMOOTH",
"958 895 OFFCURVE",
"822 728 OFFCURVE",
"652 728 QCURVE SMOOTH",
"362 728 LINE"
);
}
);
width = 1200;
}
);
unicode = 0050;
},
{
glyphname = Q;
layers = (
{
layerId = "3459A980-FF7D-466A-B966-D2EC6A15CC7A";
paths = (
{
closed = 1;
nodes = (
"115 346 OFFCURVE",
"460 -30 OFFCURVE",
"730 -30 QCURVE SMOOTH",
"1000 -30 OFFCURVE",
"1345 346 OFFCURVE",
"1345 682 QCURVE SMOOTH",
"1345 774 LINE SMOOTH",
"1345 1110 OFFCURVE",
"1000 1486 OFFCURVE",
"730 1486 QCURVE SMOOTH",
"460 1486 OFFCURVE",
"115 1110 OFFCURVE",
"115 774 QCURVE SMOOTH",
"115 682 LINE SMOOTH"
);
},
{
closed = 1;
nodes = (
"309 774 LINE SMOOTH",
"309 1030 OFFCURVE",
"540 1322 OFFCURVE",
"730 1322 QCURVE SMOOTH",
"920 1322 OFFCURVE",
"1151 1030 OFFCURVE",
"1151 774 QCURVE SMOOTH",
"1151 682 LINE SMOOTH",
"1151 426 OFFCURVE",
"920 134 OFFCURVE",
"730 134 QCURVE SMOOTH",
"540 134 OFFCURVE",
"309 426 OFFCURVE",
"309 682 QCURVE SMOOTH"
);
},
{
closed = 1;
nodes = (
"1330 -120 LINE",
"975 155 LINE",
"850 30 LINE",
"1200 -250 LINE"
);
}
);
width = 1460;
}
);
unicode = 0051;
},
{
glyphname = R;
layers = (
{
layerId = "3459A980-FF7D-466A-B966-D2EC6A15CC7A";
paths = (
{
closed = 1;
nodes = (
"362 0 LINE",
"362 594 LINE",
"644 594 LINE SMOOTH",
"878 594 OFFCURVE",
"1132 834 OFFCURVE",
"1132 1028 QCURVE SMOOTH",
"1132 1222 OFFCURVE",
"878 1456 OFFCURVE",
"644 1456 QCURVE SMOOTH",
"170 1456 LINE",
"170 0 LINE"
);
},
{
closed = 1;
nodes = (
"362 1300 LINE",
"644 1300 LINE SMOOTH",
"810 1300 OFFCURVE",
"940 1144 OFFCURVE",
"940 1028 QCURVE SMOOTH",
"940 912 OFFCURVE",
"810 750 OFFCURVE",
"644 750 QCURVE SMOOTH",
"362 750 LINE"
);
},
{
closed = 1;
nodes = (
"1210 0 LINE",
"846 672 LINE",
"640 672 LINE",
"996 0 LINE"
);
}
);
width = 1250;
}
);
unicode = 0052;
},
{
glyphname = S;
layers = (
{
layerId = "3459A980-FF7D-466A-B966-D2EC6A15CC7A";
paths = (
{
closed = 1;
nodes = (
"90 200 OFFCURVE",
"380 -30 OFFCURVE",
"620 -30 QCURVE SMOOTH",
"860 -30 OFFCURVE",
"1140 200 OFFCURVE",
"1140 380 QCURVE SMOOTH",
"1140 560 OFFCURVE",
"928 758 OFFCURVE",
"694 824 QCURVE SMOOTH",
"460 890 OFFCURVE",
"310 1000 OFFCURVE",
"310 1090 QCURVE SMOOTH",
"310 1200 OFFCURVE",
"456 1322 OFFCURVE",
"610 1322 QCURVE SMOOTH",
"764 1322 OFFCURVE",
"920 1180 OFFCURVE",
"920 1064 QCURVE SMOOTH",
"920 1052 LINE",
"1112 1052 LINE",
"1112 1064 LINE SMOOTH",
"1112 1240 OFFCURVE",
"840 1486 OFFCURVE",
"610 1486 QCURVE SMOOTH",
"380 1486 OFFCURVE",
"120 1260 OFFCURVE",
"120 1090 QCURVE SMOOTH",
"120 920 OFFCURVE",
"318 734 OFFCURVE",
"556 666 QCURVE SMOOTH",
"794 598 OFFCURVE",
"950 480 OFFCURVE",
"950 380 QCURVE SMOOTH",
"950 270 OFFCURVE",
"780 134 OFFCURVE",
"620 134 QCURVE SMOOTH",
"460 134 OFFCURVE",
"282 266 OFFCURVE",
"282 398 QCURVE SMOOTH",
"282 410 LINE",
"90 410 LINE",
"90 398 LINE SMOOTH"
);
}
);
width = 1220;
}
);
unicode = 0053;
},
{
glyphname = T;
layers = (
{
layerId = "3459A980-FF7D-466A-B966-D2EC6A15CC7A";
paths = (
{
closed = 1;
nodes = (
"492 1298 LINE",
"492 0 LINE",
"684 0 LINE",
"684 1298 LINE",
"1152 1298 LINE",
"1152 1456 LINE",
"24 1456 LINE",
"24 1298 LINE"
);
}
);
width = 1176;
}
);
unicode = 0054;
},
{
glyphname = U;
layers = (
{
anchors = (
{
name = top;
position = "{682, 1432}";
}
);
layerId = "3459A980-FF7D-466A-B966-D2EC6A15CC7A";
paths = (
{
closed = 1;
nodes = (
"155 220 OFFCURVE",
"462 -30 OFFCURVE",
"682 -30 QCURVE SMOOTH",
"902 -30 OFFCURVE",
"1209 220 OFFCURVE",
"1209 470 QCURVE SMOOTH",
"1209 1456 LINE",
"1017 1456 LINE",
"1017 470 LINE SMOOTH",
"1017 300 OFFCURVE",
"832 134 OFFCURVE",
"682 134 QCURVE SMOOTH",
"532 134 OFFCURVE",
"347 300 OFFCURVE",
"347 470 QCURVE SMOOTH",
"347 1456 LINE",
"155 1456 LINE",
"155 470 LINE SMOOTH"
);
}
);
width = 1364;
}
);
unicode = 0055;
},
{
glyphname = V;
layers = (
{
layerId = "3459A980-FF7D-466A-B966-D2EC6A15CC7A";
paths = (
{
closed = 1;
nodes = (
"544 -10 LINE",
"716 -10 LINE",
"1260 1456 LINE",
"1064 1456 LINE",
"674 378 LINE SMOOTH",
"662 345 OFFCURVE",
"644 283 OFFCURVE",
"637 250 QCURVE",
"627 250 LINE",
"620 283 OFFCURVE",
"602 345 OFFCURVE",
"590 378 QCURVE SMOOTH",
"204 1456 LINE",
"0 1456 LINE"
);
}
);
width = 1260;
}
);
unicode = 0056;
},
{
glyphname = W;
layers = (
{
layerId = "3459A980-FF7D-466A-B966-D2EC6A15CC7A";
paths = (
{
closed = 1;
nodes = (
"596 -10 LINE",
"882 1070 LINE SMOOTH",
"891 1104 OFFCURVE",
"900 1165 OFFCURVE",
"903 1198 QCURVE",
"909 1198 LINE",
"912 1165 OFFCURVE",
"921 1104 OFFCURVE",
"930 1070 QCURVE SMOOTH",
"1216 -10 LINE",
"1404 -10 LINE",
"1762 1456 LINE",
"1570 1456 LINE",
"1331 378 LINE SMOOTH",
"1323 344 OFFCURVE",
"1316 283 OFFCURVE",
"1313 250 QCURVE",
"1307 250 LINE",
"1304 283 OFFCURVE",
"1298 344 OFFCURVE",
"1289 378 QCURVE SMOOTH",
"1006 1456 LINE",
"808 1456 LINE",
"535 378 LINE SMOOTH",
"526 344 OFFCURVE",
"520 283 OFFCURVE",
"517 250 QCURVE",
"511 250 LINE",
"508 283 OFFCURVE",
"501 344 OFFCURVE",
"493 378 QCURVE SMOOTH",
"244 1456 LINE",
"50 1456 LINE",
"408 -10 LINE"
);
}
);
width = 1812;
}
);
unicode = 0057;
},
{
glyphname = X;
layers = (
{
layerId = "3459A980-FF7D-466A-B966-D2EC6A15CC7A";
paths = (
{
closed = 1;
nodes = (
"237 0 LINE",
"659 670 LINE",
"673 670 LINE",
"1172 1456 LINE",
"960 1456 LINE",
"563 806 LINE",
"549 806 LINE",
"25 0 LINE"
);
},
{
closed = 1;
nodes = (
"549 670 LINE",
"559 670 LINE",
"981 0 LINE",
"1197 0 LINE",
"673 806 LINE",
"663 806 LINE",
"266 1456 LINE",
"50 1456 LINE"
);
}
);
width = 1222;
}
);
unicode = 0058;
},
{
glyphname = Y;
layers = (
{
anchors = (
{
name = top;
position = "{615, 1432}";
}
);
layerId = "3459A980-FF7D-466A-B966-D2EC6A15CC7A";
paths = (
{
closed = 1;
nodes = (
"710 0 LINE",
"710 544 LINE",
"1213 1456 LINE",
"1005 1456 LINE",
"673 840 LINE SMOOTH",
"657 810 OFFCURVE",
"630 750 OFFCURVE",
"619 720 QCURVE",
"613 720 LINE",
"602 750 OFFCURVE",
"575 810 OFFCURVE",
"559 840 QCURVE SMOOTH",
"231 1456 LINE",
"15 1456 LINE",
"518 544 LINE",
"518 0 LINE"
);
}
);
width = 1228;
}
);
unicode = 0059;
},
{
glyphname = Z;
layers = (
{
layerId = "3459A980-FF7D-466A-B966-D2EC6A15CC7A";
paths = (
{
closed = 1;
nodes = (
"1095 0 LINE",
"1095 158 LINE",
"265 158 LINE",
"1063 1316 LINE",
"1063 1456 LINE",
"48 1456 LINE",
"48 1298 LINE",
"834 1298 LINE",
"36 140 LINE",
"36 0 LINE"
);
}
);
width = 1131;
}
);
unicode = 005A;
},
{
glyphname = bracketleft;
layers = (
{
layerId = "3459A980-FF7D-466A-B966-D2EC6A15CC7A";
paths = (
{
closed = 1;
nodes = (
"620 -310 LINE",
"620 -150 LINE",
"329 -150 LINE",
"329 1296 LINE",
"620 1296 LINE",
"620 1456 LINE",
"144 1456 LINE",
"144 -310 LINE"
);
}
);
width = 700;
}
);
unicode = 005B;
},
{
glyphname = backslash;
layers = (
{
layerId = "3459A980-FF7D-466A-B966-D2EC6A15CC7A";
paths = (
{
closed = 1;
nodes = (
"508 -125 LINE",
"684 -125 LINE",
"76 1456 LINE",
"-100 1456 LINE"
);
}
);
width = 584;
}
);
unicode = 005C;
},
{
glyphname = bracketright;
layers = (
{
layerId = "3459A980-FF7D-466A-B966-D2EC6A15CC7A";
paths = (
{
closed = 1;
nodes = (
"556 1456 LINE",
"80 1456 LINE",
"80 1296 LINE",
"371 1296 LINE",
"371 -150 LINE",
"80 -150 LINE",
"80 -310 LINE",
"556 -310 LINE"
);
}
);
width = 700;
}
);
unicode = 005D;
},
{
glyphname = asciicircum;
layers = (
{
layerId = "3459A980-FF7D-466A-B966-D2EC6A15CC7A";
paths = (
{
closed = 1;
nodes = (
"225 720 LINE",
"585 1290 LINE",
"945 720 LINE",
"1145 720 LINE",
"670 1456 LINE",
"500 1456 LINE",
"25 720 LINE"
);
}
);
width = 1170;
}
);
unicode = 005E;
},
{
glyphname = underscore;
layers = (
{
layerId = "3459A980-FF7D-466A-B966-D2EC6A15CC7A";
paths = (
{
closed = 1;
nodes = (
"1024 -416 LINE",
"1024 -244 LINE",
"0 -244 LINE",
"0 -416 LINE"
);
}
);
width = 1024;
}
);
unicode = 005F;
},
{
glyphname = grave;
layers = (
{
anchors = (
{
name = _top;
position = "{512, 1052}";
}
);
layerId = "3459A980-FF7D-466A-B966-D2EC6A15CC7A";
paths = (
{
closed = 1;
nodes = (
"620 1198 LINE",
"426 1492 LINE",
"203 1492 LINE",
"471 1198 LINE"
);
}
);
width = 1024;
}
);
unicode = 0060;
},
{
glyphname = a;
layers = (
{
anchors = (
{
name = top;
position = "{563, 1052}";
}
);
layerId = "3459A980-FF7D-466A-B966-D2EC6A15CC7A";
paths = (
{
closed = 1;
nodes = (
"90 150 OFFCURVE",
"300 -20 OFFCURVE",
"450 -20 QCURVE SMOOTH",
"580 -20 OFFCURVE",
"745 80 OFFCURVE",
"782 145 QCURVE",
"785 105 OFFCURVE",
"808 25 OFFCURVE",
"822 0 QCURVE",
"1002 0 LINE",
"1002 16 LINE",
"984 60 OFFCURVE",
"964 175 OFFCURVE",
"964 240 QCURVE SMOOTH",
"964 720 LINE SMOOTH",
"964 900 OFFCURVE",
"755 1082 OFFCURVE",
"565 1082 QCURVE SMOOTH",
"375 1082 OFFCURVE",
"152 895 OFFCURVE",
"152 770 QCURVE SMOOTH",
"152 765 LINE",
"337 765 LINE",
"337 770 LINE SMOOTH",
"337 835 OFFCURVE",
"440 934 OFFCURVE",
"560 934 QCURVE SMOOTH",
"680 934 OFFCURVE",
"778 815 OFFCURVE",
"778 720 QCURVE SMOOTH",
"778 648 LINE",
"540 648 LINE SMOOTH",
"344 648 OFFCURVE",
"90 470 OFFCURVE",
"90 310 QCURVE SMOOTH"
);
},
{
closed = 1;
nodes = (
"276 410 OFFCURVE",
"420 516 OFFCURVE",
"560 516 QCURVE SMOOTH",
"778 516 LINE",
"778 365 LINE",
"778 280 OFFCURVE",
"600 128 OFFCURVE",
"490 128 QCURVE SMOOTH",
"380 128 OFFCURVE",
"276 230 OFFCURVE",
"276 320 QCURVE SMOOTH"
);
}
);
width = 1106;
}
);
unicode = 0061;
},
{
glyphname = b;
layers = (
{
layerId = "3459A980-FF7D-466A-B966-D2EC6A15CC7A";
paths = (
{
closed = 1;
nodes = (
"316 0 LINE",
"324 137 LINE",
"330 137 LINE",
"370 72 OFFCURVE",
"535 -20 OFFCURVE",
"645 -20 QCURVE SMOOTH",
"845 -20 OFFCURVE",
"1085 280 OFFCURVE",
"1085 510 QCURVE SMOOTH",
"1085 542 LINE SMOOTH",
"1085 772 OFFCURVE",
"845 1072 OFFCURVE",
"645 1072 QCURVE SMOOTH",
"535 1072 OFFCURVE",
"380 993 OFFCURVE",
"334 928 QCURVE",
"334 1536 LINE",
"148 1536 LINE",
"148 0 LINE"
);
},
{
closed = 1;
nodes = (
"334 740 LINE",
"365 810 OFFCURVE",
"505 920 OFFCURVE",
"605 920 QCURVE SMOOTH",
"755 920 OFFCURVE",
"895 702 OFFCURVE",
"895 542 QCURVE SMOOTH",
"895 510 LINE SMOOTH",
"895 350 OFFCURVE",
"755 132 OFFCURVE",
"605 132 QCURVE SMOOTH",
"505 132 OFFCURVE",
"365 242 OFFCURVE",
"334 312 QCURVE"
);
}
);
width = 1170;
}
);
unicode = 0062;
},
{
glyphname = c;
layers = (
{
anchors = (
{
name = bottom;
position = "{571, 0}";
}
);
layerId = "3459A980-FF7D-466A-B966-D2EC6A15CC7A";
paths = (
{
closed = 1;
nodes = (
"85 272 OFFCURVE",
"344 -30 OFFCURVE",
"571 -30 QCURVE SMOOTH",
"781 -30 OFFCURVE",
"999 197 OFFCURVE",
"999 337 QCURVE SMOOTH",
"999 342 LINE",
"819 342 LINE",
"819 337 LINE SMOOTH",
"819 252 OFFCURVE",
"701 122 OFFCURVE",
"571 122 QCURVE SMOOTH",
"419 122 OFFCURVE",
"275 347 OFFCURVE",
"275 510 QCURVE SMOOTH",
"275 542 LINE SMOOTH",
"275 705 OFFCURVE",
"419 930 OFFCURVE",
"571 930 QCURVE SMOOTH",
"701 930 OFFCURVE",
"819 800 OFFCURVE",
"819 715 QCURVE SMOOTH",
"819 710 LINE",
"999 710 LINE",
"999 715 LINE SMOOTH",
"999 855 OFFCURVE",
"781 1082 OFFCURVE",
"571 1082 QCURVE SMOOTH",
"344 1082 OFFCURVE",
"85 780 OFFCURVE",
"85 542 QCURVE SMOOTH",
"85 510 LINE SMOOTH"
);
}
);
width = 1034;
}
);
unicode = 0063;
},
{
glyphname = d;
layers = (
{
layerId = "3459A980-FF7D-466A-B966-D2EC6A15CC7A";
paths = (
{
closed = 1;
nodes = (
"85 280 OFFCURVE",
"325 -20 OFFCURVE",
"525 -20 QCURVE SMOOTH",
"635 -20 OFFCURVE",
"800 72 OFFCURVE",
"840 137 QCURVE",
"846 137 LINE",
"854 0 LINE",
"1022 0 LINE",
"1022 1536 LINE",
"836 1536 LINE",
"836 928 LINE",
"790 993 OFFCURVE",
"635 1072 OFFCURVE",
"525 1072 QCURVE SMOOTH",
"325 1072 OFFCURVE",
"85 772 OFFCURVE",
"85 542 QCURVE SMOOTH",
"85 510 LINE SMOOTH"
);
},
{
closed = 1;
nodes = (
"275 542 LINE SMOOTH",
"275 702 OFFCURVE",
"415 920 OFFCURVE",
"565 920 QCURVE SMOOTH",
"665 920 OFFCURVE",
"805 810 OFFCURVE",
"836 740 QCURVE",
"836 312 LINE",
"805 242 OFFCURVE",
"665 132 OFFCURVE",
"565 132 QCURVE SMOOTH",
"415 132 OFFCURVE",
"275 350 OFFCURVE",
"275 510 QCURVE SMOOTH"
);
}
);
width = 1170;
}
);
unicode = 0064;
},
{
glyphname = e;
layers = (
{
anchors = (
{
name = top;
position = "{558, 1053}";
}
);
layerId = "3459A980-FF7D-466A-B966-D2EC6A15CC7A";
paths = (
{
closed = 1;
nodes = (
"85 272 OFFCURVE",
"346 -30 OFFCURVE",
"591 -30 QCURVE SMOOTH",
"741 -30 OFFCURVE",
"950 100 OFFCURVE",
"1000 175 QCURVE",
"880 270 LINE",
"835 210 OFFCURVE",
"691 122 OFFCURVE",
"591 122 QCURVE SMOOTH",
"429 122 OFFCURVE",
"275 347 OFFCURVE",
"275 510 QCURVE SMOOTH",
"275 542 LINE SMOOTH",
"275 705 OFFCURVE",
"421 930 OFFCURVE",
"569 930 QCURVE SMOOTH",
"691 930 OFFCURVE",
"820 770 OFFCURVE",
"821 656 QCURVE",
"820 632 LINE",
"199 632 LINE",
"199 484 LINE",
"1008 484 LINE",
"1008 560 LINE SMOOTH",
"1008 800 OFFCURVE",
"776 1082 OFFCURVE",
"561 1082 QCURVE SMOOTH",
"346 1082 OFFCURVE",
"85 780 OFFCURVE",
"85 542 QCURVE SMOOTH",
"85 510 LINE SMOOTH"
);
}
);
width = 1060;
}
);
unicode = 0065;
},
{
glyphname = f;
layers = (
{
layerId = "3459A980-FF7D-466A-B966-D2EC6A15CC7A";
paths = (
{
closed = 1;
nodes = (
"382 0 LINE",
"382 970 LINE",
"382 992 LINE",
"382 1200 LINE SMOOTH",
"382 1300 OFFCURVE",
"480 1400 OFFCURVE",
"570 1400 QCURVE SMOOTH",
"596 1400 OFFCURVE",
"646 1394 OFFCURVE",
"668 1390 QCURVE",
"678 1540 LINE",
"648 1548 OFFCURVE",
"582 1556 OFFCURVE",
"550 1556 QCURVE SMOOTH",
"386 1556 OFFCURVE",
"196 1374 OFFCURVE",
"196 1200 QCURVE SMOOTH",
"196 0 LINE"
);
},
{
closed = 1;
nodes = (
"610 910 LINE",
"610 1052 LINE",
"312 1052 LINE",
"266 1052 LINE",
"25 1052 LINE",
"25 910 LINE"
);
}
);
width = 600;
}
);
unicode = 0066;
},
{
glyphname = g;
layers = (
{
layerId = "3459A980-FF7D-466A-B966-D2EC6A15CC7A";
paths = (
{
closed = 1;
nodes = (
"200 -350 OFFCURVE",
"420 -436 OFFCURVE",
"550 -436 QCURVE SMOOTH",
"760 -436 OFFCURVE",
"1022 -200 OFFCURVE",
"1022 20 QCURVE SMOOTH",
"1022 1052 LINE",
"854 1052 LINE",
"846 915 LINE",
"840 915 LINE",
"800 980 OFFCURVE",
"635 1072 OFFCURVE",
"525 1072 QCURVE SMOOTH",
"325 1072 OFFCURVE",
"85 772 OFFCURVE",
"85 542 QCURVE SMOOTH",
"85 510 LINE SMOOTH",
"85 280 OFFCURVE",
"325 -20 OFFCURVE",
"525 -20 QCURVE SMOOTH",
"635 -20 OFFCURVE",
"790 59 OFFCURVE",
"836 124 QCURVE",
"836 20 LINE SMOOTH",
"836 -120 OFFCURVE",
"680 -274 OFFCURVE",
"545 -274 QCURVE SMOOTH",
"445 -274 OFFCURVE",
"285 -195 OFFCURVE",
"241 -144 QCURVE",
"124 -284 LINE"
);
},
{
closed = 1;
nodes = (
"275 542 LINE SMOOTH",
"275 702 OFFCURVE",
"415 920 OFFCURVE",
"565 920 QCURVE SMOOTH",
"665 920 OFFCURVE",
"805 810 OFFCURVE",
"836 740 QCURVE",
"836 312 LINE",
"805 242 OFFCURVE",
"665 132 OFFCURVE",
"565 132 QCURVE SMOOTH",
"415 132 OFFCURVE",
"275 350 OFFCURVE",
"275 510 QCURVE SMOOTH"
);
}
);
width = 1170;
}
);
unicode = 0067;
},
{
glyphname = h;
layers = (
{
layerId = "3459A980-FF7D-466A-B966-D2EC6A15CC7A";
paths = (
{
closed = 1;
nodes = (
"334 0 LINE",
"334 744 LINE",
"372 820 OFFCURVE",
"508 916 OFFCURVE",
"597 916 QCURVE SMOOTH",
"701 916 OFFCURVE",
"814 807 OFFCURVE",
"814 681 QCURVE SMOOTH",
"814 0 LINE",
"1000 0 LINE",
"1000 679 LINE SMOOTH",
"1000 891 OFFCURVE",
"811 1072 OFFCURVE",
"652 1072 QCURVE SMOOTH",
"552 1072 OFFCURVE",
"390 990 OFFCURVE",
"334 922 QCURVE",
"334 1536 LINE",
"148 1536 LINE",
"148 0 LINE"
);
}
);
width = 1138;
}
);
unicode = 0068;
},
{
glyphname = i;
layers = (
{
layerId = "3459A980-FF7D-466A-B966-D2EC6A15CC7A";
paths = (
{
closed = 1;
nodes = (
"343 0 LINE",
"343 1052 LINE",
"157 1052 LINE",
"157 0 LINE"
);
},
{
closed = 1;
nodes = (
"140 1325 OFFCURVE",
"197 1264 OFFCURVE",
"250 1264 QCURVE SMOOTH",
"303 1264 OFFCURVE",
"360 1325 OFFCURVE",
"360 1370 QCURVE SMOOTH",
"360 1415 OFFCURVE",
"303 1476 OFFCURVE",
"250 1476 QCURVE SMOOTH",
"197 1476 OFFCURVE",
"140 1415 OFFCURVE",
"140 1370 QCURVE SMOOTH"
);
}
);
width = 500;
}
);
unicode = 0069;
},
{
glyphname = j;
layers = (
{
layerId = "3459A980-FF7D-466A-B966-D2EC6A15CC7A";
paths = (
{
closed = 1;
nodes = (
"-69 -419 OFFCURVE",
"30 -436 OFFCURVE",
"70 -436 QCURVE SMOOTH",
"204 -436 OFFCURVE",
"343 -270 OFFCURVE",
"343 -90 QCURVE SMOOTH",
"343 1052 LINE",
"157 1052 LINE",
"157 -130 LINE SMOOTH",
"157 -210 OFFCURVE",
"90 -280 OFFCURVE",
"30 -280 QCURVE SMOOTH",
"0 -280 OFFCURVE",
"-74 -266 OFFCURVE",
"-94 -260 QCURVE",
"-94 -410 LINE"
);
},
{
closed = 1;
nodes = (
"140 1325 OFFCURVE",
"197 1264 OFFCURVE",
"250 1264 QCURVE SMOOTH",
"303 1264 OFFCURVE",
"360 1325 OFFCURVE",
"360 1370 QCURVE SMOOTH",
"360 1415 OFFCURVE",
"303 1476 OFFCURVE",
"250 1476 QCURVE SMOOTH",
"197 1476 OFFCURVE",
"140 1415 OFFCURVE",
"140 1370 QCURVE SMOOTH"
);
}
);
width = 500;
}
);
unicode = 006A;
},
{
glyphname = k;
layers = (
{
layerId = "3459A980-FF7D-466A-B966-D2EC6A15CC7A";
paths = (
{
closed = 1;
nodes = (
"334 0 LINE",
"334 351 LINE",
"995 1052 LINE",
"774 1052 LINE",
"334 578 LINE",
"334 1536 LINE",
"148 1536 LINE",
"148 0 LINE"
);
},
{
closed = 1;
nodes = (
"1044 0 LINE",
"531 678 LINE",
"407 545 LINE",
"818 0 LINE"
);
}
);
width = 1028;
}
);
unicode = 006B;
},
{
glyphname = l;
layers = (
{
layerId = "3459A980-FF7D-466A-B966-D2EC6A15CC7A";
paths = (
{
closed = 1;
nodes = (
"342 0 LINE",
"342 1536 LINE",
"156 1536 LINE",
"156 0 LINE"
);
}
);
width = 498;
}
);
unicode = 006C;
},
{
glyphname = m;
layers = (
{
layerId = "3459A980-FF7D-466A-B966-D2EC6A15CC7A";
paths = (
{
closed = 1;
nodes = (
"334 0 LINE",
"334 744 LINE",
"372 820 OFFCURVE",
"501 916 OFFCURVE",
"587 916 QCURVE SMOOTH",
"686 916 OFFCURVE",
"794 807 OFFCURVE",
"794 681 QCURVE SMOOTH",
"794 0 LINE",
"980 0 LINE",
"980 744 LINE",
"1018 820 OFFCURVE",
"1147 916 OFFCURVE",
"1233 916 QCURVE SMOOTH",
"1332 916 OFFCURVE",
"1440 807 OFFCURVE",
"1440 681 QCURVE SMOOTH",
"1440 0 LINE",
"1626 0 LINE",
"1626 679 LINE SMOOTH",
"1626 891 OFFCURVE",
"1442 1072 OFFCURVE",
"1278 1072 QCURVE SMOOTH",
"1174 1072 OFFCURVE",
"1014 988 OFFCURVE",
"948 894 QCURVE",
"942 894 LINE",
"902 988 OFFCURVE",
"748 1072 OFFCURVE",
"642 1072 QCURVE SMOOTH",
"545 1072 OFFCURVE",
"386 988 OFFCURVE",
"330 917 QCURVE",
"324 917 LINE",
"316 1052 LINE",
"148 1052 LINE",
"148 0 LINE"
);
}
);
width = 1764;
}
);
unicode = 006D;
},
{
glyphname = n;
layers = (
{
anchors = (
{
name = top;
position = "{597, 1052}";
}
);
layerId = "3459A980-FF7D-466A-B966-D2EC6A15CC7A";
paths = (
{
closed = 1;
nodes = (
"334 0 LINE",
"334 744 LINE",
"372 820 OFFCURVE",
"508 916 OFFCURVE",
"597 916 QCURVE SMOOTH",
"701 916 OFFCURVE",
"814 807 OFFCURVE",
"814 681 QCURVE SMOOTH",
"814 0 LINE",
"1000 0 LINE",
"1000 679 LINE SMOOTH",
"1000 891 OFFCURVE",
"811 1072 OFFCURVE",
"652 1072 QCURVE SMOOTH",
"552 1072 OFFCURVE",
"387 989 OFFCURVE",
"330 917 QCURVE",
"324 917 LINE",
"316 1052 LINE",
"148 1052 LINE",
"148 0 LINE"
);
}
);
width = 1138;
}
);
unicode = 006E;
},
{
glyphname = o;
layers = (
{
anchors = (
{
name = top;
position = "{581, 1052}";
}
);
layerId = "3459A980-FF7D-466A-B966-D2EC6A15CC7A";
paths = (
{
closed = 1;
nodes = (
"85 272 OFFCURVE",
"355 -30 OFFCURVE",
"581 -30 QCURVE SMOOTH",
"807 -30 OFFCURVE",
"1077 272 OFFCURVE",
"1077 510 QCURVE SMOOTH",
"1077 542 LINE SMOOTH",
"1077 780 OFFCURVE",
"807 1082 OFFCURVE",
"581 1082 QCURVE SMOOTH",
"355 1082 OFFCURVE",
"85 780 OFFCURVE",
"85 542 QCURVE SMOOTH",
"85 510 LINE SMOOTH"
);
},
{
closed = 1;
nodes = (
"275 705 OFFCURVE",
"429 930 OFFCURVE",
"581 930 QCURVE SMOOTH",
"733 930 OFFCURVE",
"887 705 OFFCURVE",
"887 542 QCURVE SMOOTH",
"887 510 LINE SMOOTH",
"887 347 OFFCURVE",
"733 122 OFFCURVE",
"581 122 QCURVE SMOOTH",
"429 122 OFFCURVE",
"275 347 OFFCURVE",
"275 510 QCURVE SMOOTH",
"275 542 LINE SMOOTH"
);
}
);
width = 1162;
}
);
unicode = 006F;
},
{
glyphname = p;
layers = (
{
layerId = "3459A980-FF7D-466A-B966-D2EC6A15CC7A";
paths = (
{
closed = 1;
nodes = (
"334 -416 LINE",
"334 124 LINE",
"380 59 OFFCURVE",
"535 -20 OFFCURVE",
"645 -20 QCURVE SMOOTH",
"845 -20 OFFCURVE",
"1085 280 OFFCURVE",
"1085 510 QCURVE SMOOTH",
"1085 542 LINE SMOOTH",
"1085 772 OFFCURVE",
"845 1072 OFFCURVE",
"645 1072 QCURVE SMOOTH",
"535 1072 OFFCURVE",
"370 980 OFFCURVE",
"330 915 QCURVE",
"324 915 LINE",
"316 1052 LINE",
"148 1052 LINE",
"148 -416 LINE"
);
},
{
closed = 1;
nodes = (
"334 740 LINE",
"365 810 OFFCURVE",
"505 920 OFFCURVE",
"605 920 QCURVE SMOOTH",
"755 920 OFFCURVE",
"895 702 OFFCURVE",
"895 542 QCURVE SMOOTH",
"895 510 LINE SMOOTH",
"895 350 OFFCURVE",
"755 132 OFFCURVE",
"605 132 QCURVE SMOOTH",
"505 132 OFFCURVE",
"365 242 OFFCURVE",
"334 312 QCURVE"
);
}
);
width = 1170;
}
);
unicode = 0070;
},
{
glyphname = q;
layers = (
{
layerId = "3459A980-FF7D-466A-B966-D2EC6A15CC7A";
paths = (
{
closed = 1;
nodes = (
"85 280 OFFCURVE",
"325 -20 OFFCURVE",
"525 -20 QCURVE SMOOTH",
"635 -20 OFFCURVE",
"790 59 OFFCURVE",
"836 124 QCURVE",
"836 124 LINE",
"836 -416 LINE",
"1022 -416 LINE",
"1022 1052 LINE",
"854 1052 LINE",
"846 915 LINE",
"840 915 LINE",
"800 980 OFFCURVE",
"635 1072 OFFCURVE",
"525 1072 QCURVE SMOOTH",
"325 1072 OFFCURVE",
"85 772 OFFCURVE",
"85 542 QCURVE SMOOTH",
"85 510 LINE SMOOTH"
);
},
{
closed = 1;
nodes = (
"275 542 LINE SMOOTH",
"275 702 OFFCURVE",
"415 920 OFFCURVE",
"565 920 QCURVE SMOOTH",
"665 920 OFFCURVE",
"805 810 OFFCURVE",
"836 740 QCURVE",
"836 312 LINE",
"805 242 OFFCURVE",
"665 132 OFFCURVE",
"565 132 QCURVE SMOOTH",
"415 132 OFFCURVE",
"275 350 OFFCURVE",
"275 510 QCURVE SMOOTH"
);
}
);
width = 1170;
}
);
unicode = 0071;
},
{
glyphname = r;
layers = (
{
layerId = "3459A980-FF7D-466A-B966-D2EC6A15CC7A";
paths = (
{
closed = 1;
nodes = (
"334 0 LINE",
"334 740 LINE",
"364 810 OFFCURVE",
"490 904 OFFCURVE",
"580 904 QCURVE SMOOTH",
"606 904 OFFCURVE",
"650 900 OFFCURVE",
"670 896 QCURVE",
"670 1068 LINE",
"660 1072 OFFCURVE",
"612 1082 OFFCURVE",
"590 1082 QCURVE SMOOTH",
"500 1082 OFFCURVE",
"370 983 OFFCURVE",
"330 917 QCURVE",
"324 917 LINE",
"316 1052 LINE",
"148 1052 LINE",
"148 0 LINE"
);
}
);
width = 700;
}
);
unicode = 0072;
},
{
glyphname = s;
layers = (
{
layerId = "3459A980-FF7D-466A-B966-D2EC6A15CC7A";
paths = (
{
closed = 1;
nodes = (
"80 305 LINE SMOOTH",
"80 153 OFFCURVE",
"300 -30 OFFCURVE",
"510 -30 QCURVE SMOOTH",
"720 -30 OFFCURVE",
"930 150 OFFCURVE",
"930 290 QCURVE SMOOTH",
"930 430 OFFCURVE",
"745 580 OFFCURVE",
"575 620 QCURVE SMOOTH",
"405 660 OFFCURVE",
"289 730 OFFCURVE",
"289 790 QCURVE SMOOTH",
"289 850 OFFCURVE",
"390 930 OFFCURVE",
"500 930 QCURVE SMOOTH",
"610 930 OFFCURVE",
"715 844 OFFCURVE",
"715 769 QCURVE SMOOTH",
"715 760 LINE",
"900 760 LINE",
"900 765 LINE SMOOTH",
"900 911 OFFCURVE",
"680 1082 OFFCURVE",
"500 1082 QCURVE SMOOTH",
"320 1082 OFFCURVE",
"105 910 OFFCURVE",
"105 780 QCURVE SMOOTH",
"105 650 OFFCURVE",
"305 505 OFFCURVE",
"475 465 QCURVE SMOOTH",
"645 425 OFFCURVE",
"747 350 OFFCURVE",
"747 280 QCURVE SMOOTH",
"747 210 OFFCURVE",
"620 122 OFFCURVE",
"510 122 QCURVE SMOOTH",
"400 122 OFFCURVE",
"266 214 OFFCURVE",
"266 305 QCURVE SMOOTH",
"266 310 LINE",
"80 310 LINE"
);
}
);
width = 1010;
}
);
unicode = 0073;
},
{
glyphname = t;
layers = (
{
layerId = "3459A980-FF7D-466A-B966-D2EC6A15CC7A";
paths = (
{
closed = 1;
nodes = (
"600 910 LINE",
"600 1052 LINE",
"0 1052 LINE",
"0 910 LINE"
);
},
{
closed = 1;
nodes = (
"188 110 OFFCURVE",
"325 -30 OFFCURVE",
"440 -30 QCURVE SMOOTH",
"490 -30 OFFCURVE",
"574 -12 OFFCURVE",
"600 0 QCURVE",
"600 152 LINE",
"572 142 OFFCURVE",
"518 130 OFFCURVE",
"490 130 QCURVE SMOOTH",
"430 130 OFFCURVE",
"374 190 OFFCURVE",
"374 260 QCURVE SMOOTH",
"374 1312 LINE",
"188 1312 LINE",
"188 996 LINE",
"188 966 LINE",
"188 260 LINE SMOOTH"
);
}
);
width = 650;
}
);
unicode = 0074;
},
{
glyphname = u;
layers = (
{
anchors = (
{
name = top;
position = "{564, 1052}";
}
);
layerId = "3459A980-FF7D-466A-B966-D2EC6A15CC7A";
paths = (
{
closed = 1;
nodes = (
"138 161 OFFCURVE",
"327 -20 OFFCURVE",
"486 -20 QCURVE SMOOTH",
"586 -20 OFFCURVE",
"751 63 OFFCURVE",
"808 135 QCURVE",
"814 135 LINE",
"822 0 LINE",
"990 0 LINE",
"990 1052 LINE",
"804 1052 LINE",
"804 308 LINE",
"766 232 OFFCURVE",
"630 136 OFFCURVE",
"541 136 QCURVE SMOOTH",
"437 136 OFFCURVE",
"324 245 OFFCURVE",
"324 371 QCURVE SMOOTH",
"324 1052 LINE",
"138 1052 LINE",
"138 373 LINE SMOOTH"
);
}
);
width = 1138;
}
);
unicode = 0075;
},
{
glyphname = v;
layers = (
{
layerId = "3459A980-FF7D-466A-B966-D2EC6A15CC7A";
paths = (
{
closed = 1;
nodes = (
"400 0 LINE",
"542 0 LINE",
"942 1052 LINE",
"766 1052 LINE",
"514 360 LINE SMOOTH",
"499 320 OFFCURVE",
"480 240 OFFCURVE",
"476 200 QCURVE",
"470 200 LINE",
"466 240 OFFCURVE",
"447 320 OFFCURVE",
"432 360 QCURVE SMOOTH",
"180 1052 LINE",
"0 1052 LINE"
);
}
);
width = 942;
}
);
unicode = 0076;
},
{
glyphname = w;
layers = (
{
layerId = "3459A980-FF7D-466A-B966-D2EC6A15CC7A";
paths = (
{
closed = 1;
nodes = (
"350 0 LINE",
"495 0 LINE",
"724 680 LINE SMOOTH",
"737 720 OFFCURVE",
"760 800 OFFCURVE",
"770 840 QCURVE",
"776 840 LINE",
"786 800 OFFCURVE",
"809 720 OFFCURVE",
"822 680 QCURVE SMOOTH",
"1051 0 LINE",
"1196 0 LINE",
"1521 1052 LINE",
"1351 1052 LINE",
"1161 360 LINE SMOOTH",
"1150 320 OFFCURVE",
"1129 240 OFFCURVE",
"1125 200 QCURVE",
"1119 200 LINE",
"1115 240 OFFCURVE",
"1096 320 OFFCURVE",
"1083 360 QCURVE SMOOTH",
"856 1052 LINE",
"700 1052 LINE",
"473 360 LINE SMOOTH",
"460 320 OFFCURVE",
"441 240 OFFCURVE",
"437 200 QCURVE",
"431 200 LINE",
"427 240 OFFCURVE",
"406 320 OFFCURVE",
"395 360 QCURVE SMOOTH",
"205 1052 LINE",
"25 1052 LINE"
);
}
);
width = 1546;
}
);
unicode = 0077;
},
{
glyphname = x;
layers = (
{
layerId = "3459A980-FF7D-466A-B966-D2EC6A15CC7A";
paths = (
{
closed = 1;
nodes = (
"230 0 LINE",
"547 484 LINE",
"558 484 LINE",
"938 1052 LINE",
"728 1052 LINE",
"431 582 LINE",
"420 582 LINE",
"20 0 LINE"
);
},
{
closed = 1;
nodes = (
"420 484 LINE",
"428 484 LINE",
"745 0 LINE",
"958 0 LINE",
"558 582 LINE",
"550 582 LINE",
"253 1052 LINE",
"40 1052 LINE"
);
}
);
width = 978;
}
);
unicode = 0078;
},
{
glyphname = y;
layers = (
{
anchors = (
{
name = top;
position = "{480, 1052}";
}
);
layerId = "3459A980-FF7D-466A-B966-D2EC6A15CC7A";
paths = (
{
closed = 1;
nodes = (
"78 -426 OFFCURVE",
"140 -436 OFFCURVE",
"180 -436 QCURVE SMOOTH",
"300 -436 OFFCURVE",
"465 -280 OFFCURVE",
"515 -140 QCURVE SMOOTH",
"942 1052 LINE",
"766 1052 LINE",
"528 360 LINE SMOOTH",
"514 320 OFFCURVE",
"494 240 OFFCURVE",
"490 200 QCURVE",
"484 200 LINE",
"480 240 OFFCURVE",
"461 320 OFFCURVE",
"446 360 QCURVE SMOOTH",
"190 1052 LINE",
"10 1052 LINE",
"404 10 LINE",
"365 -100 LINE SMOOTH",
"330 -200 OFFCURVE",
"240 -276 OFFCURVE",
"170 -276 QCURVE SMOOTH",
"140 -276 OFFCURVE",
"76 -266 OFFCURVE",
"50 -258 QCURVE",
"50 -416 LINE"
);
}
);
width = 942;
}
);
unicode = 0079;
},
{
glyphname = z;
layers = (
{
layerId = "3459A980-FF7D-466A-B966-D2EC6A15CC7A";
paths = (
{
closed = 1;
nodes = (
"928 0 LINE",
"928 152 LINE",
"292 152 LINE",
"898 919 LINE",
"898 1052 LINE",
"78 1052 LINE",
"78 900 LINE",
"674 900 LINE",
"70 136 LINE",
"70 0 LINE"
);
}
);
width = 992;
}
);
unicode = 007A;
},
{
glyphname = braceleft;
layers = (
{
layerId = "3459A980-FF7D-466A-B966-D2EC6A15CC7A";
paths = (
{
closed = 1;
nodes = (
"670 -166 LINE",
"522 -166 OFFCURVE",
"383 2 OFFCURVE",
"412 123 QCURVE SMOOTH",
"462 334 LINE SMOOTH",
"482 418 OFFCURVE",
"410 548 OFFCURVE",
"312 574 QCURVE",
"410 600 OFFCURVE",
"482 730 OFFCURVE",
"462 814 QCURVE SMOOTH",
"412 1025 LINE SMOOTH",
"383 1146 OFFCURVE",
"522 1314 OFFCURVE",
"670 1314 QCURVE",
"670 1460 LINE",
"444 1460 OFFCURVE",
"189 1180 OFFCURVE",
"226 1025 QCURVE SMOOTH",
"276 814 LINE SMOOTH",
"301 707 OFFCURVE",
"176 640 OFFCURVE",
"64 640 QCURVE",
"64 508 LINE",
"176 508 OFFCURVE",
"301 441 OFFCURVE",
"276 334 QCURVE SMOOTH",
"226 123 LINE SMOOTH",
"189 -32 OFFCURVE",
"444 -312 OFFCURVE",
"670 -312 QCURVE"
);
}
);
width = 700;
}
);
unicode = 007B;
},
{
glyphname = bar;
layers = (
{
layerId = "3459A980-FF7D-466A-B966-D2EC6A15CC7A";
paths = (
{
closed = 1;
nodes = (
"382 -416 LINE",
"382 1536 LINE",
"210 1536 LINE",
"210 -416 LINE"
);
}
);
width = 592;
}
);
unicode = 007C;
},
{
glyphname = braceright;
layers = (
{
layerId = "3459A980-FF7D-466A-B966-D2EC6A15CC7A";
paths = (
{
closed = 1;
nodes = (
"256 -312 OFFCURVE",
"511 -32 OFFCURVE",
"474 123 QCURVE SMOOTH",
"424 334 LINE SMOOTH",
"399 441 OFFCURVE",
"524 508 OFFCURVE",
"636 508 QCURVE",
"636 640 LINE",
"524 640 OFFCURVE",
"399 707 OFFCURVE",
"424 814 QCURVE SMOOTH",
"474 1025 LINE SMOOTH",
"511 1180 OFFCURVE",
"256 1460 OFFCURVE",
"30 1460 QCURVE",
"30 1314 LINE",
"178 1314 OFFCURVE",
"317 1146 OFFCURVE",
"288 1025 QCURVE SMOOTH",
"238 814 LINE SMOOTH",
"218 730 OFFCURVE",
"290 600 OFFCURVE",
"388 574 QCURVE",
"290 548 OFFCURVE",
"218 418 OFFCURVE",
"238 334 QCURVE SMOOTH",
"288 123 LINE SMOOTH",
"317 2 OFFCURVE",
"178 -166 OFFCURVE",
"30 -166 QCURVE",
"30 -312 LINE"
);
}
);
width = 700;
}
);
unicode = 007D;
},
{
glyphname = asciitilde;
layers = (
{
layerId = "3459A980-FF7D-466A-B966-D2EC6A15CC7A";
paths = (
{
closed = 1;
nodes = (
"92 592 OFFCURVE",
"224 659 OFFCURVE",
"289 659 QCURVE SMOOTH",
"368 659 OFFCURVE",
"461 617 OFFCURVE",
"524 586 QCURVE SMOOTH",
"583 556 OFFCURVE",
"668 517 OFFCURVE",
"742 517 QCURVE SMOOTH",
"807 517 OFFCURVE",
"931 575 OFFCURVE",
"978 626 QCURVE",
"978 829 LINE",
"931 769 OFFCURVE",
"806 701 OFFCURVE",
"741 701 QCURVE SMOOTH",
"667 701 OFFCURVE",
"582 740 OFFCURVE",
"523 770 QCURVE SMOOTH",
"460 801 OFFCURVE",
"368 844 OFFCURVE",
"289 843 QCURVE SMOOTH",
"224 842 OFFCURVE",
"92 785 OFFCURVE",
"45 734 QCURVE",
"45 532 LINE"
);
}
);
width = 1024;
}
);
unicode = 007E;
},
{
glyphname = exclamdown;
layers = (
{
layerId = "3459A980-FF7D-466A-B966-D2EC6A15CC7A";
paths = (
{
closed = 1;
nodes = (
"434 1102 OFFCURVE",
"370 1172 OFFCURVE",
"310 1172 QCURVE SMOOTH",
"250 1172 OFFCURVE",
"186 1102 OFFCURVE",
"186 1053 QCURVE SMOOTH",
"186 1004 OFFCURVE",
"250 934 OFFCURVE",
"310 934 QCURVE SMOOTH",
"370 934 OFFCURVE",
"434 1004 OFFCURVE",
"434 1053 QCURVE SMOOTH"
);
},
{
closed = 1;
nodes = (
"228 740 LINE",
"213 -306 LINE",
"407 -306 LINE",
"392 740 LINE"
);
}
);
width = 620;
}
);
unicode = 00A1;
},
{
glyphname = cent;
layers = (
{
layerId = "3459A980-FF7D-466A-B966-D2EC6A15CC7A";
paths = (
{
closed = 1;
nodes = (
"375 282 OFFCURVE",
"251 528 OFFCURVE",
"251 670 QCURVE SMOOTH",
"251 712 LINE SMOOTH",
"251 852 OFFCURVE",
"377 1100 OFFCURVE",
"547 1100 QCURVE",
"657 1100 OFFCURVE",
"795 959 OFFCURVE",
"802 860 QCURVE",
"978 860 LINE",
"971 1026 OFFCURVE",
"736 1252 OFFCURVE",
"547 1252 QCURVE SMOOTH",
"304 1252 OFFCURVE",
"65 928 OFFCURVE",
"65 712 QCURVE SMOOTH",
"65 670 LINE SMOOTH",
"65 454 OFFCURVE",
"304 130 OFFCURVE",
"547 130 QCURVE",
"718 130 OFFCURVE",
"970 348 OFFCURVE",
"978 492 QCURVE",
"802 492 LINE",
"795 401 OFFCURVE",
"646 282 OFFCURVE",
"547 282 QCURVE SMOOTH"
);
},
{
closed = 1;
nodes = (
"619 0 LINE",
"619 240 LINE",
"614 250 LINE",
"614 708 LINE",
"474 708 LINE",
"474 251 LINE",
"469 237 LINE",
"469 0 LINE"
);
},
{
closed = 1;
nodes = (
"614 708 LINE",
"614 1179 LINE",
"619 1192 LINE",
"619 1402 LINE",
"469 1402 LINE",
"469 1192 LINE",
"474 1182 LINE",
"474 708 LINE"
);
}
);
width = 1024;
}
);
unicode = 00A2;
},
{
glyphname = sterling;
layers = (
{
layerId = "3459A980-FF7D-466A-B966-D2EC6A15CC7A";
paths = (
{
closed = 1;
nodes = (
"1028 166 LINE",
"322 166 LINE",
"392 207 OFFCURVE",
"447 372 OFFCURVE",
"434 508 QCURVE SMOOTH",
"383 1039 LINE SMOOTH",
"369 1185 OFFCURVE",
"486 1309 OFFCURVE",
"583 1309 QCURVE SMOOTH",
"675 1309 OFFCURVE",
"785 1218 OFFCURVE",
"792 1103 QCURVE SMOOTH",
"792 1087 LINE",
"984 1087 LINE",
"984 1103 LINE SMOOTH",
"984 1270 OFFCURVE",
"771 1476 OFFCURVE",
"581 1476 QCURVE SMOOTH",
"380 1476 OFFCURVE",
"177 1228 OFFCURVE",
"195 1039 QCURVE SMOOTH",
"250 467 LINE SMOOTH",
"264 324 OFFCURVE",
"184 160 OFFCURVE",
"92 160 QCURVE SMOOTH",
"36 160 LINE",
"36 0 LINE",
"1028 0 LINE"
);
},
{
closed = 1;
nodes = (
"824 780 LINE",
"52 780 LINE",
"52 625 LINE",
"824 625 LINE"
);
}
);
width = 1024;
}
);
unicode = 00A3;
},
{
glyphname = currency;
layers = (
{
guideLines = (
{
position = "{0, 901}";
},
{
position = "{0, 555}";
}
);
layerId = "3459A980-FF7D-466A-B966-D2EC6A15CC7A";
paths = (
{
closed = 1;
nodes = (
"261 855 OFFCURVE",
"445 1049 OFFCURVE",
"576 1049 QCURVE SMOOTH",
"706 1049 OFFCURVE",
"889 855 OFFCURVE",
"889 712 QCURVE SMOOTH",
"889 567 OFFCURVE",
"706 373 OFFCURVE",
"576 373 QCURVE SMOOTH",
"445 373 OFFCURVE",
"261 567 OFFCURVE",
"261 712 QCURVE"
);
},
{
closed = 1;
nodes = (
"78 504 OFFCURVE",
"374 209 OFFCURVE",
"575 209 QCURVE SMOOTH",
"776 209 OFFCURVE",
"1072 504 OFFCURVE",
"1072 718 QCURVE SMOOTH",
"1072 933 OFFCURVE",
"776 1225 OFFCURVE",
"575 1225 QCURVE SMOOTH",
"374 1225 OFFCURVE",
"78 933 OFFCURVE",
"78 718 QCURVE"
);
},
{
closed = 1;
nodes = (
"997 1303 LINE",
"795 1097 LINE",
"917 970 LINE",
"1119 1176 LINE"
);
},
{
closed = 1;
nodes = (
"214 479 LINE",
"12 274 LINE",
"133 148 LINE",
"335 354 LINE"
);
},
{
closed = 1;
nodes = (
"1146 282 LINE",
"944 487 LINE",
"821 361 LINE",
"1023 155 LINE"
);
},
{
closed = 1;
nodes = (
"352 1110 LINE",
"150 1316 LINE",
"29 1190 LINE",
"231 984 LINE"
);
}
);
width = 1158;
}
);
unicode = 00A4;
userData = {
com.typemytype.robofont.guideline.magnetic.917FhrihjR = 5;
com.typemytype.robofont.guideline.magnetic.bRYxxRaQQf = 5;
};
},
{
glyphname = yen;
layers = (
{
anchors = (
{
name = top;
position = "{615, 1432}";
}
);
layerId = "3459A980-FF7D-466A-B966-D2EC6A15CC7A";
paths = (
{
closed = 1;
nodes = (
"1005 311 LINE",
"1005 470 LINE",
"59 470 LINE",
"59 311 LINE"
);
},
{
closed = 1;
nodes = (
"1005 621 LINE",
"1005 775 LINE",
"635 775 LINE",
"587 669 LINE",
"478 669 LINE",
"425 775 LINE",
"59 775 LINE",
"59 621 LINE"
);
},
{
closed = 1;
nodes = (
"620 0 LINE",
"620 548 LINE",
"1075 1456 LINE",
"874 1456 LINE",
"594 849 LINE SMOOTH",
"580 819 OFFCURVE",
"549 735 OFFCURVE",
"540 679 QCURVE",
"520 679 LINE",
"513 716 OFFCURVE",
"480 819 OFFCURVE",
"466 849 QCURVE SMOOTH",
"190 1456 LINE",
"-19 1456 LINE",
"436 548 LINE",
"436 0 LINE"
);
}
);
width = 1056;
}
);
unicode = 00A5;
},
{
glyphname = brokenbar;
layers = (
{
guideLines = (
{
position = "{0, 901}";
},
{
position = "{0, 555}";
}
);
layerId = "3459A980-FF7D-466A-B966-D2EC6A15CC7A";
paths = (
{
closed = 1;
nodes = (
"387 359 LINE",
"205 359 LINE",
"205 -416 LINE",
"387 -416 LINE"
);
},
{
closed = 1;
nodes = (
"205 1536 LINE",
"205 761 LINE",
"387 761 LINE",
"387 1536 LINE"
);
}
);
width = 592;
}
);
unicode = 00A6;
userData = {
com.typemytype.robofont.guideline.magnetic.Z0RZpP7MTi = 5;
com.typemytype.robofont.guideline.magnetic.jmguX8NWKI = 5;
};
},
{
glyphname = section;
layers = (
{
guideLines = (
{
position = "{0, 1658}";
},
{
position = "{0, 578}";
}
);
layerId = "3459A980-FF7D-466A-B966-D2EC6A15CC7A";
paths = (
{
closed = 1;
nodes = (
"870 133 OFFCURVE",
"1135 315 OFFCURVE",
"1135 478 QCURVE SMOOTH",
"1135 652 OFFCURVE",
"868 839 OFFCURVE",
"684 897 QCURVE SMOOTH",
"484 961 OFFCURVE",
"361 1049 OFFCURVE",
"361 1140 QCURVE SMOOTH",
"361 1239 OFFCURVE",
"483 1337 OFFCURVE",
"623 1337 QCURVE SMOOTH",
"744 1337 OFFCURVE",
"875 1200 OFFCURVE",
"874 1100 QCURVE",
"1039 1100 LINE",
"1040 1294 OFFCURVE",
"816 1492 OFFCURVE",
"623 1491 QCURVE SMOOTH",
"421 1490 OFFCURVE",
"196 1305 OFFCURVE",
"196 1129 QCURVE SMOOTH",
"196 949 OFFCURVE",
"413 794 OFFCURVE",
"606 734 QCURVE SMOOTH",
"787 672 OFFCURVE",
"954 556 OFFCURVE",
"954 463 QCURVE",
"954 376 OFFCURVE",
"801 252 OFFCURVE",
"691 252 QCURVE",
"691 133 LINE"
);
},
{
closed = 1;
nodes = (
"375 894 OFFCURVE",
"119 727 OFFCURVE",
"119 577 QCURVE SMOOTH",
"119 420 OFFCURVE",
"355 222 OFFCURVE",
"540 161 QCURVE SMOOTH",
"742 94 OFFCURVE",
"884 -35 OFFCURVE",
"884 -136 QCURVE SMOOTH",
"884 -244 OFFCURVE",
"716 -355 OFFCURVE",
"599 -355 QCURVE SMOOTH",
"493 -355 OFFCURVE",
"295 -230 OFFCURVE",
"295 -70 QCURVE",
"131 -72 LINE",
"131 -303 OFFCURVE",
"404 -509 OFFCURVE",
"599 -509 QCURVE SMOOTH",
"794 -509 OFFCURVE",
"1048 -298 OFFCURVE",
"1048 -113 QCURVE SMOOTH",
"1048 66 OFFCURVE",
"812 252 OFFCURVE",
"636 317 QCURVE SMOOTH",
"447 387 OFFCURVE",
"301 487 OFFCURVE",
"301 567 QCURVE SMOOTH",
"301 649 OFFCURVE",
"425 756 OFFCURVE",
"536 756 QCURVE",
"537 894 LINE"
);
}
);
width = 1256;
}
);
unicode = 00A7;
userData = {
com.typemytype.robofont.guideline.magnetic.9Hxjf2sdFw = 5;
com.typemytype.robofont.guideline.magnetic.QzZ5gIiCyn = 5;
};
},
{
glyphname = dieresis;
layers = (
{
anchors = (
{
name = mkmktop_acc;
position = "{423, 1577}";
}
);
layerId = "3459A980-FF7D-466A-B966-D2EC6A15CC7A";
paths = (
{
closed = 1;
nodes = (
"187 1268 OFFCURVE",
"243 1207 OFFCURVE",
"296 1207 QCURVE SMOOTH",
"350 1207 OFFCURVE",
"406 1268 OFFCURVE",
"406 1311 QCURVE SMOOTH",
"406 1356 OFFCURVE",
"350 1418 OFFCURVE",
"296 1418 QCURVE SMOOTH",
"243 1418 OFFCURVE",
"187 1356 OFFCURVE",
"187 1311 QCURVE SMOOTH"
);
},
{
closed = 1;
nodes = (
"618 1266 OFFCURVE",
"673 1205 OFFCURVE",
"727 1205 QCURVE SMOOTH",
"780 1205 OFFCURVE",
"837 1266 OFFCURVE",
"837 1309 QCURVE SMOOTH",
"837 1354 OFFCURVE",
"780 1416 OFFCURVE",
"727 1416 QCURVE SMOOTH",
"673 1416 OFFCURVE",
"618 1354 OFFCURVE",
"618 1309 QCURVE SMOOTH"
);
}
);
width = 1024;
}
);
unicode = 00A8;
},
{
glyphname = copyright;
layers = (
{
guideLines = (
{
position = "{0, 901}";
},
{
position = "{0, 555}";
}
);
layerId = "3459A980-FF7D-466A-B966-D2EC6A15CC7A";
paths = (
{
closed = 1;
nodes = (
"1030 457 OFFCURVE",
"937 362 OFFCURVE",
"838 362 QCURVE SMOOTH",
"731 362 OFFCURVE",
"612 499 OFFCURVE",
"612 621 QCURVE SMOOTH",
"612 747 LINE SMOOTH",
"612 868 OFFCURVE",
"722 1006 OFFCURVE",
"829 1006 QCURVE SMOOTH",
"928 1006 OFFCURVE",
"1031 917 OFFCURVE",
"1031 829 QCURVE",
"1213 829 LINE",
"1213 983 OFFCURVE",
"1017 1170 OFFCURVE",
"830 1170 QCURVE SMOOTH",
"643 1170 OFFCURVE",
"419 931 OFFCURVE",
"419 703 QCURVE SMOOTH",
"419 664 LINE SMOOTH",
"419 437 OFFCURVE",
"642 205 OFFCURVE",
"813 205 QCURVE SMOOTH",
"977 205 OFFCURVE",
"1212 375 OFFCURVE",
"1212 546 QCURVE",
"1030 546 LINE"
);
},
{
closed = 1;
nodes = (
"186 975 OFFCURVE",
"563 1367 OFFCURVE",
"828 1367 QCURVE SMOOTH",
"1092 1367 OFFCURVE",
"1469 975 OFFCURVE",
"1469 687 QCURVE SMOOTH",
"1469 400 OFFCURVE",
"1092 4 OFFCURVE",
"828 4 QCURVE SMOOTH",
"563 4 OFFCURVE",
"186 400 OFFCURVE",
"186 687 QCURVE SMOOTH"
);
},
{
closed = 1;
nodes = (
"38 337 OFFCURVE",
"501 -147 OFFCURVE",
"827 -147 QCURVE SMOOTH",
"1152 -147 OFFCURVE",
"1616 337 OFFCURVE",
"1616 687 QCURVE SMOOTH",
"1616 1039 OFFCURVE",
"1152 1519 OFFCURVE",
"827 1519 QCURVE SMOOTH",
"501 1519 OFFCURVE",
"38 1039 OFFCURVE",
"38 687 QCURVE SMOOTH"
);
}
);
width = 1654;
}
);
unicode = 00A9;
userData = {
com.typemytype.robofont.guideline.magnetic.0Pjz0qKr8z = 5;
com.typemytype.robofont.guideline.magnetic.sJo8BlDiJ7 = 5;
};
},
{
glyphname = ordfeminine;
layers = (
{
guideLines = (
{
position = "{0, 1681}";
},
{
position = "{0, 909}";
}
);
layerId = "3459A980-FF7D-466A-B966-D2EC6A15CC7A";
paths = (
{
closed = 1;
nodes = (
"606 821 OFFCURVE",
"626 736 OFFCURVE",
"649 706 QCURVE",
"784 706 LINE",
"770 749 OFFCURVE",
"758 838 OFFCURVE",
"758 887 QCURVE SMOOTH",
"758 1201 LINE SMOOTH",
"758 1338 OFFCURVE",
"599 1477 OFFCURVE",
"464 1477 QCURVE SMOOTH",
"337 1477 OFFCURVE",
"165 1356 OFFCURVE",
"165 1261 QCURVE SMOOTH",
"165 1234 LINE",
"320 1234 LINE",
"320 1247 LINE SMOOTH",
"320 1292 OFFCURVE",
"395 1346 OFFCURVE",
"466 1346 QCURVE SMOOTH",
"533 1346 OFFCURVE",
"606 1276 OFFCURVE",
"606 1202 QCURVE SMOOTH",
"606 862 LINE"
);
},
{
closed = 1;
nodes = (
"477 1149 LINE SMOOTH",
"308 1149 OFFCURVE",
"141 1028 OFFCURVE",
"141 918 QCURVE SMOOTH",
"141 816 OFFCURVE",
"268 692 OFFCURVE",
"387 692 QCURVE SMOOTH",
"488 692 OFFCURVE",
"619 788 OFFCURVE",
"641 837 QCURVE",
"623 949 LINE",
"623 911 OFFCURVE",
"490 822 OFFCURVE",
"426 822 QCURVE SMOOTH",
"362 822 OFFCURVE",
"298 879 OFFCURVE",
"298 922 QCURVE SMOOTH",
"298 969 OFFCURVE",
"388 1042 OFFCURVE",
"478 1042 QCURVE SMOOTH",
"635 1042 LINE",
"635 1149 LINE"
);
}
);
width = 916;
}
);
unicode = 00AA;
userData = {
com.typemytype.robofont.guideline.magnetic.3CJlALCfkl = 5;
com.typemytype.robofont.guideline.magnetic.Zdl6NZVQAy = 5;
};
},
{
glyphname = guillemotleft;
layers = (
{
guideLines = (
{
position = "{0, 901}";
},
{
position = "{0, 555}";
}
);
layerId = "3459A980-FF7D-466A-B966-D2EC6A15CC7A";
paths = (
{
closed = 1;
nodes = (
"403 153 LINE",
"565 153 LINE",
"307 551 LINE",
"565 949 LINE",
"403 949 LINE",
"108 581 LINE",
"108 522 LINE"
);
},
{
closed = 1;
nodes = (
"843 153 LINE",
"1005 153 LINE",
"747 551 LINE",
"1005 949 LINE",
"843 949 LINE",
"548 581 LINE",
"548 522 LINE"
);
}
);
width = 1092;
}
);
unicode = 00AB;
userData = {
com.typemytype.robofont.guideline.magnetic.MVJpdoVRVd = 5;
com.typemytype.robofont.guideline.magnetic.ZftBQarVKw = 5;
};
},
{
glyphname = logicalnot;
layers = (
{
layerId = "3459A980-FF7D-466A-B966-D2EC6A15CC7A";
paths = (
{
closed = 1;
nodes = (
"928 376 LINE",
"743 376 LINE",
"743 637 LINE",
"58 637 LINE",
"58 801 LINE",
"928 801 LINE"
);
}
);
width = 1024;
}
);
unicode = 00AC;
},
{
glyphname = registered;
layers = (
{
layerId = "3459A980-FF7D-466A-B966-D2EC6A15CC7A";
paths = (
{
closed = 1;
nodes = (
"38 1039 OFFCURVE",
"501 1519 OFFCURVE",
"827 1519 QCURVE SMOOTH",
"1152 1519 OFFCURVE",
"1616 1039 OFFCURVE",
"1616 687 QCURVE SMOOTH",
"1616 337 OFFCURVE",
"1152 -147 OFFCURVE",
"827 -147 QCURVE SMOOTH",
"501 -147 OFFCURVE",
"38 337 OFFCURVE",
"38 687 QCURVE SMOOTH"
);
},
{
closed = 1;
nodes = (
"186 400 OFFCURVE",
"563 4 OFFCURVE",
"828 4 QCURVE SMOOTH",
"1092 4 OFFCURVE",
"1469 400 OFFCURVE",
"1469 687 QCURVE SMOOTH",
"1469 975 OFFCURVE",
"1092 1367 OFFCURVE",
"828 1367 QCURVE SMOOTH",
"563 1367 OFFCURVE",
"186 975 OFFCURVE",
"186 687 QCURVE SMOOTH"
);
},
{
closed = 1;
nodes = (
"664 597 LINE",
"664 225 LINE",
"499 225 LINE",
"499 1158 LINE",
"821 1158 LINE SMOOTH",
"993 1158 OFFCURVE",
"1197 1018 OFFCURVE",
"1197 877 QCURVE SMOOTH",
"1197 764 OFFCURVE",
"1088 640 OFFCURVE",
"979 618 QCURVE",
"1010 595 OFFCURVE",
"1035 559 OFFCURVE",
"1052 530 QCURVE SMOOTH",
"1221 243 LINE",
"1221 225 LINE",
"1042 225 LINE",
"855 597 LINE"
);
},
{
closed = 1;
nodes = (
"664 1007 LINE",
"664 738 LINE",
"847 738 LINE SMOOTH",
"920 738 OFFCURVE",
"1016 795 OFFCURVE",
"1016 859 QCURVE SMOOTH",
"1016 940 OFFCURVE",
"940 1006 OFFCURVE",
"822 1007 QCURVE SMOOTH"
);
}
);
width = 1654;
}
);
unicode = 00AE;
},
{
glyphname = macron;
layers = (
{
anchors = (
{
name = mkmktop_acc;
position = "{473, 1577}";
}
);
layerId = "3459A980-FF7D-466A-B966-D2EC6A15CC7A";
paths = (
{
closed = 1;
nodes = (
"198 1395 LINE",
"198 1253 LINE",
"826 1253 LINE",
"826 1395 LINE"
);
}
);
width = 1024;
}
);
unicode = 00AF;
},
{
glyphname = degree;
layers = (
{
layerId = "3459A980-FF7D-466A-B966-D2EC6A15CC7A";
paths = (
{
closed = 1;
nodes = (
"131 1110.284 OFFCURVE",
"282.269 960 OFFCURVE",
"386 960 QCURVE SMOOTH",
"488.985 960 OFFCURVE",
"637 1110.284 OFFCURVE",
"637 1217 QCURVE SMOOTH",
"637 1322.97 OFFCURVE",
"488.985 1477 OFFCURVE",
"386 1477 QCURVE SMOOTH",
"282.269 1477 OFFCURVE",
"131 1322.97 OFFCURVE",
"131 1217 QCURVE"
);
},
{
closed = 1;
nodes = (
"255 1272.97 OFFCURVE",
"332.269 1349 OFFCURVE",
"386 1349 QCURVE SMOOTH",
"439.731 1349 OFFCURVE",
"513 1272.97 OFFCURVE",
"513 1217 QCURVE SMOOTH",
"513 1161.776 OFFCURVE",
"439.731 1088 OFFCURVE",
"386 1088 QCURVE SMOOTH",
"332.269 1088 OFFCURVE",
"255 1161.776 OFFCURVE",
"255 1217 QCURVE"
);
}
);
width = 765;
}
);
unicode = 00B0;
},
{
glyphname = plusminus;
layers = (
{
layerId = "3459A980-FF7D-466A-B966-D2EC6A15CC7A";
paths = (
{
closed = 1;
nodes = (
"967 611 LINE",
"967 775 LINE",
"57 775 LINE",
"57 611 LINE"
);
},
{
closed = 1;
nodes = (
"602 248 LINE",
"602 1160 LINE",
"422 1160 LINE",
"422 248 LINE"
);
},
{
closed = 1;
nodes = (
"967 1 LINE",
"967 165 LINE",
"57 165 LINE",
"57 1 LINE"
);
}
);
width = 1024;
}
);
unicode = 00B1;
},
{
glyphname = twosuperior;
layers = (
{
layerId = "3459A980-FF7D-466A-B966-D2EC6A15CC7A";
paths = (
{
closed = 1;
nodes = (
"683 697 LINE",
"683 845 LINE",
"323 845 LINE",
"468 971 LINE SMOOTH",
"556 1048 OFFCURVE",
"652 1171 OFFCURVE",
"652 1251 QCURVE SMOOTH",
"652 1359 OFFCURVE",
"500 1487 OFFCURVE",
"366 1487 QCURVE SMOOTH",
"224 1487 OFFCURVE",
"66 1329 OFFCURVE",
"67 1198 QCURVE",
"235 1198 LINE",
"234 1273 OFFCURVE",
"305 1347 OFFCURVE",
"370 1347 QCURVE SMOOTH",
"429 1347 OFFCURVE",
"481 1297 OFFCURVE",
"481 1249 QCURVE SMOOTH",
"481 1216 OFFCURVE",
"441 1127 OFFCURVE",
"373 1066 QCURVE SMOOTH",
"85 805 LINE",
"85 697 LINE"
);
}
);
width = 751;
}
);
unicode = 00B2;
},
{
glyphname = threesuperior;
layers = (
{
layerId = "3459A980-FF7D-466A-B966-D2EC6A15CC7A";
paths = (
{
closed = 1;
nodes = (
"63 798 OFFCURVE",
"248 686 OFFCURVE",
"361 686 QCURVE SMOOTH",
"491 686 OFFCURVE",
"667 807 OFFCURVE",
"667 917 QCURVE SMOOTH",
"667 983 OFFCURVE",
"601 1075 OFFCURVE",
"533 1098 QCURVE",
"593 1120 OFFCURVE",
"656 1212 OFFCURVE",
"656 1263 QCURVE SMOOTH",
"656 1372 OFFCURVE",
"490 1487 OFFCURVE",
"360 1487 QCURVE SMOOTH",
"241 1487 OFFCURVE",
"74 1357 OFFCURVE",
"74 1256 QCURVE",
"231 1256 LINE",
"231 1299 OFFCURVE",
"306 1349 OFFCURVE",
"363 1349 QCURVE SMOOTH",
"432 1349 OFFCURVE",
"486 1299 OFFCURVE",
"486 1255 QCURVE SMOOTH",
"486 1207 OFFCURVE",
"422 1151 OFFCURVE",
"350 1151 QCURVE SMOOTH",
"266 1151 LINE",
"266 1029 LINE",
"350 1029 LINE SMOOTH",
"423 1028 OFFCURVE",
"499 978 OFFCURVE",
"499 925 QCURVE SMOOTH",
"499 876 OFFCURVE",
"435 824 OFFCURVE",
"366 824 QCURVE SMOOTH",
"300 824 OFFCURVE",
"220 875 OFFCURVE",
"220 920 QCURVE",
"63 920 LINE"
);
}
);
width = 751;
}
);
unicode = 00B3;
},
{
glyphname = acute;
layers = (
{
anchors = (
{
name = mkmktop_acc;
position = "{291, 1197}";
}
);
layerId = "3459A980-FF7D-466A-B966-D2EC6A15CC7A";
paths = (
{
closed = 1;
nodes = (
"522 1198 LINE",
"790 1492 LINE",
"567 1492 LINE",
"373 1198 LINE"
);
}
);
width = 1024;
}
);
unicode = 00B4;
},
{
glyphname = paragraph;
layers = (
{
guideLines = (
{
position = "{0, 901}";
},
{
position = "{0, 555}";
}
);
layerId = "3459A980-FF7D-466A-B966-D2EC6A15CC7A";
paths = (
{
closed = 1;
nodes = (
"733 1456 LINE",
"460 1456 LINE SMOOTH",
"265 1456 OFFCURVE",
"56 1238 OFFCURVE",
"56 1076 QCURVE SMOOTH",
"56 912 OFFCURVE",
"265 696 OFFCURVE",
"460 696 QCURVE SMOOTH",
"547 696 LINE",
"547 -146 LINE",
"733 -146 LINE"
);
},
{
closed = 1;
nodes = (
"875 -146 LINE",
"1061 -146 LINE",
"1061 1459 LINE",
"875 1459 LINE"
);
}
);
width = 1261;
}
);
unicode = 00B6;
userData = {
com.typemytype.robofont.guideline.magnetic.27539Lsr1A = 5;
com.typemytype.robofont.guideline.magnetic.e34wUdCmXR = 5;
};
},
{
glyphname = periodcentered;
layers = (
{
layerId = "3459A980-FF7D-466A-B966-D2EC6A15CC7A";
paths = (
{
closed = 1;
nodes = (
"176 700 OFFCURVE",
"240 630 OFFCURVE",
"300 630 QCURVE SMOOTH",
"360 630 OFFCURVE",
"424 700 OFFCURVE",
"424 749 QCURVE SMOOTH",
"424 798 OFFCURVE",
"360 868 OFFCURVE",
"300 868 QCURVE SMOOTH",
"240 868 OFFCURVE",
"176 798 OFFCURVE",
"176 749 QCURVE SMOOTH"
);
}
);
width = 600;
}
);
unicode = 00B7;
},
{
glyphname = cedilla;
layers = (
{
layerId = "3459A980-FF7D-466A-B966-D2EC6A15CC7A";
paths = (
{
closed = 1;
nodes = (
"399 -135 LINE",
"483 -142 OFFCURVE",
"560 -180 OFFCURVE",
"560 -229 QCURVE SMOOTH",
"560 -282 OFFCURVE",
"463 -328 OFFCURVE",
"394 -328 QCURVE",
"401 -435 LINE",
"550 -435 OFFCURVE",
"704 -319 OFFCURVE",
"704 -226 QCURVE SMOOTH",
"704 -139 OFFCURVE",
"598 -63 OFFCURVE",
"541 -53 QCURVE",
"569 42 LINE",
"440 42 LINE"
);
}
);
width = 1024;
}
);
unicode = 00B8;
},
{
glyphname = onesuperior;
layers = (
{
layerId = "3459A980-FF7D-466A-B966-D2EC6A15CC7A";
paths = (
{
closed = 1;
nodes = (
"339 1288 LINE",
"339 697 LINE",
"501 697 LINE",
"501 1486 LINE",
"457 1486 LINE",
"123 1370 LINE",
"123 1211 LINE"
);
}
);
width = 751;
}
);
unicode = 00B9;
},
{
glyphname = ordmasculine;
layers = (
{
guideLines = (
{
position = "{0, 1975}";
}
);
layerId = "3459A980-FF7D-466A-B966-D2EC6A15CC7A";
paths = (
{
closed = 1;
nodes = (
"123 889.269 OFFCURVE",
"308.791 691 OFFCURVE",
"467 691 QCURVE SMOOTH",
"623.716 691 OFFCURVE",
"807 889.269 OFFCURVE",
"807 1043 QCURVE",
"807 1124 LINE",
"807 1277.731 OFFCURVE",
"623.209 1477 OFFCURVE",
"465 1477 QCURVE SMOOTH",
"308.284 1477 OFFCURVE",
"123 1277.731 OFFCURVE",
"123 1124 QCURVE",
"123 1043 LINE"
);
},
{
closed = 1;
nodes = (
"286 1212.806 OFFCURVE",
"374.702 1336 OFFCURVE",
"465 1336 QCURVE SMOOTH",
"555.299 1336 OFFCURVE",
"645 1212.806 OFFCURVE",
"645 1124 QCURVE",
"645 1043 LINE",
"645 951.955 OFFCURVE",
"555.806 830 OFFCURVE",
"467 830 QCURVE SMOOTH",
"375.209 830 OFFCURVE",
"286 951.955 OFFCURVE",
"286 1043 QCURVE",
"286 1124 LINE"
);
}
);
width = 932;
}
);
unicode = 00BA;
userData = {
com.typemytype.robofont.guideline.magnetic.Jnt0R9CyOf = 5;
};
},
{
glyphname = guillemotright;
layers = (
{
guideLines = (
{
position = "{0, 98}";
},
{
position = "{0, 443}";
}
);
layerId = "3459A980-FF7D-466A-B966-D2EC6A15CC7A";
paths = (
{
closed = 1;
nodes = (
"249 153 LINE",
"544 522 LINE",
"544 581 LINE",
"249 949 LINE",
"87 949 LINE",
"345 551 LINE",
"87 153 LINE"
);
},
{
closed = 1;
nodes = (
"689 153 LINE",
"984 522 LINE",
"984 581 LINE",
"689 949 LINE",
"527 949 LINE",
"785 551 LINE",
"527 153 LINE"
);
}
);
width = 1092;
}
);
unicode = 00BB;
userData = {
com.typemytype.robofont.guideline.magnetic.G9bQni2n1K = 5;
com.typemytype.robofont.guideline.magnetic.MTEldNnfdj = 5;
};
},
{
glyphname = questiondown;
layers = (
{
guideLines = (
{
position = "{0, -181}";
},
{
position = "{0, 921}";
}
);
layerId = "3459A980-FF7D-466A-B966-D2EC6A15CC7A";
paths = (
{
closed = 1;
nodes = (
"648 1100 OFFCURVE",
"584 1170 OFFCURVE",
"524 1170 QCURVE SMOOTH",
"464 1170 OFFCURVE",
"400 1100 OFFCURVE",
"400 1051 QCURVE SMOOTH",
"400 1002 OFFCURVE",
"464 932 OFFCURVE",
"524 932 QCURVE SMOOTH",
"584 932 OFFCURVE",
"648 1002 OFFCURVE",
"648 1051 QCURVE SMOOTH"
);
},
{
closed = 1;
nodes = (
"723 53 LINE",
"723 33 LINE SMOOTH",
"723 -62 OFFCURVE",
"608 -166 OFFCURVE",
"498 -166 QCURVE SMOOTH",
"388 -166 OFFCURVE",
"280 -52 OFFCURVE",
"280 48 QCURVE SMOOTH",
"280 148 OFFCURVE",
"384 284 OFFCURVE",
"466 365 QCURVE SMOOTH",
"562 459 OFFCURVE",
"626 603 OFFCURVE",
"626 728 QCURVE SMOOTH",
"626 738 LINE",
"440 738 LINE",
"440 728 LINE SMOOTH",
"440 658 OFFCURVE",
"399 531 OFFCURVE",
"314 454 QCURVE SMOOTH",
"242 390 OFFCURVE",
"94 182 OFFCURVE",
"94 48 QCURVE SMOOTH",
"94 -122 OFFCURVE",
"308 -328 OFFCURVE",
"498 -328 QCURVE SMOOTH",
"688 -328 OFFCURVE",
"908 -132 OFFCURVE",
"908 33 QCURVE SMOOTH",
"908 53 LINE"
);
}
);
width = 968;
}
);
unicode = 00BF;
userData = {
com.typemytype.robofont.guideline.magnetic.5ZPZZL8Rim = 5;
com.typemytype.robofont.guideline.magnetic.apukwP5ffL = 5;
};
},
{
glyphname = AE;
layers = (
{
anchors = (
{
name = parent_top;
position = "{939, 1612}";
},
{
name = top;
position = "{939, 1612}";
},
{
name = top0315;
position = "{1914, 1612}";
},
{
name = top_dd;
position = "{1914, 1600}";
}
);
layerId = "3459A980-FF7D-466A-B966-D2EC6A15CC7A";
paths = (
{
closed = 1;
nodes = (
"1035 353 LINE",
"1035 528 LINE",
"402 528 LINE",
"302 353 LINE"
);
},
{
closed = 1;
nodes = (
"212 0 LINE",
"930 1238 LINE",
"930 0 LINE",
"1846 0 LINE",
"1846 158 LINE",
"1122 158 LINE",
"1122 672 LINE",
"1744 672 LINE",
"1744 830 LINE",
"1122 830 LINE",
"1122 1298 LINE",
"1836 1298 LINE",
"1836 1456 LINE",
"866 1456 LINE",
"-15 0 LINE"
);
}
);
width = 1914;
}
);
unicode = 00C6;
},
{
glyphname = multiply;
layers = (
{
layerId = "3459A980-FF7D-466A-B966-D2EC6A15CC7A";
paths = (
{
closed = 1;
nodes = (
"928 991 LINE",
"820 1104 LINE",
"82 349 LINE",
"190 237 LINE"
);
},
{
closed = 1;
nodes = (
"931 360 LINE",
"204 1104 LINE",
"85 980 LINE",
"812 237 LINE"
);
}
);
width = 1024;
}
);
unicode = 00D7;
},
{
glyphname = OE;
layers = (
{
anchors = (
{
name = bottom;
position = "{963, 0}";
},
{
name = bottom_dd;
position = "{1963, -407}";
},
{
name = parent_top;
position = "{963, 1603}";
},
{
name = top;
position = "{963, 1603}";
},
{
name = top0315;
position = "{1963, 1603}";
},
{
name = top_dd;
position = "{1963, 1600}";
}
);
layerId = "3459A980-FF7D-466A-B966-D2EC6A15CC7A";
paths = (
{
closed = 1;
nodes = (
"746 1477 OFFCURVE",
"897 1464 OFFCURVE",
"964 1456 QCURVE",
"1801 1456 LINE",
"1801 1298 LINE",
"1079 1298 LINE",
"1079 830 LINE",
"1709 830 LINE",
"1709 673 LINE",
"1079 673 LINE",
"1079 157 LINE",
"1811 157 LINE",
"1811 0 LINE",
"964 0 LINE",
"897 -7 OFFCURVE",
"748 -21 OFFCURVE",
"672 -21 QCURVE SMOOTH",
"458 -21 OFFCURVE",
"115 340 OFFCURVE",
"115 682 QCURVE SMOOTH",
"115 772 LINE SMOOTH",
"115 1105 OFFCURVE",
"455 1477 OFFCURVE",
"713 1477 QCURVE SMOOTH"
);
},
{
closed = 1;
nodes = (
"310 418 OFFCURVE",
"543 128 OFFCURVE",
"715 128 QCURVE SMOOTH",
"768 128 OFFCURVE",
"848 137 OFFCURVE",
"886 143 QCURVE",
"886 1310 LINE",
"834 1317 OFFCURVE",
"739 1325 OFFCURVE",
"717 1325 QCURVE SMOOTH",
"540 1325 OFFCURVE",
"310 1030 OFFCURVE",
"310 774 QCURVE SMOOTH",
"310 682 LINE SMOOTH"
);
}
);
width = 1879;
}
);
unicode = 0152;
},
{
glyphname = Thorn;
layers = (
{
guideLines = (
{
position = "{0, 901}";
},
{
position = "{0, 555}";
}
);
layerId = "3459A980-FF7D-466A-B966-D2EC6A15CC7A";
paths = (
{
closed = 1;
nodes = (
"355 1456 LINE",
"355 1163 LINE",
"633 1163 LINE SMOOTH",
"868 1163 OFFCURVE",
"1120 935 OFFCURVE",
"1120 738 QCURVE SMOOTH",
"1120 541 OFFCURVE",
"868 314 OFFCURVE",
"633 314 QCURVE SMOOTH",
"355 314 LINE",
"355 0 LINE",
"170 0 LINE",
"170 1456 LINE"
);
},
{
closed = 1;
nodes = (
"355 1012 LINE",
"355 465 LINE",
"633 465 LINE SMOOTH",
"793 465 OFFCURVE",
"935 604 OFFCURVE",
"935 736 QCURVE SMOOTH",
"935 868 OFFCURVE",
"793 1012 OFFCURVE",
"633 1012 QCURVE SMOOTH"
);
}
);
width = 1170;
}
);
unicode = 00DE;
userData = {
com.typemytype.robofont.guideline.magnetic.T8KKW8oxop = 5;
com.typemytype.robofont.guideline.magnetic.i9jYwjBDP4 = 5;
};
},
{
glyphname = germandbls;
layers = (
{
layerId = "3459A980-FF7D-466A-B966-D2EC6A15CC7A";
paths = (
{
closed = 1;
nodes = (
"332 1241 OFFCURVE",
"448 1383 OFFCURVE",
"551 1383 QCURVE SMOOTH",
"633 1383 OFFCURVE",
"742 1293 OFFCURVE",
"742 1204 QCURVE SMOOTH",
"742 1149 OFFCURVE",
"707 1066 OFFCURVE",
"678 1026 QCURVE SMOOTH",
"646 982 OFFCURVE",
"563 871 OFFCURVE",
"563 797 QCURVE SMOOTH",
"563 706 OFFCURVE",
"735 569 OFFCURVE",
"807 512 QCURVE SMOOTH",
"864 466 OFFCURVE",
"963 371 OFFCURVE",
"963 302 QCURVE SMOOTH",
"963 218 OFFCURVE",
"856 131 OFFCURVE",
"755 131 QCURVE SMOOTH",
"660 131 OFFCURVE",
"555 211 OFFCURVE",
"555 295 QCURVE SMOOTH",
"555 304 LINE",
"392 304 LINE",
"392 278 LINE SMOOTH",
"392 129 OFFCURVE",
"589 -20 OFFCURVE",
"753 -20 QCURVE SMOOTH",
"920 -20 OFFCURVE",
"1138 157 OFFCURVE",
"1138 282 QCURVE SMOOTH",
"1138 411 OFFCURVE",
"1031 560 OFFCURVE",
"953 619 QCURVE SMOOTH",
"872 681 OFFCURVE",
"739 782 OFFCURVE",
"739 830 QCURVE SMOOTH",
"739 859 OFFCURVE",
"798 935 OFFCURVE",
"830 973 QCURVE SMOOTH",
"867 1016 OFFCURVE",
"917 1127 OFFCURVE",
"917 1215 QCURVE SMOOTH",
"917 1361 OFFCURVE",
"719 1534 OFFCURVE",
"555 1534 QCURVE SMOOTH",
"356 1534 OFFCURVE",
"148 1295 OFFCURVE",
"148 1092 QCURVE SMOOTH",
"148 0 LINE",
"332 0 LINE",
"332 1092 LINE {name = hr00;}"
);
}
);
width = 1186;
}
);
unicode = 00DF;
},
{
glyphname = ae;
layers = (
{
anchors = (
{
name = parent_top;
position = "{870, 1291}";
},
{
name = top;
position = "{1246, 1053}";
},
{
name = top0315;
position = "{1741, 1291}";
},
{
name = top_dd;
position = "{1741, 1600}";
}
);
layerId = "3459A980-FF7D-466A-B966-D2EC6A15CC7A";
paths = (
{
closed = 1;
nodes = (
"276 230 OFFCURVE",
"380 128 OFFCURVE",
"490 128 QCURVE SMOOTH",
"600 128 OFFCURVE",
"778 280 OFFCURVE",
"778 365 QCURVE",
"778 516 LINE",
"560 516 LINE SMOOTH",
"420 516 OFFCURVE",
"276 410 OFFCURVE",
"276 320 QCURVE SMOOTH"
);
},
{
closed = 1;
nodes = (
"90 470 OFFCURVE",
"344 648 OFFCURVE",
"540 648 QCURVE SMOOTH",
"778 648 LINE",
"778 720 LINE SMOOTH",
"778 815 OFFCURVE",
"680 934 OFFCURVE",
"560 934 QCURVE SMOOTH",
"440 934 OFFCURVE",
"337 835 OFFCURVE",
"337 770 QCURVE SMOOTH",
"337 765 LINE",
"152 765 LINE",
"152 770 LINE SMOOTH",
"152 895 OFFCURVE",
"375 1082 OFFCURVE",
"565 1082 QCURVE SMOOTH",
"755 1082 OFFCURVE",
"901 949 OFFCURVE",
"911 872 QCURVE",
"931 950 OFFCURVE",
"1099 1082 OFFCURVE",
"1245 1082 QCURVE SMOOTH",
"1460 1082 OFFCURVE",
"1692 800 OFFCURVE",
"1692 560 QCURVE SMOOTH",
"1692 484 LINE",
"883 484 LINE",
"883 632 LINE",
"1504 632 LINE",
"1505 656 LINE",
"1504 770 OFFCURVE",
"1375 930 OFFCURVE",
"1242 930 QCURVE SMOOTH",
"1105 930 OFFCURVE",
"959 705 OFFCURVE",
"959 542 QCURVE SMOOTH",
"959 510 LINE SMOOTH",
"959 347 OFFCURVE",
"1113 122 OFFCURVE",
"1275 122 QCURVE SMOOTH",
"1375 122 OFFCURVE",
"1519 210 OFFCURVE",
"1564 270 QCURVE",
"1684 175 LINE",
"1634 100 OFFCURVE",
"1425 -30 OFFCURVE",
"1275 -30 QCURVE SMOOTH",
"1129 -30 OFFCURVE",
"894 105 OFFCURVE",
"844 238 QCURVE",
"804 124 OFFCURVE",
"612 -20 OFFCURVE",
"450 -20 QCURVE SMOOTH",
"300 -20 OFFCURVE",
"90 150 OFFCURVE",
"90 300 QCURVE SMOOTH"
);
}
);
width = 1748;
}
);
unicode = 00E6;
},
{
glyphname = eth;
layers = (
{
layerId = "3459A980-FF7D-466A-B966-D2EC6A15CC7A";
paths = (
{
closed = 1;
nodes = (
"509.478 1354.582 OFFCURVE",
"884 984.254 OFFCURVE",
"884 635 QCURVE SMOOTH",
"884 535 LINE SMOOTH",
"884 363.358 OFFCURVE",
"734.358 132 OFFCURVE",
"606 132 QCURVE SMOOTH",
"464.955 132 OFFCURVE",
"312 344.866 OFFCURVE",
"312 468 QCURVE",
"312 632.179 OFFCURVE",
"472.478 826 OFFCURVE",
"618 826 QCURVE",
"761.284 826 OFFCURVE",
"905 680.418 OFFCURVE",
"905 614 QCURVE",
"974 613 LINE",
"974 748.075 OFFCURVE",
"742.657 978 OFFCURVE",
"574 978 QCURVE",
"381.463 978 OFFCURVE",
"126 697.851 OFFCURVE",
"126 468 QCURVE",
"126 265.015 OFFCURVE",
"392.298 -20 OFFCURVE",
"602 -20 QCURVE SMOOTH",
"804.239 -20 OFFCURVE",
"1070 289.478 OFFCURVE",
"1070 535 QCURVE",
"1070 633 LINE",
"1070 1008.373 OFFCURVE",
"648.567 1505.627 OFFCURVE",
"312 1581 QCURVE",
"255 1421 LINE"
);
},
{
closed = 1;
nodes = (
"915 1516 LINE",
"378 1151 LINE",
"451 1051 LINE",
"988 1417 LINE"
);
}
);
width = 1201;
}
);
unicode = 00F0;
},
{
glyphname = divide;
layers = (
{
layerId = "3459A980-FF7D-466A-B966-D2EC6A15CC7A";
paths = (
{
closed = 1;
nodes = (
"386 1014 OFFCURVE",
"449 945 OFFCURVE",
"511 945 QCURVE SMOOTH",
"572 945 OFFCURVE",
"637 1014 OFFCURVE",
"637 1065 QCURVE SMOOTH",
"637 1118 OFFCURVE",
"572 1188 OFFCURVE",
"511 1188 QCURVE SMOOTH",
"449 1188 OFFCURVE",
"386 1118 OFFCURVE",
"386 1065 QCURVE SMOOTH"
);
},
{
closed = 1;
nodes = (
"386 237 OFFCURVE",
"449 167 OFFCURVE",
"511 167 QCURVE SMOOTH",
"572 167 OFFCURVE",
"637 237 OFFCURVE",
"637 288 QCURVE SMOOTH",
"637 340 OFFCURVE",
"572 411 OFFCURVE",
"511 411 QCURVE SMOOTH",
"449 411 OFFCURVE",
"386 340 OFFCURVE",
"386 288 QCURVE SMOOTH"
);
},
{
closed = 1;
nodes = (
"967 588 LINE",
"967 768 LINE",
"57 768 LINE",
"57 588 LINE"
);
}
);
width = 1024;
}
);
unicode = 00F7;
},
{
glyphname = oe;
layers = (
{
anchors = (
{
name = bottom;
position = "{945, -1}";
},
{
name = bottom_dd;
position = "{1860, -407}";
},
{
name = parent_top;
position = "{945, 1290}";
},
{
name = top;
position = "{945, 1290}";
},
{
name = top0315;
position = "{1860, 1290}";
},
{
name = top_dd;
position = "{1860, 1600}";
}
);
layerId = "3459A980-FF7D-466A-B966-D2EC6A15CC7A";
paths = (
{
closed = 1;
nodes = (
"275 705 OFFCURVE",
"429 930 OFFCURVE",
"581 930 QCURVE SMOOTH",
"733 930 OFFCURVE",
"887 706 OFFCURVE",
"887 542 QCURVE SMOOTH",
"887 510 LINE SMOOTH",
"887 346 OFFCURVE",
"733 122 OFFCURVE",
"581 122 QCURVE SMOOTH",
"429 122 OFFCURVE",
"275 347 OFFCURVE",
"275 510 QCURVE SMOOTH",
"275 542 LINE SMOOTH"
);
},
{
closed = 1;
nodes = (
"957 921 OFFCURVE",
"755 1081 OFFCURVE",
"569 1081 QCURVE SMOOTH",
"354 1081 OFFCURVE",
"85 780 OFFCURVE",
"85 542 QCURVE SMOOTH",
"85 510 LINE SMOOTH",
"85 272 OFFCURVE",
"355 -30 OFFCURVE",
"551 -30 QCURVE SMOOTH",
"746 -30 OFFCURVE",
"949 111 OFFCURVE",
"979 185 QCURVE",
"1009 110 OFFCURVE",
"1216 -30 OFFCURVE",
"1413 -30 QCURVE SMOOTH",
"1542 -30 OFFCURVE",
"1751 100 OFFCURVE",
"1801 175 QCURVE",
"1681 270 LINE",
"1636 210 OFFCURVE",
"1482 122 OFFCURVE",
"1382 122 QCURVE SMOOTH",
"1220 122 OFFCURVE",
"1076 346 OFFCURVE",
"1076 510 QCURVE SMOOTH",
"1076 542 LINE SMOOTH",
"1076 706 OFFCURVE",
"1222 930 OFFCURVE",
"1370 930 QCURVE SMOOTH",
"1492 930 OFFCURVE",
"1621 770 OFFCURVE",
"1622 656 QCURVE",
"1621 632 LINE",
"1000 632 LINE",
"1000 484 LINE",
"1809 484 LINE",
"1809 560 LINE SMOOTH",
"1809 800 OFFCURVE",
"1577 1082 OFFCURVE",
"1390 1082 QCURVE SMOOTH",
"1212 1082 OFFCURVE",
"997 926 OFFCURVE",
"977 866 QCURVE"
);
}
);
width = 1861;
}
);
unicode = 0153;
},
{
glyphname = thorn;
layers = (
{
layerId = "3459A980-FF7D-466A-B966-D2EC6A15CC7A";
paths = (
{
closed = 1;
nodes = (
"149 1536 LINE",
"149 -416 LINE",
"335 -416 LINE",
"335 1536 LINE"
);
},
{
closed = 1;
nodes = (
"1064 796.269 OFFCURVE",
"844.731 1102 OFFCURVE",
"641 1102 QCURVE SMOOTH",
"438.015 1102 OFFCURVE",
"219.881 824.06 OFFCURVE",
"196 586 QCURVE",
"196 474 LINE",
"219.134 247.134 OFFCURVE",
"438.03 -20 OFFCURVE",
"644 -20 QCURVE SMOOTH",
"844 -20 OFFCURVE",
"1064 293.179 OFFCURVE",
"1064 529 QCURVE SMOOTH",
"1064 550 LINE"
);
},
{
closed = 1;
nodes = (
"878 368.552 OFFCURVE",
"738.254 132 OFFCURVE",
"589 132 QCURVE SMOOTH",
"452.433 132 OFFCURVE",
"315.851 294.776 OFFCURVE",
"286 400 QCURVE",
"286 659 LINE",
"308.388 768.701 OFFCURVE",
"448.194 946 OFFCURVE",
"587 946 QCURVE SMOOTH",
"737.746 946 OFFCURVE",
"878 710.448 OFFCURVE",
"878 550 QCURVE SMOOTH",
"878 529 LINE"
);
}
);
width = 1180;
}
);
unicode = 00FE;
},
{
glyphname = circumflex;
layers = (
{
anchors = (
{
name = mkmktop_acc;
position = "{471, 1637}";
}
);
layerId = "3459A980-FF7D-466A-B966-D2EC6A15CC7A";
paths = (
{
closed = 1;
nodes = (
"456 1516 LINE",
"211 1214 LINE",
"211 1203 LINE",
"363 1203 LINE",
"512 1362 LINE",
"662 1203 LINE",
"816 1203 LINE",
"816 1213 LINE",
"568 1516 LINE"
);
}
);
width = 1024;
}
);
unicode = 02C6;
},
{
glyphname = caron;
layers = (
{
anchors = (
{
name = mkmktop_acc;
position = "{450, 1627}";
}
);
layerId = "3459A980-FF7D-466A-B966-D2EC6A15CC7A";
paths = (
{
closed = 1;
nodes = (
"571 1183 LINE",
"816 1485 LINE",
"816 1496 LINE",
"664 1496 LINE",
"515 1337 LINE",
"365 1496 LINE",
"211 1496 LINE",
"211 1486 LINE",
"459 1183 LINE"
);
}
);
width = 1024;
}
);
unicode = 02C7;
},
{
glyphname = breve;
layers = (
{
anchors = (
{
name = mkmktop_acc;
position = "{429, 1606}";
}
);
layerId = "3459A980-FF7D-466A-B966-D2EC6A15CC7A";
paths = (
{
closed = 1;
nodes = (
"660 1406 OFFCURVE",
"591 1326 OFFCURVE",
"512 1326 QCURVE SMOOTH",
"430 1326 OFFCURVE",
"362 1406 OFFCURVE",
"362 1465 QCURVE",
"212 1465 LINE",
"212 1348 OFFCURVE",
"374 1198 OFFCURVE",
"512 1198 QCURVE SMOOTH",
"649 1198 OFFCURVE",
"810 1348 OFFCURVE",
"810 1465 QCURVE",
"660 1465 LINE"
);
}
);
width = 1022;
}
);
unicode = 02D8;
},
{
glyphname = dotaccent;
layers = (
{
anchors = (
{
name = mkmktop_acc;
position = "{250, 1572}";
}
);
layerId = "3459A980-FF7D-466A-B966-D2EC6A15CC7A";
paths = (
{
closed = 1;
nodes = (
"402 1297 OFFCURVE",
"458 1236 OFFCURVE",
"512 1236 QCURVE SMOOTH",
"565 1236 OFFCURVE",
"622 1297 OFFCURVE",
"622 1341 QCURVE SMOOTH",
"622 1385 OFFCURVE",
"565 1447 OFFCURVE",
"512 1447 QCURVE SMOOTH",
"458 1447 OFFCURVE",
"402 1385 OFFCURVE",
"402 1341 QCURVE SMOOTH"
);
}
);
width = 1024;
}
);
unicode = 02D9;
},
{
glyphname = ring;
layers = (
{
anchors = (
{
name = mkmktop_acc;
position = "{336, 1693}";
}
);
layerId = "3459A980-FF7D-466A-B966-D2EC6A15CC7A";
paths = (
{
closed = 1;
nodes = (
"286 1298 OFFCURVE",
"416 1175 OFFCURVE",
"512 1175 QCURVE SMOOTH",
"606 1175 OFFCURVE",
"738 1298 OFFCURVE",
"738 1389 QCURVE SMOOTH",
"738 1479 OFFCURVE",
"606 1607 OFFCURVE",
"512 1607 QCURVE SMOOTH",
"416 1607 OFFCURVE",
"286 1479 OFFCURVE",
"286 1389 QCURVE"
);
},
{
closed = 1;
nodes = (
"396 1435 OFFCURVE",
"461 1507 OFFCURVE",
"512 1507 QCURVE SMOOTH",
"563 1507 OFFCURVE",
"628 1435 OFFCURVE",
"628 1389 QCURVE SMOOTH",
"628 1343 OFFCURVE",
"563 1274 OFFCURVE",
"512 1274 QCURVE SMOOTH",
"461 1274 OFFCURVE",
"396 1345 OFFCURVE",
"396 1389 QCURVE"
);
}
);
width = 1024;
}
);
unicode = 02DA;
},
{
glyphname = ogonek;
layers = (
{
layerId = "3459A980-FF7D-466A-B966-D2EC6A15CC7A";
paths = (
{
closed = 1;
nodes = (
"397 -6 OFFCURVE",
"275 -163 OFFCURVE",
"275 -243 QCURVE SMOOTH",
"275 -336 OFFCURVE",
"386 -434 OFFCURVE",
"467 -434 QCURVE SMOOTH",
"526 -434 OFFCURVE",
"603 -405 OFFCURVE",
"628 -390 QCURVE",
"614 -268 LINE",
"599 -276 OFFCURVE",
"547 -295 OFFCURVE",
"514 -295 QCURVE SMOOTH",
"471 -295 OFFCURVE",
"436 -255 OFFCURVE",
"436 -222 QCURVE SMOOTH",
"436 -157 OFFCURVE",
"543 -48 OFFCURVE",
"607 0 QCURVE",
"533 57 LINE"
);
}
);
width = 1024;
}
);
unicode = 02DB;
},
{
glyphname = tilde;
layers = (
{
anchors = (
{
name = mkmktop_acc;
position = "{475, 1598}";
}
);
layerId = "3459A980-FF7D-466A-B966-D2EC6A15CC7A";
paths = (
{
closed = 1;
nodes = (
"194 1354 OFFCURVE",
"327 1457 OFFCURVE",
"394 1457 QCURVE SMOOTH",
"435 1457 OFFCURVE",
"507 1429 OFFCURVE",
"544 1404 QCURVE SMOOTH",
"570 1387 OFFCURVE",
"656 1336 OFFCURVE",
"697 1336 QCURVE SMOOTH",
"737 1336 OFFCURVE",
"812 1388 OFFCURVE",
"835 1424 QCURVE",
"907 1338 LINE",
"869 1267 OFFCURVE",
"740 1190 OFFCURVE",
"683 1190 QCURVE SMOOTH",
"634 1190 OFFCURVE",
"539 1235 OFFCURVE",
"511 1255 QCURVE SMOOTH",
"480 1278 OFFCURVE",
"407 1312 OFFCURVE",
"378 1312 QCURVE SMOOTH",
"331 1312 OFFCURVE",
"245 1240 OFFCURVE",
"227 1213 QCURVE",
"161 1291 LINE"
);
}
);
width = 1024;
}
);
unicode = 02DC;
},
{
glyphname = hungarumlaut;
layers = (
{
anchors = (
{
name = mkmktop_acc;
position = "{344, 1614}";
}
);
guideLines = (
{
position = "{0, 901}";
},
{
position = "{0, 555}";
}
);
layerId = "3459A980-FF7D-466A-B966-D2EC6A15CC7A";
paths = (
{
closed = 1;
nodes = (
"704 1199 LINE",
"972 1502 LINE",
"765 1502 LINE",
"535 1199 LINE"
);
},
{
closed = 1;
nodes = (
"405 1199 LINE",
"623 1502 LINE",
"425 1502 LINE",
"255 1199 LINE"
);
}
);
width = 1024;
}
);
unicode = 02DD;
userData = {
com.typemytype.robofont.guideline.magnetic.1emCWSQy5G = 5;
com.typemytype.robofont.guideline.magnetic.s1MFYmxmed = 5;
};
},
{
glyphname = quoteleft;
layers = (
{
layerId = "3459A980-FF7D-466A-B966-D2EC6A15CC7A";
paths = (
{
closed = 1;
nodes = (
"275 1073 LINE",
"275 1197 LINE SMOOTH",
"275 1278 OFFCURVE",
"325 1417 OFFCURVE",
"371 1483 QCURVE",
"266 1556 LINE",
"183 1488 OFFCURVE",
"92 1284 OFFCURVE",
"92 1194 QCURVE SMOOTH",
"92 1073 LINE"
);
}
);
width = 410;
}
);
unicode = 2018;
},
{
glyphname = quoteright;
layers = (
{
layerId = "3459A980-FF7D-466A-B966-D2EC6A15CC7A";
paths = (
{
closed = 1;
nodes = (
"134 1458 LINE",
"134 1327 LINE SMOOTH",
"134 1246 OFFCURVE",
"86 1107 OFFCURVE",
"39 1041 QCURVE",
"145 968 LINE",
"227 1036 OFFCURVE",
"318 1240 OFFCURVE",
"318 1330 QCURVE SMOOTH",
"318 1458 LINE"
);
}
);
width = 410;
}
);
unicode = 2019;
},
{
glyphname = minus;
layers = (
{
layerId = "3459A980-FF7D-466A-B966-D2EC6A15CC7A";
paths = (
{
closed = 1;
nodes = (
"967 588 LINE",
"967 768 LINE",
"57 768 LINE",
"57 588 LINE"
);
}
);
width = 1024;
}
);
unicode = 2212;
},
{
glyphname = Eng;
layers = (
{
anchors = (
{
name = bottom;
position = "{720, 10}";
},
{
name = parent_top;
position = "{726, 1601}";
},
{
name = top;
position = "{726, 1601}";
},
{
name = top0315;
position = "{1419, 1601}";
}
);
layerId = "3459A980-FF7D-466A-B966-D2EC6A15CC7A";
paths = (
{
closed = 1;
nodes = (
"1090 -91 OFFCURVE",
"1026 -195 OFFCURVE",
"961 -195 QCURVE SMOOTH",
"946 -195 OFFCURVE",
"879 -188 OFFCURVE",
"863 -182 QCURVE",
"849 -336 LINE",
"879 -346 OFFCURVE",
"932 -353 OFFCURVE",
"963 -353 QCURVE SMOOTH",
"1115 -353 OFFCURVE",
"1290 -170 OFFCURVE",
"1290 0 QCURVE",
"1290 1456 LINE",
"1102 1456 LINE",
"1102 456 LINE SMOOTH",
"1102 426 OFFCURVE",
"1106 351 OFFCURVE",
"1110 321 QCURVE",
"1100 321 LINE",
"1086 346 OFFCURVE",
"1052 406 OFFCURVE",
"1032 436 QCURVE SMOOTH",
"370 1456 LINE",
"170 1456 LINE",
"170 0 LINE",
"358 0 LINE",
"358 1000 LINE SMOOTH",
"358 1030 OFFCURVE",
"354 1105 OFFCURVE",
"350 1135 QCURVE",
"360 1135 LINE",
"374 1110 OFFCURVE",
"408 1050 OFFCURVE",
"428 1020 QCURVE SMOOTH",
"1090 0 LINE"
);
}
);
width = 1460;
}
);
unicode = 014A;
},
{
glyphname = Schwa;
layers = (
{
layerId = "3459A980-FF7D-466A-B966-D2EC6A15CC7A";
paths = (
{
closed = 1;
nodes = (
"162 1356 OFFCURVE",
"452 1519 OFFCURVE",
"669 1519 QCURVE SMOOTH",
"1002 1519 OFFCURVE",
"1366 1094 OFFCURVE",
"1366 789 QCURVE SMOOTH",
"1366 445 OFFCURVE",
"982 -30 OFFCURVE",
"692 -30 QCURVE SMOOTH",
"416 -30 OFFCURVE",
"102 281 OFFCURVE",
"102 578 QCURVE SMOOTH",
"102 686 LINE",
"1228 686 LINE",
"1228 554 LINE",
"665 562 LINE",
"298 556 LINE",
"298 481 LINE SMOOTH",
"298 315 OFFCURVE",
"503 97 OFFCURVE",
"702 97 QCURVE SMOOTH",
"912 97 OFFCURVE",
"1177 462 OFFCURVE",
"1175 749 QCURVE SMOOTH",
"1173 1047 OFFCURVE",
"860 1375 OFFCURVE",
"651 1375 QCURVE SMOOTH",
"469 1375 OFFCURVE",
"218 1234 OFFCURVE",
"157 1126 QCURVE",
"64 1199 LINE"
);
}
);
width = 1446;
}
);
unicode = 018F;
},
{
glyphname = Germandbls;
layers = (
{
layerId = "3459A980-FF7D-466A-B966-D2EC6A15CC7A";
paths = (
{
closed = 1;
nodes = (
"178 355 LINE SMOOTH",
"178 264 OFFCURVE",
"110 167 OFFCURVE",
"50 167 QCURVE SMOOTH",
"41 167 OFFCURVE",
"22 169 OFFCURVE",
"13 172 QCURVE",
"15 -12 LINE",
"28 -14 OFFCURVE",
"55 -16 OFFCURVE",
"68 -16 QCURVE SMOOTH",
"203 -16 OFFCURVE",
"370 184 OFFCURVE",
"370 355 QCURVE SMOOTH",
"370 1036 LINE SMOOTH",
"370 1198 OFFCURVE",
"496 1348 OFFCURVE",
"617 1348 QCURVE SMOOTH",
"722 1348 OFFCURVE",
"824 1284 OFFCURVE",
"824 1229 QCURVE SMOOTH",
"824 1172 OFFCURVE",
"762 1106 OFFCURVE",
"692 1056 QCURVE SMOOTH",
"598 989 OFFCURVE",
"524 904 OFFCURVE",
"524 831 QCURVE SMOOTH",
"524 760 OFFCURVE",
"641 668 OFFCURVE",
"869 584 QCURVE SMOOTH",
"1040 521 OFFCURVE",
"1172 427 OFFCURVE",
"1172 330 QCURVE SMOOTH",
"1172 241 OFFCURVE",
"1034 135 OFFCURVE",
"929 135 QCURVE SMOOTH",
"793 135 OFFCURVE",
"668 238 OFFCURVE",
"668 338 QCURVE SMOOTH",
"668 350 LINE",
"465 350 LINE",
"465 338 LINE SMOOTH",
"465 152 OFFCURVE",
"700 -30 OFFCURVE",
"940 -30 QCURVE SMOOTH",
"1126 -30 OFFCURVE",
"1369 190 OFFCURVE",
"1369 336 QCURVE SMOOTH",
"1369 486 OFFCURVE",
"1199 666 OFFCURVE",
"1006 736 QCURVE SMOOTH",
"816 805 OFFCURVE",
"750 841 OFFCURVE",
"750 861 QCURVE SMOOTH",
"750 881 OFFCURVE",
"805 929 OFFCURVE",
"856 966 QCURVE SMOOTH",
"916 1010 OFFCURVE",
"1019 1142 OFFCURVE",
"1019 1244 QCURVE SMOOTH",
"1019 1347 OFFCURVE",
"837 1510 OFFCURVE",
"611 1510 QCURVE SMOOTH",
"399 1510 OFFCURVE",
"178 1267 OFFCURVE",
"178 1066 QCURVE SMOOTH"
);
}
);
width = 1449;
}
);
unicode = 1E9E;
},
{
glyphname = micro;
layers = (
{
anchors = (
{
name = top;
position = "{564, 1052}";
}
);
layerId = "3459A980-FF7D-466A-B966-D2EC6A15CC7A";
paths = (
{
closed = 1;
nodes = (
"428 1052 LINE",
"296 371 LINE SMOOTH",
"271 245 OFFCURVE",
"363 136 OFFCURVE",
"467 136 QCURVE SMOOTH",
"556 136 OFFCURVE",
"711 232 OFFCURVE",
"764 308 QCURVE",
"908 1052 LINE",
"1094 1052 LINE",
"890 0 LINE",
"722 0 LINE",
"740 135 LINE",
"734 135 LINE",
"663 63 OFFCURVE",
"482 -20 OFFCURVE",
"382 -20 QCURVE SMOOTH",
"336 -20 OFFCURVE",
"261 15 OFFCURVE",
"232 42 QCURVE",
"144 -416 LINE",
"-42 -416 LINE",
"242 1052 LINE"
);
}
);
width = 1198;
}
);
unicode = 00B5;
},
{
glyphname = kgreenlandic;
layers = (
{
anchors = (
{
name = bottom;
position = "{590, 10}";
},
{
name = parent_top;
position = "{590, 1290}";
},
{
name = top;
position = "{590, 1290}";
},
{
name = top0315;
position = "{1140, 1290}";
}
);
layerId = "3459A980-FF7D-466A-B966-D2EC6A15CC7A";
paths = (
{
closed = 1;
nodes = (
"155 1082 LINE",
"155 0 LINE",
"340 0 LINE",
"340 1082 LINE"
);
},
{
closed = 1;
nodes = (
"828 1082 LINE",
"432 624 LINE",
"250 624 LINE",
"278 462 LINE",
"517 462 LINE",
"1052 1082 LINE"
);
},
{
closed = 1;
nodes = (
"1088 0 LINE",
"542 624 LINE",
"423 490 LINE",
"854 0 LINE"
);
}
);
width = 1140;
}
);
unicode = 0138;
},
{
glyphname = eng;
layers = (
{
anchors = (
{
name = bottom;
position = "{563, 10}";
},
{
name = markbottom;
position = "{563, 10}";
},
{
name = markparenthesses.w1;
position = "{797, -304}";
},
{
name = parent_top;
position = "{573, 1290}";
},
{
name = parenthesses.w1;
position = "{797, -304}";
},
{
name = top;
position = "{597, 1052}";
},
{
name = top0315;
position = "{1161, 1290}";
}
);
layerId = "3459A980-FF7D-466A-B966-D2EC6A15CC7A";
paths = (
{
closed = 1;
nodes = (
"334 0 LINE",
"334 744 LINE",
"372 820 OFFCURVE",
"508 916 OFFCURVE",
"597 916 QCURVE SMOOTH",
"701 916 OFFCURVE",
"814 807 OFFCURVE",
"814 681 QCURVE",
"814 -89 LINE SMOOTH",
"814 -181 OFFCURVE",
"741 -275 OFFCURVE",
"676 -275 QCURVE SMOOTH",
"662 -275 OFFCURVE",
"592 -269 OFFCURVE",
"576 -263 QCURVE",
"562 -420 LINE",
"592 -430 OFFCURVE",
"645 -437 OFFCURVE",
"676 -437 QCURVE SMOOTH",
"827 -437 OFFCURVE",
"1000 -257 OFFCURVE",
"1000 -89 QCURVE SMOOTH",
"1000 679 LINE",
"1000 891 OFFCURVE",
"811 1072 OFFCURVE",
"652 1072 QCURVE SMOOTH",
"552 1072 OFFCURVE",
"387 989 OFFCURVE",
"330 917 QCURVE",
"324 917 LINE",
"316 1052 LINE",
"148 1052 LINE",
"148 0 LINE"
);
}
);
width = 1145;
}
);
unicode = 014B;
},
{
glyphname = schwa;
layers = (
{
layerId = "3459A980-FF7D-466A-B966-D2EC6A15CC7A";
paths = (
{
closed = 1;
nodes = (
"942 283 OFFCURVE",
"677 -22 OFFCURVE",
"464 -22 QCURVE SMOOTH",
"269 -22 OFFCURVE",
"47 207 OFFCURVE",
"27 412 QCURVE",
"27 472 LINE",
"789 472 LINE",
"789 376 LINE",
"195 376 LINE",
"213 237 OFFCURVE",
"360 92 OFFCURVE",
"472 92 QCURVE SMOOTH",
"610 92 OFFCURVE",
"762 300 OFFCURVE",
"761 480 QCURVE SMOOTH",
"760 681 OFFCURVE",
"562 892 OFFCURVE",
"398 892 QCURVE SMOOTH",
"295 892 OFFCURVE",
"160 849 OFFCURVE",
"115 812 QCURVE",
"64 872 LINE",
"111 935 OFFCURVE",
"298 1022 OFFCURVE",
"451 1022 QCURVE SMOOTH",
"661 1022 OFFCURVE",
"942 751 OFFCURVE",
"942 500 QCURVE SMOOTH"
);
}
);
width = 1006;
}
);
unicode = 0259;
},
{
glyphname = primemod;
layers = (
{
layerId = "3459A980-FF7D-466A-B966-D2EC6A15CC7A";
paths = (
{
closed = 1;
nodes = (
"413 1502 LINE",
"294 991 LINE",
"172 996 LINE",
"224 1502 LINE"
);
}
);
width = 600;
}
);
unicode = 02B9;
},
{
glyphname = doubleprimemod;
layers = (
{
layerId = "3459A980-FF7D-466A-B966-D2EC6A15CC7A";
paths = (
{
closed = 1;
nodes = (
"413 1502 LINE",
"295 1004 LINE",
"173 1009 LINE",
"224 1502 LINE"
);
},
{
closed = 1;
nodes = (
"713 1502 LINE",
"595 1004 LINE",
"473 1009 LINE",
"524 1502 LINE"
);
}
);
width = 788;
}
);
unicode = 02BA;
},
{
glyphname = apostrophemod;
layers = (
{
layerId = "3459A980-FF7D-466A-B966-D2EC6A15CC7A";
paths = (
{
closed = 1;
nodes = (
"195 1092 OFFCURVE",
"299 1210 OFFCURVE",
"314 1277 QCURVE",
"243 1277 OFFCURVE",
"163 1352 OFFCURVE",
"163 1411 QCURVE SMOOTH",
"163 1469 OFFCURVE",
"244 1546 OFFCURVE",
"307 1546 QCURVE SMOOTH",
"366 1546 OFFCURVE",
"462 1450 OFFCURVE",
"462 1373 QCURVE SMOOTH",
"462 1251 OFFCURVE",
"303 1063 OFFCURVE",
"198 1013 QCURVE",
"155 1062 LINE"
);
}
);
width = 600;
}
);
unicode = 02BC;
},
{
glyphname = hookabovecomb;
layers = (
{
layerId = "3459A980-FF7D-466A-B966-D2EC6A15CC7A";
paths = (
{
closed = 1;
nodes = (
"543 1047 LINE",
"545 1133 LINE",
"559 1129 OFFCURVE",
"611 1121 OFFCURVE",
"638 1121 QCURVE SMOOTH",
"707 1121 OFFCURVE",
"806 1229 OFFCURVE",
"806 1316 QCURVE SMOOTH",
"806 1420 OFFCURVE",
"661 1526 OFFCURVE",
"547 1526 QCURVE SMOOTH",
"493 1526 OFFCURVE",
"374 1495 OFFCURVE",
"311 1468 QCURVE",
"358 1343 LINE",
"395 1359 OFFCURVE",
"492 1380 OFFCURVE",
"537 1380 QCURVE SMOOTH",
"583 1380 OFFCURVE",
"639 1343 OFFCURVE",
"639 1308 QCURVE SMOOTH",
"639 1269 OFFCURVE",
"587 1229 OFFCURVE",
"547 1229 QCURVE SMOOTH",
"533 1229 OFFCURVE",
"502 1235 OFFCURVE",
"485 1240 QCURVE",
"416 1140 LINE",
"416 1047 LINE"
);
}
);
width = 1024;
}
);
unicode = 0309;
},
{
glyphname = breveinvertedcomb;
layers = (
{
layerId = "3459A980-FF7D-466A-B966-D2EC6A15CC7A";
paths = (
{
closed = 1;
nodes = (
"160 1241 LINE",
"175 1334 OFFCURVE",
"386 1508 OFFCURVE",
"511 1508 QCURVE",
"640 1508 OFFCURVE",
"851 1334 OFFCURVE",
"864 1241 QCURVE",
"786 1188 LINE",
"759 1242 OFFCURVE",
"611 1352 OFFCURVE",
"512 1352 QCURVE",
"415 1352 OFFCURVE",
"267 1242 OFFCURVE",
"238 1188 QCURVE"
);
}
);
width = 1024;
}
);
unicode = 030F;
},
{
glyphname = horncomb;
layers = (
{
layerId = "3459A980-FF7D-466A-B966-D2EC6A15CC7A";
paths = (
{
closed = 1;
nodes = (
"-1 889 LINE",
"50 870 OFFCURVE",
"150 853 OFFCURVE",
"188 853 QCURVE SMOOTH",
"306 853 OFFCURVE",
"415 973 OFFCURVE",
"415 1063 QCURVE SMOOTH",
"415 1106 OFFCURVE",
"388 1206 OFFCURVE",
"364 1256 QCURVE",
"256 1256 LINE",
"266 1208 OFFCURVE",
"278 1120 OFFCURVE",
"278 1085 QCURVE SMOOTH",
"278 1033 OFFCURVE",
"221 981 OFFCURVE",
"155 981 QCURVE SMOOTH",
"122 981 OFFCURVE",
"42 991 OFFCURVE",
"-1 1000 QCURVE"
);
}
);
width = 1024;
}
);
unicode = 031B;
},
{
glyphname = dotbelowcomb;
layers = (
{
layerId = "3459A980-FF7D-466A-B966-D2EC6A15CC7A";
paths = (
{
closed = 1;
nodes = (
"394 -224 OFFCURVE",
"454 -164 OFFCURVE",
"512 -164 QCURVE SMOOTH",
"566 -164 OFFCURVE",
"630 -228 OFFCURVE",
"630 -279 QCURVE SMOOTH",
"630 -335 OFFCURVE",
"570 -395 OFFCURVE",
"512 -395 QCURVE SMOOTH",
"458 -395 OFFCURVE",
"394 -331 OFFCURVE",
"394 -279 QCURVE SMOOTH"
);
}
);
width = 1024;
}
);
unicode = 0323;
},
{
glyphname = dieresisbelowcomb;
layers = (
{
layerId = "3459A980-FF7D-466A-B966-D2EC6A15CC7A";
paths = (
{
closed = 1;
nodes = (
"166 -273 OFFCURVE",
"226 -214 OFFCURVE",
"282 -214 QCURVE SMOOTH",
"335 -214 OFFCURVE",
"398 -277 OFFCURVE",
"398 -328 QCURVE SMOOTH",
"398 -382 OFFCURVE",
"339 -441 OFFCURVE",
"282 -441 QCURVE SMOOTH",
"229 -441 OFFCURVE",
"166 -379 OFFCURVE",
"166 -328 QCURVE SMOOTH"
);
},
{
closed = 1;
nodes = (
"626 -273 OFFCURVE",
"686 -214 OFFCURVE",
"742 -214 QCURVE SMOOTH",
"795 -214 OFFCURVE",
"858 -277 OFFCURVE",
"858 -328 QCURVE SMOOTH",
"858 -382 OFFCURVE",
"799 -441 OFFCURVE",
"742 -441 QCURVE SMOOTH",
"689 -441 OFFCURVE",
"626 -379 OFFCURVE",
"626 -328 QCURVE SMOOTH"
);
}
);
width = 1024;
}
);
unicode = 0324;
},
{
glyphname = commaaccentcomb;
layers = (
{
layerId = "3459A980-FF7D-466A-B966-D2EC6A15CC7A";
paths = (
{
closed = 1;
nodes = (
"402 -590 OFFCURVE",
"507 -475 OFFCURVE",
"521 -415 QCURVE",
"462 -414 OFFCURVE",
"385 -342 OFFCURVE",
"385 -285 QCURVE SMOOTH",
"385 -229 OFFCURVE",
"463 -147 OFFCURVE",
"524 -147 QCURVE SMOOTH",
"581 -147 OFFCURVE",
"663 -220 OFFCURVE",
"663 -294 QCURVE SMOOTH",
"663 -411 OFFCURVE",
"510 -623 OFFCURVE",
"415 -682 QCURVE",
"362 -620 LINE"
);
}
);
width = 1024;
}
);
unicode = 0326;
},
{
glyphname = brevebelowcomb;
layers = (
{
layerId = "3459A980-FF7D-466A-B966-D2EC6A15CC7A";
paths = (
{
closed = 1;
nodes = (
"896 -197 LINE",
"857 -296 OFFCURVE",
"656 -463 OFFCURVE",
"512 -463 QCURVE SMOOTH",
"384 -463 OFFCURVE",
"177 -310 OFFCURVE",
"129 -196 QCURVE",
"229 -127 LINE",
"272 -190 OFFCURVE",
"417 -294 OFFCURVE",
"512 -294 QCURVE SMOOTH",
"614 -294 OFFCURVE",
"760 -195 OFFCURVE",
"803 -127 QCURVE"
);
}
);
width = 1024;
}
);
unicode = 032E;
},
{
glyphname = macronbelowcomb;
layers = (
{
layerId = "3459A980-FF7D-466A-B966-D2EC6A15CC7A";
paths = (
{
closed = 1;
nodes = (
"216 -103 LINE",
"808 -103 LINE",
"808 -259 LINE",
"216 -259 LINE"
);
}
);
width = 1024;
}
);
unicode = 0331;
},
{
glyphname = foursuperior;
layers = (
{
layerId = "3459A980-FF7D-466A-B966-D2EC6A15CC7A";
paths = (
{
closed = 1;
nodes = (
"700 880 LINE",
"700 1010 LINE",
"212 1010 LINE",
"399 1270 LINE",
"556 1496 LINE",
"432 1496 LINE",
"54 982 LINE",
"61 880 LINE"
);
},
{
closed = 1;
nodes = (
"435 1496 LINE",
"435 697 LINE",
"592 697 LINE",
"592 1496 LINE"
);
}
);
width = 751;
}
);
unicode = 2074;
},
{
glyphname = endash;
layers = (
{
layerId = "3459A980-FF7D-466A-B966-D2EC6A15CC7A";
paths = (
{
closed = 1;
nodes = (
"1024 532 LINE",
"1024 700 LINE",
"0 700 LINE",
"0 532 LINE"
);
}
);
width = 1024;
}
);
unicode = 2013;
},
{
glyphname = emdash;
layers = (
{
layerId = "3459A980-FF7D-466A-B966-D2EC6A15CC7A";
paths = (
{
closed = 1;
nodes = (
"1788 532 LINE",
"1788 700 LINE",
"260 700 LINE",
"260 532 LINE"
);
}
);
width = 2048;
}
);
unicode = 2014;
},
{
glyphname = horizontalbar;
layers = (
{
layerId = "3459A980-FF7D-466A-B966-D2EC6A15CC7A";
paths = (
{
closed = 1;
nodes = (
"625 626 LINE",
"625 792 LINE",
"20 792 LINE",
"20 626 LINE"
);
}
);
width = 656;
}
);
unicode = 2015;
},
{
glyphname = leftanglebracket;
layers = (
{
layerId = "3459A980-FF7D-466A-B966-D2EC6A15CC7A";
paths = (
{
closed = 1;
nodes = (
"586 -304 LINE",
"698 -219 LINE",
"175 604 LINE",
"699 1413 LINE",
"586 1499 LINE",
"-16 665 LINE",
"-16 536 LINE"
);
}
);
width = 700;
}
);
unicode = 27E8;
},
{
glyphname = rightanglebracket;
layers = (
{
layerId = "3459A980-FF7D-466A-B966-D2EC6A15CC7A";
paths = (
{
closed = 1;
nodes = (
"97 -304 LINE",
"699 530 LINE",
"699 659 LINE",
"97 1499 LINE",
"-15 1414 LINE",
"508 591 LINE",
"-16 -218 LINE"
);
}
);
width = 700;
}
);
unicode = 27E9;
},
{
glyphname = quotedblleft;
layers = (
{
layerId = "3459A980-FF7D-466A-B966-D2EC6A15CC7A";
paths = (
{
closed = 1;
nodes = (
"275 1073 LINE",
"275 1197 LINE SMOOTH",
"275 1278 OFFCURVE",
"325 1417 OFFCURVE",
"371 1483 QCURVE",
"266 1556 LINE",
"183 1488 OFFCURVE",
"92 1284 OFFCURVE",
"92 1194 QCURVE SMOOTH",
"92 1073 LINE"
);
},
{
closed = 1;
nodes = (
"695 1073 LINE",
"695 1197 LINE SMOOTH",
"695 1278 OFFCURVE",
"745 1417 OFFCURVE",
"791 1483 QCURVE",
"686 1556 LINE",
"603 1488 OFFCURVE",
"512 1284 OFFCURVE",
"512 1194 QCURVE SMOOTH",
"512 1073 LINE"
);
}
);
width = 830;
}
);
unicode = 201C;
},
{
glyphname = quotedblright;
layers = (
{
layerId = "3459A980-FF7D-466A-B966-D2EC6A15CC7A";
paths = (
{
closed = 1;
nodes = (
"134 1458 LINE",
"134 1327 LINE SMOOTH",
"134 1246 OFFCURVE",
"86 1107 OFFCURVE",
"39 1041 QCURVE",
"145 968 LINE",
"227 1036 OFFCURVE",
"318 1240 OFFCURVE",
"318 1330 QCURVE SMOOTH",
"318 1458 LINE"
);
},
{
closed = 1;
nodes = (
"554 1458 LINE",
"554 1327 LINE SMOOTH",
"554 1246 OFFCURVE",
"506 1107 OFFCURVE",
"459 1041 QCURVE",
"565 968 LINE",
"647 1036 OFFCURVE",
"738 1240 OFFCURVE",
"738 1330 QCURVE SMOOTH",
"738 1458 LINE"
);
}
);
width = 830;
}
);
unicode = 201D;
},
{
glyphname = quotesinglbase;
layers = (
{
layerId = "3459A980-FF7D-466A-B966-D2EC6A15CC7A";
paths = (
{
closed = 1;
nodes = (
"134 220 LINE",
"134 89 LINE SMOOTH",
"134 8 OFFCURVE",
"86 -131 OFFCURVE",
"39 -197 QCURVE",
"145 -270 LINE",
"227 -202 OFFCURVE",
"318 2 OFFCURVE",
"318 92 QCURVE SMOOTH",
"318 220 LINE"
);
}
);
width = 410;
}
);
unicode = 201A;
},
{
glyphname = quotedblbase;
layers = (
{
layerId = "3459A980-FF7D-466A-B966-D2EC6A15CC7A";
paths = (
{
closed = 1;
nodes = (
"134 220 LINE",
"134 89 LINE SMOOTH",
"134 8 OFFCURVE",
"86 -131 OFFCURVE",
"39 -197 QCURVE",
"145 -270 LINE",
"227 -202 OFFCURVE",
"318 2 OFFCURVE",
"318 92 QCURVE SMOOTH",
"318 220 LINE"
);
},
{
closed = 1;
nodes = (
"554 220 LINE",
"554 89 LINE SMOOTH",
"554 8 OFFCURVE",
"506 -131 OFFCURVE",
"459 -197 QCURVE",
"565 -270 LINE",
"647 -202 OFFCURVE",
"738 2 OFFCURVE",
"738 92 QCURVE SMOOTH",
"738 220 LINE"
);
}
);
width = 830;
}
);
unicode = 201E;
},
{
glyphname = guilsinglleft;
layers = (
{
guideLines = (
{
position = "{0, 901}";
},
{
position = "{0, 555}";
}
);
layerId = "3459A980-FF7D-466A-B966-D2EC6A15CC7A";
paths = (
{
closed = 1;
nodes = (
"403 153 LINE",
"565 153 LINE",
"307 551 LINE",
"565 949 LINE",
"403 949 LINE",
"108 581 LINE",
"108 522 LINE"
);
}
);
width = 652;
}
);
unicode = 2039;
userData = {
com.typemytype.robofont.guideline.magnetic.Amp5Ormvx4 = 5;
com.typemytype.robofont.guideline.magnetic.JDX5vz3jKp = 5;
};
},
{
glyphname = guilsinglright;
layers = (
{
guideLines = (
{
position = "{0, 901}";
},
{
position = "{0, 555}";
}
);
layerId = "3459A980-FF7D-466A-B966-D2EC6A15CC7A";
paths = (
{
closed = 1;
nodes = (
"249 153 LINE",
"544 522 LINE",
"544 581 LINE",
"249 949 LINE",
"87 949 LINE",
"345 551 LINE",
"87 153 LINE"
);
}
);
width = 652;
}
);
unicode = 203A;
userData = {
com.typemytype.robofont.guideline.magnetic.Amp5Ormvx4 = 5;
com.typemytype.robofont.guideline.magnetic.JDX5vz3jKp = 5;
};
},
{
glyphname = dagger;
layers = (
{
layerId = "3459A980-FF7D-466A-B966-D2EC6A15CC7A";
paths = (
{
closed = 1;
nodes = (
"480 -416 OFFCURVE",
"524 -415 OFFCURVE",
"597 -274 QCURVE",
"601 8 LINE",
"580 748 LINE",
"580 852 LINE",
"931 852 LINE",
"931 1025 LINE",
"584 1025 LINE",
"597 1508 LINE",
"406 1508 LINE",
"419 1025 LINE",
"72 1025 LINE",
"72 852 LINE",
"423 852 LINE",
"423 748 LINE",
"402 8 LINE",
"406 -274 LINE"
);
}
);
width = 1008;
}
);
unicode = 2020;
},
{
glyphname = daggerdbl;
layers = (
{
layerId = "3459A980-FF7D-466A-B966-D2EC6A15CC7A";
paths = (
{
closed = 1;
nodes = (
"414 38 LINE",
"411 -452 LINE",
"592 -452 LINE",
"589 38 LINE",
"926 38 LINE",
"926 204 LINE",
"575 204 LINE",
"595 534 LINE",
"580 855 LINE",
"926 855 LINE",
"926 1022 LINE",
"594 1022 LINE",
"597 1508 LINE",
"406 1508 LINE",
"409 1022 LINE",
"77 1022 LINE",
"77 855 LINE",
"423 855 LINE",
"408 534 LINE",
"428 204 LINE",
"77 204 LINE",
"77 38 LINE"
);
}
);
width = 1008;
}
);
unicode = 2021;
},
{
glyphname = fraction;
layers = (
{
guideLines = (
{
position = "{0, 901}";
},
{
position = "{0, 555}";
}
);
layerId = "3459A980-FF7D-466A-B966-D2EC6A15CC7A";
paths = (
{
closed = 1;
nodes = (
"575 1503 LINE",
"-345 44 LINE",
"-220 -43 LINE",
"700 1416 LINE"
);
}
);
width = 342;
}
);
unicode = 2044;
userData = {
com.typemytype.robofont.guideline.magnetic.0lx51aIE0d = 5;
com.typemytype.robofont.guideline.magnetic.tcCoNUQTdD = 5;
};
},
{
glyphname = numero;
layers = (
{
layerId = "3459A980-FF7D-466A-B966-D2EC6A15CC7A";
paths = (
{
closed = 1;
nodes = (
"350 0 LINE",
"350 1010 LINE SMOOTH",
"350 1040 OFFCURVE",
"349 1115 OFFCURVE",
"345 1145 QCURVE",
"355 1145 LINE",
"362 1118 OFFCURVE",
"388 1059 OFFCURVE",
"407 1028 QCURVE SMOOTH",
"1017 0 LINE",
"1214 0 LINE",
"1214 1456 LINE",
"1037 1456 LINE",
"1037 436 LINE SMOOTH",
"1037 406 OFFCURVE",
"1039 331 OFFCURVE",
"1043 301 QCURVE",
"1033 301 LINE",
"1021 326 OFFCURVE",
"985 386 OFFCURVE",
"967 416 QCURVE SMOOTH",
"365 1456 LINE",
"170 1456 LINE",
"170 0 LINE"
);
},
{
closed = 1;
nodes = (
"1353 792 OFFCURVE",
"1581 539 OFFCURVE",
"1789 539 QCURVE SMOOTH",
"1997 539 OFFCURVE",
"2226 792 OFFCURVE",
"2226 992 QCURVE SMOOTH",
"2226 1019 LINE SMOOTH",
"2226 1219 OFFCURVE",
"1985 1473 OFFCURVE",
"1789 1473 QCURVE SMOOTH",
"1593 1473 OFFCURVE",
"1353 1219 OFFCURVE",
"1353 1019 QCURVE SMOOTH",
"1353 992 LINE SMOOTH"
);
},
{
closed = 1;
nodes = (
"1551 1143 OFFCURVE",
"1669 1308 OFFCURVE",
"1789 1308 QCURVE SMOOTH",
"1909 1308 OFFCURVE",
"2028 1143 OFFCURVE",
"2028 1016 QCURVE SMOOTH",
"2028 991 LINE SMOOTH",
"2028 864 OFFCURVE",
"1910 699 OFFCURVE",
"1789 699 QCURVE SMOOTH",
"1668 699 OFFCURVE",
"1551 864 OFFCURVE",
"1551 991 QCURVE SMOOTH",
"1551 1016 LINE SMOOTH"
);
},
{
closed = 1;
nodes = (
"2186 232 LINE",
"2186 414 LINE",
"1393 414 LINE",
"1393 232 LINE"
);
}
);
width = 2331;
}
);
unicode = 2116;
},
{
glyphname = bullet;
layers = (
{
layerId = "3459A980-FF7D-466A-B966-D2EC6A15CC7A";
paths = (
{
closed = 1;
nodes = (
"104 659 OFFCURVE",
"266 487 OFFCURVE",
"392 487 QCURVE SMOOTH",
"518 487 OFFCURVE",
"680 659 OFFCURVE",
"680 773 QCURVE SMOOTH",
"680 889 OFFCURVE",
"518 1061 OFFCURVE",
"392 1061 QCURVE SMOOTH",
"266 1061 OFFCURVE",
"104 889 OFFCURVE",
"104 773 QCURVE SMOOTH"
);
}
);
width = 784;
}
);
unicode = 2022;
},
{
glyphname = minute;
layers = (
{
layerId = "3459A980-FF7D-466A-B966-D2EC6A15CC7A";
paths = (
{
closed = 1;
nodes = (
"231 884 LINE",
"588 1452 LINE SMOOTH",
"395 1559 LINE",
"100 964 LINE"
);
}
);
width = 654;
}
);
unicode = 2032;
},
{
glyphname = second;
layers = (
{
layerId = "3459A980-FF7D-466A-B966-D2EC6A15CC7A";
paths = (
{
closed = 1;
nodes = (
"231 884 LINE",
"588 1452 LINE SMOOTH",
"395 1559 LINE",
"100 964 LINE"
);
},
{
closed = 1;
nodes = (
"631 884 LINE",
"988 1452 LINE SMOOTH",
"795 1559 LINE",
"500 964 LINE"
);
}
);
width = 1054;
}
);
unicode = 2033;
},
{
glyphname = lessequal;
layers = (
{
layerId = "3459A980-FF7D-466A-B966-D2EC6A15CC7A";
paths = (
{
closed = 1;
nodes = (
"913 456 LINE",
"326 679 LINE",
"913 902 LINE",
"913 1095 LINE",
"95 746 LINE",
"95 602 LINE",
"913 253 LINE"
);
},
{
closed = 1;
nodes = (
"962 1 LINE",
"962 170 LINE",
"52 170 LINE",
"52 1 LINE"
);
}
);
width = 1024;
}
);
unicode = 2264;
},
{
glyphname = greaterequal;
layers = (
{
layerId = "3459A980-FF7D-466A-B966-D2EC6A15CC7A";
paths = (
{
closed = 1;
nodes = (
"929 602 LINE",
"929 746 LINE",
"111 1095 LINE",
"111 902 LINE",
"698 679 LINE",
"111 456 LINE",
"111 253 LINE"
);
},
{
closed = 1;
nodes = (
"972 170 LINE",
"62 170 LINE",
"62 1 LINE",
"972 1 LINE"
);
}
);
width = 1024;
}
);
unicode = 2265;
},
{
glyphname = approxequal;
layers = (
{
layerId = "3459A980-FF7D-466A-B966-D2EC6A15CC7A";
paths = (
{
closed = 1;
nodes = (
"93 764 OFFCURVE",
"225 832 OFFCURVE",
"290 832 QCURVE SMOOTH",
"369 832 OFFCURVE",
"462 790 OFFCURVE",
"525 759 QCURVE SMOOTH",
"584 729 OFFCURVE",
"669 690 OFFCURVE",
"743 690 QCURVE SMOOTH",
"808 690 OFFCURVE",
"932 748 OFFCURVE",
"979 799 QCURVE",
"979 996 LINE",
"932 936 OFFCURVE",
"807 868 OFFCURVE",
"742 868 QCURVE SMOOTH",
"668 868 OFFCURVE",
"583 908 OFFCURVE",
"524 938 QCURVE SMOOTH",
"461 969 OFFCURVE",
"369 1012 OFFCURVE",
"290 1011 QCURVE SMOOTH",
"225 1010 OFFCURVE",
"93 952 OFFCURVE",
"46 901 QCURVE",
"46 704 LINE"
);
},
{
closed = 1;
nodes = (
"92 347 OFFCURVE",
"224 414 OFFCURVE",
"289 414 QCURVE SMOOTH",
"368 414 OFFCURVE",
"461 372 OFFCURVE",
"524 341 QCURVE SMOOTH",
"583 311 OFFCURVE",
"668 272 OFFCURVE",
"742 272 QCURVE SMOOTH",
"807 272 OFFCURVE",
"931 330 OFFCURVE",
"978 381 QCURVE",
"978 579 LINE",
"931 519 OFFCURVE",
"806 451 OFFCURVE",
"741 451 QCURVE SMOOTH",
"667 451 OFFCURVE",
"582 490 OFFCURVE",
"523 520 QCURVE SMOOTH",
"460 551 OFFCURVE",
"368 594 OFFCURVE",
"289 593 QCURVE SMOOTH",
"224 592 OFFCURVE",
"92 535 OFFCURVE",
"45 484 QCURVE",
"45 287 LINE"
);
}
);
width = 1024;
}
);
unicode = 2248;
},
{
glyphname = notequal;
layers = (
{
layerId = "3459A980-FF7D-466A-B966-D2EC6A15CC7A";
paths = (
{
closed = 1;
nodes = (
"745 1261 LINE",
"520 864 LINE",
"509 828 LINE",
"302 469 LINE",
"279 447 LINE",
"119 169 LINE",
"257 89 LINE",
"458 437 LINE",
"462 461 LINE",
"676 832 LINE",
"703 861 LINE",
"883 1181 LINE"
);
},
{
closed = 1;
nodes = (
"967 381 LINE",
"967 550 LINE",
"57 550 LINE",
"57 381 LINE"
);
},
{
closed = 1;
nodes = (
"967 776 LINE",
"967 945 LINE",
"57 945 LINE",
"57 776 LINE"
);
}
);
width = 1024;
}
);
unicode = 2260;
},
{
glyphname = commercialMinusSign;
layers = (
{
layerId = "3459A980-FF7D-466A-B966-D2EC6A15CC7A";
paths = (
{
closed = 1;
nodes = (
"646 1501 LINE",
"814 1458 LINE",
"229 -45 LINE",
"61 -2 LINE"
);
},
{
closed = 1;
nodes = (
"505 213 OFFCURVE",
"596 310 OFFCURVE",
"667 310 QCURVE SMOOTH",
"738 310 OFFCURVE",
"829 213 OFFCURVE",
"829 148 QCURVE SMOOTH",
"829 84 OFFCURVE",
"738 -13 OFFCURVE",
"667 -13 QCURVE SMOOTH",
"596 -13 OFFCURVE",
"505 84 OFFCURVE",
"505 148 QCURVE SMOOTH"
);
},
{
closed = 1;
nodes = (
"60 1369 OFFCURVE",
"151 1466 OFFCURVE",
"222 1466 QCURVE SMOOTH",
"293 1466 OFFCURVE",
"384 1369 OFFCURVE",
"384 1304 QCURVE SMOOTH",
"384 1240 OFFCURVE",
"293 1143 OFFCURVE",
"222 1143 QCURVE SMOOTH",
"151 1143 OFFCURVE",
"60 1240 OFFCURVE",
"60 1304 QCURVE SMOOTH"
);
}
);
width = 889;
}
);
unicode = 2052;
},
{
glyphname = divisionslash;
layers = (
{
layerId = "3459A980-FF7D-466A-B966-D2EC6A15CC7A";
paths = (
{
closed = 1;
nodes = (
"554 1555 LINE",
"695 1512 LINE",
"79 -161 LINE",
"-62 -118 LINE"
);
}
);
width = 656;
}
);
unicode = 2215;
},
{
glyphname = bulletoperator;
layers = (
{
layerId = "3459A980-FF7D-466A-B966-D2EC6A15CC7A";
paths = (
{
closed = 1;
nodes = (
"368 732 OFFCURVE",
"449 818 OFFCURVE",
"512 818 QCURVE SMOOTH",
"575 818 OFFCURVE",
"656 732 OFFCURVE",
"656 674 QCURVE SMOOTH",
"656 617 OFFCURVE",
"575 531 OFFCURVE",
"512 531 QCURVE SMOOTH",
"449 531 OFFCURVE",
"368 617 OFFCURVE",
"368 674 QCURVE SMOOTH"
);
}
);
width = 1024;
}
);
unicode = 2219;
},
{
glyphname = coloncurrency;
layers = (
{
anchors = (
{
name = bottom;
position = "{720, 0}";
}
);
guideLines = (
{
position = "{0, 1570}";
}
);
layerId = "3459A980-FF7D-466A-B966-D2EC6A15CC7A";
paths = (
{
closed = 1;
nodes = (
"804 1570 LINE",
"776 1381 LINE",
"783 1361 LINE",
"598 66 LINE",
"584 40 LINE",
"561 -125 LINE",
"720 -125 LINE",
"744 43 LINE",
"738 68 LINE",
"910 1301 LINE",
"923 1324 LINE",
"962 1570 LINE"
);
},
{
closed = 1;
nodes = (
"532 1570 LINE",
"507 1399 LINE",
"514 1376 LINE",
"338 148 LINE",
"324 122 LINE",
"289 -125 LINE",
"448 -125 LINE",
"471 39 LINE",
"465 66 LINE",
"652 1374 LINE",
"665 1395 LINE",
"690 1570 LINE"
);
},
{
closed = 1;
nodes = (
"85 308 OFFCURVE",
"392 -30 OFFCURVE",
"631 -30 QCURVE SMOOTH",
"866 -30 OFFCURVE",
"1133 241 OFFCURVE",
"1133 426 QCURVE SMOOTH",
"1133 466 LINE",
"946 466 LINE",
"946 412 LINE SMOOTH",
"946 291 OFFCURVE",
"794 114 OFFCURVE",
"631 114 QCURVE SMOOTH",
"469 114 OFFCURVE",
"271 369 OFFCURVE",
"271 592 QCURVE SMOOTH",
"271 844 LINE SMOOTH",
"271 1085 OFFCURVE",
"459 1332 OFFCURVE",
"621 1332 QCURVE SMOOTH",
"784 1332 OFFCURVE",
"941 1161 OFFCURVE",
"941 1041 QCURVE SMOOTH",
"941 990 LINE",
"1123 990 LINE",
"1123 1040 LINE SMOOTH",
"1123 1233 OFFCURVE",
"856 1486 OFFCURVE",
"621 1486 QCURVE SMOOTH",
"387 1486 OFFCURVE",
"85 1154 OFFCURVE",
"85 844 QCURVE SMOOTH",
"85 612 LINE SMOOTH"
);
}
);
width = 1154;
}
);
unicode = 20A1;
userData = {
com.typemytype.robofont.guideline.magnetic.0DwZ2nfhdf = 5;
};
},
{
glyphname = franc;
layers = (
{
anchors = (
{
name = bottom;
position = "{531, 10}";
},
{
name = bottom_dd;
position = "{1132, -407}";
},
{
name = parent_top;
position = "{619, 1612}";
},
{
name = top;
position = "{619, 1612}";
},
{
name = top0315;
position = "{1132, 1612}";
},
{
name = top_dd;
position = "{1132, 1600}";
}
);
layerId = "3459A980-FF7D-466A-B966-D2EC6A15CC7A";
paths = (
{
closed = 1;
nodes = (
"372 0 LINE",
"372 703 LINE",
"913 703 LINE",
"913 861 LINE",
"372 861 LINE",
"372 1298 LINE",
"1002 1298 LINE",
"1002 1456 LINE",
"180 1456 LINE",
"180 0 LINE"
);
},
{
closed = 1;
nodes = (
"725 296 LINE",
"725 454 LINE",
"20 454 LINE",
"20 296 LINE"
);
}
);
width = 1024;
}
);
unicode = 20A3;
},
{
glyphname = lira;
layers = (
{
layerId = "3459A980-FF7D-466A-B966-D2EC6A15CC7A";
paths = (
{
closed = 1;
nodes = (
"1028 166 LINE",
"322 166 LINE",
"392 207 OFFCURVE",
"444 372 OFFCURVE",
"431 508 QCURVE SMOOTH",
"380 1039 LINE SMOOTH",
"368 1162 OFFCURVE",
"481 1319 OFFCURVE",
"583 1319 QCURVE SMOOTH",
"675 1319 OFFCURVE",
"785 1218 OFFCURVE",
"792 1103 QCURVE SMOOTH",
"792 1087 LINE",
"984 1087 LINE",
"984 1103 LINE SMOOTH",
"984 1270 OFFCURVE",
"771 1476 OFFCURVE",
"581 1476 QCURVE SMOOTH",
"380 1476 OFFCURVE",
"180 1228 OFFCURVE",
"198 1039 QCURVE SMOOTH",
"253 467 LINE SMOOTH",
"267 324 OFFCURVE",
"184 160 OFFCURVE",
"92 160 QCURVE SMOOTH",
"36 160 LINE",
"36 0 LINE",
"1028 0 LINE"
);
},
{
closed = 1;
nodes = (
"804 580 LINE",
"42 580 LINE",
"42 435 LINE",
"804 435 LINE"
);
},
{
closed = 1;
nodes = (
"804 910 LINE",
"42 910 LINE",
"42 765 LINE",
"804 765 LINE"
);
}
);
width = 1024;
}
);
unicode = 20A4;
},
{
glyphname = naira;
layers = (
{
layerId = "3459A980-FF7D-466A-B966-D2EC6A15CC7A";
paths = (
{
closed = 1;
nodes = (
"161 850 LINE",
"161 855 LINE",
"827 855 LINE",
"827 850 LINE",
"1019 852 LINE",
"1019 989 LINE",
"827 987 LINE",
"827 977 LINE",
"161 977 LINE",
"161 987 LINE",
"-21 987 LINE",
"-21 850 LINE"
);
},
{
closed = 1;
nodes = (
"161 540 LINE",
"161 550 LINE",
"827 550 LINE",
"827 540 LINE",
"1019 542 LINE",
"1019 679 LINE",
"827 677 LINE",
"827 672 LINE",
"161 672 LINE",
"161 677 LINE",
"-21 677 LINE",
"-21 540 LINE"
);
},
{
closed = 1;
nodes = (
"756 1456 LINE",
"756 351 LINE",
"766 230 LINE",
"752 227 LINE",
"723 347 LINE",
"269 1456 LINE",
"83 1456 LINE",
"83 0 LINE",
"233 0 LINE",
"233 1125 LINE",
"220 1253 LINE",
"232 1253 LINE",
"254 1142 LINE",
"725 0 LINE",
"906 0 LINE",
"906 1456 LINE"
);
}
);
width = 1024;
}
);
unicode = 20A6;
},
{
glyphname = peseta;
layers = (
{
layerId = "3459A980-FF7D-466A-B966-D2EC6A15CC7A";
paths = (
{
closed = 1;
nodes = (
"791.269 565 OFFCURVE",
"1008 819.209 OFFCURVE",
"1008 1011 QCURVE",
"1008 1202.045 OFFCURVE",
"791.269 1456 OFFCURVE",
"545 1456 QCURVE",
"167 1456 LINE",
"167 0 LINE",
"352 0 LINE",
"352 1304 LINE",
"545 1304 LINE",
"718.134 1304 OFFCURVE",
"822 1120.94 OFFCURVE",
"822 1009 QCURVE",
"822 898.552 OFFCURVE",
"718.134 717 OFFCURVE",
"545 717 QCURVE",
"311 717 LINE",
"311 565 LINE",
"545 565 LINE"
);
},
{
closed = 1;
nodes = (
"950 1026 LINE",
"950 884 LINE",
"1554 884 LINE",
"1554 1026 LINE"
);
},
{
closed = 1;
nodes = (
"1147 269 LINE",
"1147 107.06 OFFCURVE",
"1294.761 -20 OFFCURVE",
"1397 -20 QCURVE SMOOTH",
"1445.507 -20 OFFCURVE",
"1554 -6 OFFCURVE",
"1603 12 QCURVE",
"1603 163 LINE",
"1544 141 OFFCURVE",
"1474.134 139 OFFCURVE",
"1451 139 QCURVE SMOOTH",
"1404.731 139 OFFCURVE",
"1332 185.164 OFFCURVE",
"1332 268 QCURVE",
"1332 1345 LINE",
"1147 1345 LINE"
);
}
);
width = 1681;
}
);
unicode = 20A7;
},
{
glyphname = won;
layers = (
{
layerId = "3459A980-FF7D-466A-B966-D2EC6A15CC7A";
paths = (
{
closed = 1;
nodes = (
"336 880 LINE",
"336 885 LINE",
"1472 885 LINE",
"1472 880 LINE",
"1748 882 LINE",
"1748 1019 LINE",
"1472 1017 LINE",
"1472 1007 LINE",
"336 1007 LINE",
"336 1017 LINE",
"48 1017 LINE",
"48 880 LINE"
);
},
{
closed = 1;
nodes = (
"427 520 LINE",
"427 530 LINE",
"1393 530 LINE",
"1393 520 LINE",
"1709 522 LINE",
"1709 659 LINE",
"1393 657 LINE",
"1393 652 LINE",
"427 652 LINE",
"427 657 LINE",
"79 657 LINE",
"79 520 LINE"
);
},
{
closed = 1;
nodes = (
"651 -10 LINE",
"877 1100 LINE SMOOTH",
"898 1228 LINE",
"904 1228 LINE",
"925 1100 LINE",
"1171 -10 LINE",
"1349 -10 LINE",
"1667 1456 LINE",
"1505 1456 LINE",
"1286 378 LINE SMOOTH",
"1268 250 LINE",
"1262 250 LINE",
"1244 378 LINE",
"996 1456 LINE",
"798 1456 LINE",
"580 378 LINE SMOOTH",
"562 250 LINE",
"556 250 LINE",
"538 378 LINE",
"289 1456 LINE",
"115 1456 LINE",
"473 -10 LINE"
);
}
);
width = 1796;
}
);
unicode = 20A9;
},
{
glyphname = dong;
layers = (
{
layerId = "3459A980-FF7D-466A-B966-D2EC6A15CC7A";
paths = (
{
closed = 1;
nodes = (
"15 251 OFFCURVE",
"235 -20 OFFCURVE",
"434 -20 QCURVE SMOOTH",
"525 -20 OFFCURVE",
"680 72 OFFCURVE",
"720 137 QCURVE",
"726 137 LINE",
"734 0 LINE",
"892 0 LINE",
"892 1456 LINE",
"716 1456 LINE",
"716 868 LINE",
"669 925 OFFCURVE",
"525 992 OFFCURVE",
"415 992 QCURVE SMOOTH",
"235 992 OFFCURVE",
"15 714 OFFCURVE",
"15 492 QCURVE SMOOTH",
"15 480 LINE SMOOTH"
);
},
{
closed = 1;
nodes = (
"205 492 LINE SMOOTH",
"205 672 OFFCURVE",
"325 840 OFFCURVE",
"455 840 QCURVE SMOOTH",
"555 840 OFFCURVE",
"685 750 OFFCURVE",
"716 680 QCURVE",
"716 312 LINE",
"685 242 OFFCURVE",
"555 132 OFFCURVE",
"445 132 QCURVE SMOOTH",
"325 132 OFFCURVE",
"205 310 OFFCURVE",
"205 480 QCURVE SMOOTH"
);
},
{
closed = 1;
nodes = (
"1021 1302 LINE",
"305 1302 LINE",
"305 1156 LINE",
"1021 1156 LINE"
);
},
{
closed = 1;
nodes = (
"971 -128 LINE",
"47 -128 LINE",
"47 -266 LINE",
"971 -266 LINE"
);
}
);
width = 1024;
}
);
unicode = 20AB;
},
{
glyphname = Euro;
layers = (
{
layerId = "3459A980-FF7D-466A-B966-D2EC6A15CC7A";
paths = (
{
closed = 1;
nodes = (
"22 987 LINE",
"22 827 LINE",
"807 827 LINE",
"804 987 LINE"
);
},
{
closed = 1;
nodes = (
"22 661 LINE",
"22 502 LINE",
"807 502 LINE",
"807 661 LINE"
);
},
{
closed = 1;
nodes = (
"203 242 OFFCURVE",
"482 -30 OFFCURVE",
"656 -30 QCURVE SMOOTH",
"807 -30 OFFCURVE",
"981 64 OFFCURVE",
"1031 126 QCURVE",
"928 242 LINE",
"891 208 OFFCURVE",
"775 145 OFFCURVE",
"689 145 QCURVE SMOOTH",
"567 145 OFFCURVE",
"382 312 OFFCURVE",
"382 541 QCURVE SMOOTH",
"382 906 LINE SMOOTH",
"382 1142 OFFCURVE",
"554 1306 OFFCURVE",
"668 1306 QCURVE SMOOTH",
"755 1306 OFFCURVE",
"868 1242 OFFCURVE",
"901 1206 QCURVE",
"1018 1337 LINE",
"963 1398 OFFCURVE",
"799 1484 OFFCURVE",
"654 1484 QCURVE SMOOTH",
"470 1484 OFFCURVE",
"203 1242 OFFCURVE",
"203 903 QCURVE SMOOTH",
"203 544 LINE SMOOTH"
);
}
);
width = 1024;
}
);
unicode = 20AC;
},
{
glyphname = florin;
layers = (
{
layerId = "3459A980-FF7D-466A-B966-D2EC6A15CC7A";
paths = (
{
closed = 1;
nodes = (
"555 882 LINE",
"555 1126 LINE SMOOTH",
"555 1224 OFFCURVE",
"642 1320 OFFCURVE",
"712 1320 QCURVE SMOOTH",
"759 1320 OFFCURVE",
"843 1290 OFFCURVE",
"882 1259 QCURVE",
"963 1404 LINE",
"923 1434 OFFCURVE",
"794 1487 OFFCURVE",
"708 1487 QCURVE SMOOTH",
"551 1487 OFFCURVE",
"370 1301 OFFCURVE",
"370 1126 QCURVE SMOOTH",
"370 882 LINE",
"129 882 LINE",
"129 740 LINE",
"370 740 LINE",
"370 111 LINE SMOOTH",
"370 -122 OFFCURVE",
"224 -284 OFFCURVE",
"103 -284 QCURVE SMOOTH",
"89 -284 OFFCURVE",
"20 -277 OFFCURVE",
"5 -271 QCURVE",
"-9 -420 LINE",
"19 -430 OFFCURVE",
"72 -437 OFFCURVE",
"103 -437 QCURVE SMOOTH",
"349 -437 OFFCURVE",
"555 -173 OFFCURVE",
"555 111 QCURVE SMOOTH",
"555 740 LINE",
"868 740 LINE",
"868 882 LINE"
);
}
);
width = 1024;
}
);
unicode = 0192;
},
{
glyphname = uni20AD;
layers = (
{
layerId = "3459A980-FF7D-466A-B966-D2EC6A15CC7A";
paths = (
{
closed = 1;
nodes = (
"475 809 LINE",
"387 708 LINE",
"267 708 LINE",
"267 809 LINE",
"-9 809 LINE",
"-9 661 LINE",
"345 661 LINE",
"381 697 LINE",
"569 697 LINE",
"595 661 LINE",
"1021 661 LINE",
"1021 809 LINE"
);
},
{
closed = 1;
nodes = (
"317 0 LINE",
"317 500 LINE",
"1037 1456 LINE",
"835 1456 LINE",
"317 769 LINE",
"317 1456 LINE",
"130 1456 LINE",
"130 0 LINE"
);
},
{
closed = 1;
nodes = (
"1061 0 LINE",
"557 901 LINE",
"441 756 LINE",
"845 0 LINE"
);
}
);
width = 1024;
}
);
unicode = 20AD;
},
{
glyphname = uni20B1;
layers = (
{
layerId = "3459A980-FF7D-466A-B966-D2EC6A15CC7A";
paths = (
{
closed = 1;
nodes = (
"679 421 OFFCURVE",
"894 725 OFFCURVE",
"894 955 QCURVE SMOOTH",
"894 1203 OFFCURVE",
"680 1456 OFFCURVE",
"445 1456 QCURVE SMOOTH",
"89 1456 LINE",
"89 0 LINE",
"277 0 LINE",
"277 1300 LINE",
"442 1300 LINE SMOOTH",
"596 1300 OFFCURVE",
"708 1131 OFFCURVE",
"708 945 QCURVE SMOOTH",
"708 759 OFFCURVE",
"596 577 OFFCURVE",
"442 577 QCURVE SMOOTH",
"187 577 LINE",
"187 421 LINE",
"444 421 LINE SMOOTH"
);
},
{
closed = 1;
nodes = (
"201 980 LINE",
"201 995 LINE",
"807 995 LINE",
"807 980 LINE",
"1019 982 LINE",
"1019 1139 LINE",
"787 1137 LINE",
"787 1112 LINE",
"201 1112 LINE",
"201 1137 LINE",
"-1 1137 LINE",
"-1 980 LINE"
);
},
{
closed = 1;
nodes = (
"201 710 LINE",
"201 734 LINE",
"767 734 LINE",
"767 710 LINE",
"1019 712 LINE",
"1019 869 LINE",
"807 867 LINE",
"807 852 LINE",
"201 852 LINE",
"201 867 LINE",
"-1 867 LINE",
"-1 710 LINE"
);
}
);
width = 1024;
}
);
unicode = 20B1;
},
{
glyphname = uni20B2;
layers = (
{
layerId = "3459A980-FF7D-466A-B966-D2EC6A15CC7A";
paths = (
{
closed = 1;
nodes = (
"649 -190 LINE",
"649 60 LINE",
"627 70 LINE",
"627 708 LINE",
"497 708 LINE",
"497 71 LINE",
"479 57 LINE",
"479 -190 LINE"
);
},
{
closed = 1;
nodes = (
"627 708 LINE",
"627 1339 LINE",
"642 1352 LINE",
"642 1582 LINE",
"482 1582 LINE",
"482 1352 LINE",
"497 1342 LINE",
"497 708 LINE"
);
},
{
closed = 1;
nodes = (
"696 725 LINE",
"696 569 LINE",
"823 569 LINE",
"823 433 LINE SMOOTH",
"823 299 OFFCURVE",
"672 142 OFFCURVE",
"585 142 QCURVE SMOOTH",
"435 142 OFFCURVE",
"288 359 OFFCURVE",
"288 544 QCURVE SMOOTH",
"288 899 LINE SMOOTH",
"288 1112 OFFCURVE",
"425 1309 OFFCURVE",
"557 1309 QCURVE SMOOTH",
"673 1309 OFFCURVE",
"818 1204 OFFCURVE",
"873 1131 QCURVE",
"989 1265 LINE",
"941 1340 OFFCURVE",
"727 1485 OFFCURVE",
"549 1485 QCURVE SMOOTH",
"350 1485 OFFCURVE",
"94 1196 OFFCURVE",
"94 897 QCURVE SMOOTH",
"94 542 LINE SMOOTH",
"94 288 OFFCURVE",
"350 -5 OFFCURVE",
"571 -5 QCURVE SMOOTH",
"754 -5 OFFCURVE",
"995 259 OFFCURVE",
"995 452 QCURVE SMOOTH",
"995 725 LINE"
);
}
);
width = 1024;
}
);
unicode = 20B2;
},
{
glyphname = uni20B5;
layers = (
{
guideLines = (
{
position = "{0, -125}";
}
);
layerId = "3459A980-FF7D-466A-B966-D2EC6A15CC7A";
paths = (
{
closed = 1;
nodes = (
"643 -190 LINE",
"643 40 LINE",
"631 50 LINE",
"631 708 LINE",
"486 708 LINE",
"486 51 LINE",
"473 37 LINE",
"473 -190 LINE"
);
},
{
closed = 1;
nodes = (
"631 708 LINE",
"631 1359 LINE",
"636 1372 LINE",
"636 1582 LINE",
"476 1582 LINE",
"476 1372 LINE",
"486 1362 LINE",
"486 708 LINE"
);
},
{
closed = 1;
nodes = (
"821 302 OFFCURVE",
"697 122 OFFCURVE",
"579 122 QCURVE SMOOTH",
"429 122 OFFCURVE",
"296 311 OFFCURVE",
"296 464 QCURVE SMOOTH",
"296 1004 LINE SMOOTH",
"296 1150 OFFCURVE",
"419 1329 OFFCURVE",
"566 1329 QCURVE SMOOTH",
"712 1329 OFFCURVE",
"812 1135 OFFCURVE",
"816 1030 QCURVE SMOOTH",
"816 1006 LINE",
"1010 1008 LINE",
"1009 1030 LINE SMOOTH",
"1000 1236 OFFCURVE",
"780 1485 OFFCURVE",
"563 1485 QCURVE SMOOTH",
"344 1485 OFFCURVE",
"102 1216 OFFCURVE",
"102 1002 QCURVE SMOOTH",
"102 462 LINE SMOOTH",
"102 237 OFFCURVE",
"344 -25 OFFCURVE",
"565 -25 QCURVE SMOOTH",
"779 -25 OFFCURVE",
"992 244 OFFCURVE",
"1009 436 QCURVE SMOOTH",
"1010 458 LINE",
"821 460 LINE",
"821 436 LINE SMOOTH"
);
}
);
width = 1024;
}
);
unicode = 20B5;
userData = {
com.typemytype.robofont.guideline.magnetic.1Am3eQoiKr = 5;
};
},
{
glyphname = rupeeIndian;
layers = (
{
layerId = "3459A980-FF7D-466A-B966-D2EC6A15CC7A";
paths = (
{
closed = 1;
nodes = (
"990 934 LINE",
"990 1089 LINE",
"19 1089 LINE",
"19 934 LINE"
);
},
{
closed = 1;
nodes = (
"1009 0 LINE",
"839 317 LINE SMOOTH",
"762 461 OFFCURVE",
"569 619 OFFCURVE",
"475 642 QCURVE",
"661 663 OFFCURVE",
"838 831 OFFCURVE",
"838 1019 QCURVE SMOOTH",
"838 1112 OFFCURVE",
"746 1272 OFFCURVE",
"689 1300 QCURVE",
"687 1308 LINE",
"764 1300 LINE",
"999 1300 LINE",
"999 1456 LINE",
"19 1456 LINE",
"19 1299 LINE",
"321 1299 LINE SMOOTH",
"492 1299 OFFCURVE",
"653 1145 OFFCURVE",
"653 1019 QCURVE SMOOTH",
"653 885 OFFCURVE",
"498 732 OFFCURVE",
"307 732 QCURVE SMOOTH",
"19 732 LINE",
"19 579 LINE",
"132 574 LINE SMOOTH",
"322 566 OFFCURVE",
"566 439 OFFCURVE",
"660 267 QCURVE SMOOTH",
"806 0 LINE"
);
}
);
width = 1024;
}
);
unicode = 20B9;
},
{
glyphname = liraTurkish;
layers = (
{
layerId = "3459A980-FF7D-466A-B966-D2EC6A15CC7A";
paths = (
{
closed = 1;
nodes = (
"6 502 LINE",
"856 876 LINE",
"850 709 LINE",
"6 334 LINE"
);
},
{
closed = 1;
nodes = (
"180 1456 LINE",
"362 1456 LINE",
"362 153 LINE",
"439 153 LINE SMOOTH",
"647 153 OFFCURVE",
"839 363 OFFCURVE",
"835 521 QCURVE SMOOTH",
"835 558 LINE",
"1015 558 LINE",
"1015 523 LINE SMOOTH",
"1015 298 OFFCURVE",
"727 -5 OFFCURVE",
"402 -2 QCURVE SMOOTH",
"180 0 LINE"
);
},
{
closed = 1;
nodes = (
"6 862 LINE",
"856 1236 LINE",
"850 1069 LINE",
"6 694 LINE"
);
}
);
width = 1024;
}
);
unicode = 20BA;
},
{
glyphname = manat;
layers = (
{
layerId = "3459A980-FF7D-466A-B966-D2EC6A15CC7A";
paths = (
{
closed = 1;
nodes = (
"1062 1166 OFFCURVE",
"775 1416 OFFCURVE",
"565 1416 QCURVE SMOOTH",
"356 1416 OFFCURVE",
"71 1166 OFFCURVE",
"68 916 QCURVE SMOOTH",
"68 0 LINE",
"250 0 LINE",
"250 916 LINE SMOOTH",
"250 1086 OFFCURVE",
"426 1252 OFFCURVE",
"565 1252 QCURVE SMOOTH",
"704 1252 OFFCURVE",
"878 1086 OFFCURVE",
"880 916 QCURVE SMOOTH",
"880 0 LINE",
"1062 0 LINE",
"1062 916 LINE SMOOTH"
);
},
{
closed = 1;
nodes = (
"645 1582 LINE",
"485 1582 LINE",
"485 0 LINE",
"645 0 LINE"
);
}
);
width = 1130;
}
);
unicode = 20BC;
},
{
glyphname = ruble;
layers = (
{
layerId = "3459A980-FF7D-466A-B966-D2EC6A15CC7A";
paths = (
{
closed = 1;
nodes = (
"772 611 OFFCURVE",
"1034 835 OFFCURVE",
"1034 1035 QCURVE SMOOTH",
"1034 1217 OFFCURVE",
"772 1456 OFFCURVE",
"526 1456 QCURVE SMOOTH",
"188 1456 LINE",
"188 0 LINE",
"367 0 LINE",
"367 1298 LINE",
"526 1298 LINE SMOOTH",
"695 1298 OFFCURVE",
"842 1138 OFFCURVE",
"842 1033 QCURVE SMOOTH",
"842 913 OFFCURVE",
"689 768 OFFCURVE",
"526 768 QCURVE SMOOTH",
"30 768 LINE",
"30 611 LINE",
"526 611 LINE SMOOTH"
);
},
{
closed = 1;
nodes = (
"30 424 LINE",
"30 266 LINE",
"754 266 LINE",
"754 424 LINE"
);
}
);
width = 1024;
}
);
unicode = 20BD;
},
{
glyphname = trademark;
layers = (
{
layerId = "3459A980-FF7D-466A-B966-D2EC6A15CC7A";
paths = (
{
closed = 1;
nodes = (
"292 1288 LINE",
"292 690 LINE",
"464 690 LINE",
"464 1288 LINE",
"732 1288 LINE",
"732 1446 LINE",
"24 1446 LINE",
"24 1288 LINE"
);
},
{
closed = 1;
nodes = (
"1005 690 LINE",
"1005 1165 LINE",
"1017 1165 LINE",
"1213 690 LINE",
"1349 690 LINE",
"1555 1165 LINE",
"1567 1165 LINE",
"1567 690 LINE",
"1716 690 LINE",
"1716 1446 LINE",
"1545 1446 LINE",
"1285 866 LINE",
"1277 866 LINE",
"1021 1446 LINE",
"850 1446 LINE",
"850 690 LINE"
);
}
);
width = 1881;
}
);
unicode = 2122;
},
{
glyphname = diagonalbarL;
layers = (
{
layerId = "3459A980-FF7D-466A-B966-D2EC6A15CC7A";
paths = (
{
closed = 1;
nodes = (
"745 860 LINE",
"664 995 LINE",
"0 584 LINE",
"80 446 LINE"
);
}
);
width = 741;
}
);
},
{
glyphname = diagonalbarO;
layers = (
{
layerId = "3459A980-FF7D-466A-B966-D2EC6A15CC7A";
paths = (
{
closed = 1;
nodes = (
"173 -109 LINE",
"216 50 LINE",
"196 54 LINE",
"389 803 LINE",
"281 871 LINE",
"75 81 LINE",
"57 86 LINE",
"3 -109 LINE"
);
},
{
closed = 1;
nodes = (
"409 1460 LINE",
"429 1455 LINE",
"281 871 LINE",
"389 803 LINE",
"549 1428 LINE",
"570 1424 LINE",
"623 1618 LINE",
"452 1618 LINE"
);
}
);
width = 623;
}
);
},
{
glyphname = diagonalbarl;
layers = (
{
layerId = "3459A980-FF7D-466A-B966-D2EC6A15CC7A";
paths = (
{
closed = 1;
nodes = (
"350 690 LINE",
"620 884 LINE",
"540 1026 LINE",
"275 807 LINE",
"0 614 LINE",
"84 469 LINE"
);
}
);
width = 629;
}
);
},
{
glyphname = diagonalbaro;
layers = (
{
layerId = "3459A980-FF7D-466A-B966-D2EC6A15CC7A";
paths = (
{
closed = 1;
nodes = (
"165 -125 LINE",
"216 50 LINE",
"196 54 LINE",
"319 515 LINE",
"211 583 LINE",
"75 81 LINE",
"57 86 LINE",
"0 -122 LINE"
);
},
{
closed = 1;
nodes = (
"298 987 LINE",
"318 982 LINE",
"211 583 LINE",
"319 515 LINE",
"438 955 LINE",
"459 951 LINE",
"512 1145 LINE",
"341 1145 LINE"
);
}
);
width = 512;
}
);
},
{
glyphname = engtail;
layers = (
{
layerId = "3459A980-FF7D-466A-B966-D2EC6A15CC7A";
paths = (
{
closed = 1;
nodes = (
"522 190 LINE",
"522 -195 LINE SMOOTH",
"522 -295 OFFCURVE",
"401 -443 OFFCURVE",
"269 -443 QCURVE SMOOTH",
"197 -443 OFFCURVE",
"67 -381 OFFCURVE",
"27 -329 QCURVE",
"90 -254 LINE",
"132 -295 OFFCURVE",
"207 -325 OFFCURVE",
"248 -325 QCURVE SMOOTH",
"292 -325 OFFCURVE",
"356 -265 OFFCURVE",
"356 -165 QCURVE SMOOTH",
"356 -86 OFFCURVE",
"356 150 OFFCURVE",
"356 150 QCURVE",
"419 190 LINE"
);
}
);
width = 629;
}
);
},
{
glyphname = horizontalbarH;
layers = (
{
layerId = "3459A980-FF7D-466A-B966-D2EC6A15CC7A";
paths = (
{
closed = 1;
nodes = (
"1452 1164 LINE",
"1220 1162 LINE",
"1220 1025 LINE",
"1442 1027 LINE"
);
},
{
closed = 1;
nodes = (
"245 1025 LINE",
"245 1162 LINE",
"6 1162 LINE",
"15 1025 LINE"
);
},
{
closed = 1;
nodes = (
"1220 1035 LINE",
"1220 1152 LINE",
"245 1152 LINE",
"245 1035 LINE"
);
}
);
width = 1458;
}
);
},
{
glyphname = horizontalbarlc;
layers = (
{
layerId = "3459A980-FF7D-466A-B966-D2EC6A15CC7A";
paths = (
{
closed = 1;
nodes = (
"636 656 LINE",
"636 782 LINE",
"351 782 LINE",
"40 782 LINE",
"29 656 LINE",
"311 656 LINE"
);
}
);
width = 636;
}
);
},
{
glyphname = idotless;
layers = (
{
anchors = (
{
name = bottom;
position = "{249, 10}";
},
{
name = parent_top;
position = "{252, 1288}";
},
{
name = rhotichook;
position = "{277, 654}";
},
{
name = top;
position = "{252, 1288}";
},
{
name = top0315;
position = "{507, 1288}";
}
);
layerId = "3459A980-FF7D-466A-B966-D2EC6A15CC7A";
paths = (
{
closed = 1;
nodes = (
"343 0 LINE",
"343 1052 LINE",
"157 1052 LINE",
"157 0 LINE"
);
}
);
width = 500;
}
);
},
{
glyphname = jdotless;
layers = (
{
layerId = "3459A980-FF7D-466A-B966-D2EC6A15CC7A";
paths = (
{
closed = 1;
nodes = (
"-69 -419 OFFCURVE",
"30 -436 OFFCURVE",
"70 -436 QCURVE SMOOTH",
"204 -436 OFFCURVE",
"343 -270 OFFCURVE",
"343 -90 QCURVE SMOOTH",
"343 1052 LINE",
"157 1052 LINE",
"157 -130 LINE SMOOTH",
"157 -210 OFFCURVE",
"90 -280 OFFCURVE",
"30 -280 QCURVE SMOOTH",
"0 -280 OFFCURVE",
"-74 -266 OFFCURVE",
"-94 -260 QCURVE",
"-94 -410 LINE"
);
}
);
width = 500;
}
);
},
{
glyphname = zerosuperior;
layers = (
{
layerId = "3459A980-FF7D-466A-B966-D2EC6A15CC7A";
paths = (
{
closed = 1;
nodes = (
"67 876 OFFCURVE",
"233 680 OFFCURVE",
"393 680 QCURVE SMOOTH",
"553 680 OFFCURVE",
"720 876 OFFCURVE",
"720 1036 QCURVE SMOOTH",
"720 1140 LINE SMOOTH",
"720 1300 OFFCURVE",
"553 1496 OFFCURVE",
"393 1496 QCURVE SMOOTH",
"233 1496 OFFCURVE",
"67 1300 OFFCURVE",
"67 1140 QCURVE SMOOTH",
"67 1036 LINE SMOOTH"
);
},
{
closed = 1;
nodes = (
"231 1140 LINE SMOOTH",
"231 1230 OFFCURVE",
"303 1346 OFFCURVE",
"393 1346 QCURVE SMOOTH",
"483 1346 OFFCURVE",
"556 1230 OFFCURVE",
"556 1140 QCURVE SMOOTH",
"556 1036 LINE SMOOTH",
"556 946 OFFCURVE",
"483 830 OFFCURVE",
"393 830 QCURVE SMOOTH",
"303 830 OFFCURVE",
"231 946 OFFCURVE",
"231 1036 QCURVE SMOOTH"
);
}
);
width = 787;
}
);
},
{
glyphname = f_f;
layers = (
{
layerId = "3459A980-FF7D-466A-B966-D2EC6A15CC7A";
paths = (
{
closed = 1;
nodes = (
"382 0 LINE",
"382 970 LINE",
"382 992 LINE",
"382 1200 LINE SMOOTH",
"382 1300 OFFCURVE",
"480 1400 OFFCURVE",
"570 1400 QCURVE SMOOTH",
"596 1400 OFFCURVE",
"646 1394 OFFCURVE",
"668 1390 QCURVE",
"678 1540 LINE",
"648 1548 OFFCURVE",
"582 1556 OFFCURVE",
"550 1556 QCURVE SMOOTH",
"386 1556 OFFCURVE",
"196 1374 OFFCURVE",
"196 1200 QCURVE SMOOTH",
"196 0 LINE"
);
},
{
closed = 1;
nodes = (
"610 910 LINE",
"610 1052 LINE",
"312 1052 LINE",
"266 1052 LINE",
"25 1052 LINE",
"25 910 LINE"
);
},
{
closed = 1;
nodes = (
"982 0 LINE",
"982 970 LINE",
"982 992 LINE",
"982 1200 LINE SMOOTH",
"982 1300 OFFCURVE",
"1080 1400 OFFCURVE",
"1170 1400 QCURVE SMOOTH",
"1196 1400 OFFCURVE",
"1246 1394 OFFCURVE",
"1268 1390 QCURVE",
"1278 1540 LINE",
"1248 1548 OFFCURVE",
"1182 1556 OFFCURVE",
"1150 1556 QCURVE SMOOTH",
"986 1556 OFFCURVE",
"796 1374 OFFCURVE",
"796 1200 QCURVE SMOOTH",
"796 0 LINE"
);
},
{
closed = 1;
nodes = (
"1210 910 LINE",
"1210 1052 LINE",
"912 1052 LINE",
"866 1052 LINE",
"625 1052 LINE",
"625 910 LINE"
);
}
);
width = 1200;
}
);
unicode = FB00;
},
{
glyphname = fi;
layers = (
{
layerId = "3459A980-FF7D-466A-B966-D2EC6A15CC7A";
paths = (
{
closed = 1;
nodes = (
"382 0 LINE",
"382 970 LINE",
"382 992 LINE",
"382 1200 LINE SMOOTH",
"382 1300 OFFCURVE",
"480 1400 OFFCURVE",
"570 1400 QCURVE SMOOTH",
"596 1400 OFFCURVE",
"646 1394 OFFCURVE",
"668 1390 QCURVE",
"678 1540 LINE",
"648 1548 OFFCURVE",
"582 1556 OFFCURVE",
"550 1556 QCURVE SMOOTH",
"386 1556 OFFCURVE",
"196 1374 OFFCURVE",
"196 1200 QCURVE SMOOTH",
"196 0 LINE"
);
},
{
closed = 1;
nodes = (
"610 910 LINE",
"610 1052 LINE",
"312 1052 LINE",
"266 1052 LINE",
"25 1052 LINE",
"25 910 LINE"
);
},
{
closed = 1;
nodes = (
"927 0 LINE",
"927 1052 LINE",
"741 1052 LINE",
"741 0 LINE"
);
},
{
closed = 1;
nodes = (
"724 1325 OFFCURVE",
"781 1264 OFFCURVE",
"834 1264 QCURVE SMOOTH",
"887 1264 OFFCURVE",
"944 1325 OFFCURVE",
"944 1370 QCURVE SMOOTH",
"944 1415 OFFCURVE",
"887 1476 OFFCURVE",
"834 1476 QCURVE SMOOTH",
"781 1476 OFFCURVE",
"724 1415 OFFCURVE",
"724 1370 QCURVE SMOOTH"
);
}
);
width = 1100;
}
);
unicode = FB01;
},
{
glyphname = fl;
layers = (
{
layerId = "3459A980-FF7D-466A-B966-D2EC6A15CC7A";
paths = (
{
closed = 1;
nodes = (
"382 0 LINE",
"382 970 LINE",
"382 992 LINE",
"382 1200 LINE SMOOTH",
"382 1300 OFFCURVE",
"480 1400 OFFCURVE",
"570 1400 QCURVE SMOOTH",
"596 1400 OFFCURVE",
"646 1394 OFFCURVE",
"668 1390 QCURVE",
"678 1540 LINE",
"648 1548 OFFCURVE",
"582 1556 OFFCURVE",
"550 1556 QCURVE SMOOTH",
"386 1556 OFFCURVE",
"196 1374 OFFCURVE",
"196 1200 QCURVE SMOOTH",
"196 0 LINE"
);
},
{
closed = 1;
nodes = (
"610 910 LINE",
"610 1052 LINE",
"312 1052 LINE",
"266 1052 LINE",
"25 1052 LINE",
"25 910 LINE"
);
},
{
closed = 1;
nodes = (
"942 0 LINE",
"942 1536 LINE",
"756 1536 LINE",
"756 0 LINE"
);
}
);
width = 1098;
}
);
unicode = FB02;
},
{
glyphname = f_f_i;
layers = (
{
layerId = "3459A980-FF7D-466A-B966-D2EC6A15CC7A";
paths = (
{
closed = 1;
nodes = (
"382 0 LINE",
"382 970 LINE",
"382 992 LINE",
"382 1200 LINE SMOOTH",
"382 1300 OFFCURVE",
"480 1400 OFFCURVE",
"570 1400 QCURVE SMOOTH",
"596 1400 OFFCURVE",
"646 1394 OFFCURVE",
"668 1390 QCURVE",
"678 1540 LINE",
"648 1548 OFFCURVE",
"582 1556 OFFCURVE",
"550 1556 QCURVE SMOOTH",
"386 1556 OFFCURVE",
"196 1374 OFFCURVE",
"196 1200 QCURVE SMOOTH",
"196 0 LINE"
);
},
{
closed = 1;
nodes = (
"610 910 LINE",
"610 1052 LINE",
"312 1052 LINE",
"266 1052 LINE",
"25 1052 LINE",
"25 910 LINE"
);
},
{
closed = 1;
nodes = (
"982 0 LINE",
"982 970 LINE",
"982 992 LINE",
"982 1200 LINE SMOOTH",
"982 1300 OFFCURVE",
"1080 1400 OFFCURVE",
"1170 1400 QCURVE SMOOTH",
"1196 1400 OFFCURVE",
"1246 1394 OFFCURVE",
"1268 1390 QCURVE",
"1278 1540 LINE",
"1248 1548 OFFCURVE",
"1182 1556 OFFCURVE",
"1150 1556 QCURVE SMOOTH",
"986 1556 OFFCURVE",
"796 1374 OFFCURVE",
"796 1200 QCURVE SMOOTH",
"796 0 LINE"
);
},
{
closed = 1;
nodes = (
"1210 910 LINE",
"1210 1052 LINE",
"912 1052 LINE",
"866 1052 LINE",
"625 1052 LINE",
"625 910 LINE"
);
},
{
closed = 1;
nodes = (
"1543 0 LINE",
"1543 1052 LINE",
"1357 1052 LINE",
"1357 0 LINE"
);
},
{
closed = 1;
nodes = (
"1340 1325 OFFCURVE",
"1397 1264 OFFCURVE",
"1450 1264 QCURVE SMOOTH",
"1503 1264 OFFCURVE",
"1560 1325 OFFCURVE",
"1560 1370 QCURVE SMOOTH",
"1560 1415 OFFCURVE",
"1503 1476 OFFCURVE",
"1450 1476 QCURVE SMOOTH",
"1397 1476 OFFCURVE",
"1340 1415 OFFCURVE",
"1340 1370 QCURVE SMOOTH"
);
}
);
width = 1700;
}
);
unicode = FB03;
},
{
glyphname = f_f_l;
layers = (
{
layerId = "3459A980-FF7D-466A-B966-D2EC6A15CC7A";
paths = (
{
closed = 1;
nodes = (
"382 0 LINE",
"382 970 LINE",
"382 992 LINE",
"382 1200 LINE SMOOTH",
"382 1300 OFFCURVE",
"480 1400 OFFCURVE",
"570 1400 QCURVE SMOOTH",
"596 1400 OFFCURVE",
"646 1394 OFFCURVE",
"668 1390 QCURVE",
"678 1540 LINE",
"648 1548 OFFCURVE",
"582 1556 OFFCURVE",
"550 1556 QCURVE SMOOTH",
"386 1556 OFFCURVE",
"196 1374 OFFCURVE",
"196 1200 QCURVE SMOOTH",
"196 0 LINE"
);
},
{
closed = 1;
nodes = (
"610 910 LINE",
"610 1052 LINE",
"312 1052 LINE",
"266 1052 LINE",
"25 1052 LINE",
"25 910 LINE"
);
},
{
closed = 1;
nodes = (
"982 0 LINE",
"982 970 LINE",
"982 992 LINE",
"982 1200 LINE SMOOTH",
"982 1300 OFFCURVE",
"1080 1400 OFFCURVE",
"1170 1400 QCURVE SMOOTH",
"1196 1400 OFFCURVE",
"1246 1394 OFFCURVE",
"1268 1390 QCURVE",
"1278 1540 LINE",
"1248 1548 OFFCURVE",
"1182 1556 OFFCURVE",
"1150 1556 QCURVE SMOOTH",
"986 1556 OFFCURVE",
"796 1374 OFFCURVE",
"796 1200 QCURVE SMOOTH",
"796 0 LINE"
);
},
{
closed = 1;
nodes = (
"1210 910 LINE",
"1210 1052 LINE",
"912 1052 LINE",
"866 1052 LINE",
"625 1052 LINE",
"625 910 LINE"
);
},
{
closed = 1;
nodes = (
"1544 0 LINE",
"1544 1536 LINE",
"1358 1536 LINE",
"1358 0 LINE"
);
}
);
width = 1700;
}
);
unicode = FB04;
},
{
glyphname = gravecomb.case;
layers = (
{
layerId = "3459A980-FF7D-466A-B966-D2EC6A15CC7A";
paths = (
{
closed = 1;
nodes = (
"620 1598 LINE",
"386 1962 LINE",
"163 1962 LINE",
"461 1598 LINE"
);
}
);
width = 1024;
}
);
},
{
glyphname = acutecomb.case;
layers = (
{
layerId = "3459A980-FF7D-466A-B966-D2EC6A15CC7A";
paths = (
{
closed = 1;
nodes = (
"527 1587 LINE",
"830 1964 LINE",
"602 1964 LINE",
"371 1587 LINE"
);
}
);
width = 1024;
}
);
},
{
glyphname = circumflexcomb.case;
layers = (
{
layerId = "3459A980-FF7D-466A-B966-D2EC6A15CC7A";
paths = (
{
closed = 1;
nodes = (
"838 1635 LINE",
"671 1633 LINE",
"505 1817 LINE",
"345 1635 LINE",
"172 1635 LINE",
"429 1975 LINE",
"573 1975 LINE"
);
}
);
width = 1024;
}
);
},
{
glyphname = tildecomb.case;
layers = (
{
layerId = "3459A980-FF7D-466A-B966-D2EC6A15CC7A";
paths = (
{
closed = 1;
nodes = (
"142 1831 OFFCURVE",
"293 1944 OFFCURVE",
"370 1944 QCURVE SMOOTH",
"416 1944 OFFCURVE",
"498 1914 OFFCURVE",
"540 1886 QCURVE SMOOTH",
"570 1868 OFFCURVE",
"667 1812 OFFCURVE",
"714 1812 QCURVE SMOOTH",
"760 1812 OFFCURVE",
"845 1869 OFFCURVE",
"871 1908 QCURVE",
"939 1823 LINE",
"897 1741 OFFCURVE",
"758 1652 OFFCURVE",
"695 1652 QCURVE SMOOTH",
"642 1652 OFFCURVE",
"535 1701 OFFCURVE",
"503 1723 QCURVE SMOOTH",
"467 1748 OFFCURVE",
"384 1786 OFFCURVE",
"351 1786 QCURVE SMOOTH",
"298 1786 OFFCURVE",
"200 1707 OFFCURVE",
"180 1677 QCURVE",
"105 1762 LINE"
);
}
);
width = 1024;
}
);
},
{
glyphname = macroncomb.case;
layers = (
{
layerId = "3459A980-FF7D-466A-B966-D2EC6A15CC7A";
paths = (
{
closed = 1;
nodes = (
"216 1830 LINE",
"808 1830 LINE",
"808 1674 LINE",
"216 1674 LINE"
);
}
);
width = 1024;
}
);
},
{
glyphname = brevecomb.case;
layers = (
{
layerId = "3459A980-FF7D-466A-B966-D2EC6A15CC7A";
paths = (
{
closed = 1;
nodes = (
"896 1906 LINE",
"857 1807 OFFCURVE",
"656 1640 OFFCURVE",
"512 1640 QCURVE SMOOTH",
"384 1640 OFFCURVE",
"177 1793 OFFCURVE",
"129 1907 QCURVE",
"229 1976 LINE",
"272 1913 OFFCURVE",
"417 1809 OFFCURVE",
"512 1809 QCURVE SMOOTH",
"614 1809 OFFCURVE",
"760 1908 OFFCURVE",
"803 1976 QCURVE"
);
}
);
width = 1024;
}
);
},
{
glyphname = dotaccentcomb.case;
layers = (
{
layerId = "3459A980-FF7D-466A-B966-D2EC6A15CC7A";
paths = (
{
closed = 1;
nodes = (
"391 1849 OFFCURVE",
"453 1910 OFFCURVE",
"512 1910 QCURVE SMOOTH",
"567 1910 OFFCURVE",
"633 1845 OFFCURVE",
"633 1792 QCURVE SMOOTH",
"633 1735 OFFCURVE",
"571 1674 OFFCURVE",
"512 1674 QCURVE SMOOTH",
"457 1674 OFFCURVE",
"391 1739 OFFCURVE",
"391 1792 QCURVE SMOOTH"
);
}
);
width = 1024;
}
);
},
{
glyphname = dieresiscomb.case;
layers = (
{
layerId = "3459A980-FF7D-466A-B966-D2EC6A15CC7A";
paths = (
{
closed = 1;
nodes = (
"166 1842 OFFCURVE",
"226 1901 OFFCURVE",
"282 1901 QCURVE SMOOTH",
"335 1901 OFFCURVE",
"398 1838 OFFCURVE",
"398 1787 QCURVE SMOOTH",
"398 1733 OFFCURVE",
"339 1674 OFFCURVE",
"282 1674 QCURVE SMOOTH",
"229 1674 OFFCURVE",
"166 1736 OFFCURVE",
"166 1787 QCURVE SMOOTH"
);
},
{
closed = 1;
nodes = (
"626 1842 OFFCURVE",
"686 1901 OFFCURVE",
"742 1901 QCURVE SMOOTH",
"795 1901 OFFCURVE",
"858 1838 OFFCURVE",
"858 1787 QCURVE SMOOTH",
"858 1733 OFFCURVE",
"799 1674 OFFCURVE",
"742 1674 QCURVE SMOOTH",
"689 1674 OFFCURVE",
"626 1736 OFFCURVE",
"626 1787 QCURVE SMOOTH"
);
}
);
width = 1024;
}
);
},
{
glyphname = hookabovecomb.case;
layers = (
{
layerId = "3459A980-FF7D-466A-B966-D2EC6A15CC7A";
paths = (
{
closed = 1;
nodes = (
"374 1698 LINE",
"442 1793 LINE",
"458 1786 OFFCURVE",
"508 1779 OFFCURVE",
"529 1779 QCURVE SMOOTH",
"581 1779 OFFCURVE",
"625 1824 OFFCURVE",
"625 1869 QCURVE SMOOTH",
"625 1913 OFFCURVE",
"554 1965 OFFCURVE",
"510 1965 QCURVE SMOOTH",
"446 1965 OFFCURVE",
"327 1942 OFFCURVE",
"289 1924 QCURVE",
"237 2033 LINE",
"297 2068 OFFCURVE",
"456 2089 OFFCURVE",
"523 2089 QCURVE SMOOTH",
"643 2089 OFFCURVE",
"788 1975 OFFCURVE",
"788 1870 QCURVE SMOOTH",
"788 1778 OFFCURVE",
"677 1662 OFFCURVE",
"601 1662 QCURVE SMOOTH",
"571 1662 OFFCURVE",
"513 1671 OFFCURVE",
"497 1675 QCURVE",
"497 1557 LINE",
"374 1557 LINE"
);
}
);
width = 1024;
}
);
},
{
glyphname = ringcomb.case;
layers = (
{
layerId = "3459A980-FF7D-466A-B966-D2EC6A15CC7A";
paths = (
{
closed = 1;
nodes = (
"273 1722 OFFCURVE",
"408 1593 OFFCURVE",
"512 1593 QCURVE",
"616 1593 OFFCURVE",
"751 1722 OFFCURVE",
"751 1822 QCURVE SMOOTH",
"751 1922 OFFCURVE",
"616 2051 OFFCURVE",
"512 2051 QCURVE SMOOTH",
"408 2051 OFFCURVE",
"273 1922 OFFCURVE",
"273 1822 QCURVE SMOOTH"
);
},
{
closed = 1;
nodes = (
"399 1877 OFFCURVE",
"457 1935 OFFCURVE",
"512 1935 QCURVE SMOOTH",
"564 1935 OFFCURVE",
"625 1873 OFFCURVE",
"625 1822 QCURVE SMOOTH",
"625 1767 OFFCURVE",
"567 1709 OFFCURVE",
"512 1709 QCURVE SMOOTH",
"460 1709 OFFCURVE",
"399 1771 OFFCURVE",
"399 1822 QCURVE SMOOTH"
);
}
);
width = 1024;
}
);
},
{
glyphname = caroncomb.case;
layers = (
{
layerId = "3459A980-FF7D-466A-B966-D2EC6A15CC7A";
paths = (
{
closed = 1;
nodes = (
"172 1973 LINE",
"339 1975 LINE",
"505 1791 LINE",
"665 1973 LINE",
"838 1973 LINE",
"581 1633 LINE",
"437 1633 LINE"
);
}
);
width = 1024;
}
);
},
{
glyphname = breveinvertedcomb.case;
layers = (
{
layerId = "3459A980-FF7D-466A-B966-D2EC6A15CC7A";
paths = (
{
closed = 1;
nodes = (
"129 1683 LINE",
"168 1782 OFFCURVE",
"369 1949 OFFCURVE",
"513 1949 QCURVE SMOOTH",
"641 1949 OFFCURVE",
"848 1796 OFFCURVE",
"896 1682 QCURVE",
"796 1613 LINE",
"753 1676 OFFCURVE",
"608 1780 OFFCURVE",
"513 1780 QCURVE SMOOTH",
"411 1780 OFFCURVE",
"265 1681 OFFCURVE",
"222 1613 QCURVE"
);
}
);
width = 1024;
}
);
},
{
glyphname = horncomb.case;
layers = (
{
layerId = "3459A980-FF7D-466A-B966-D2EC6A15CC7A";
paths = (
{
closed = 1;
nodes = (
"290 1342 LINE",
"344 1322 OFFCURVE",
"450 1304 OFFCURVE",
"490 1304 QCURVE SMOOTH",
"591 1304 OFFCURVE",
"734 1399 OFFCURVE",
"734 1494 QCURVE SMOOTH",
"734 1571 OFFCURVE",
"702 1671 OFFCURVE",
"676 1730 QCURVE",
"536 1730 LINE",
"546 1661 OFFCURVE",
"553 1585 OFFCURVE",
"553 1530 QCURVE SMOOTH",
"553 1487 OFFCURVE",
"496 1439 OFFCURVE",
"448 1439 QCURVE SMOOTH",
"408 1439 OFFCURVE",
"330 1450 OFFCURVE",
"290 1460 QCURVE"
);
}
);
width = 1024;
}
);
},
{
glyphname = commaaccentcomb.case;
layers = (
{
layerId = "3459A980-FF7D-466A-B966-D2EC6A15CC7A";
paths = (
{
closed = 1;
nodes = (
"385 -529 OFFCURVE",
"490 -414 OFFCURVE",
"504 -354 QCURVE",
"445 -353 OFFCURVE",
"368 -281 OFFCURVE",
"368 -224 QCURVE SMOOTH",
"368 -168 OFFCURVE",
"446 -86 OFFCURVE",
"507 -86 QCURVE SMOOTH",
"564 -86 OFFCURVE",
"646 -159 OFFCURVE",
"646 -233 QCURVE SMOOTH",
"646 -350 OFFCURVE",
"493 -562 OFFCURVE",
"398 -621 QCURVE",
"345 -559 LINE"
);
}
);
width = 1024;
}
);
},
{
glyphname = cedillacomb.case;
layers = (
{
layerId = "3459A980-FF7D-466A-B966-D2EC6A15CC7A";
paths = (
{
closed = 1;
nodes = (
"467 51 LINE",
"358 -160 LINE",
"417 -240 LINE",
"434 -234 OFFCURVE",
"483 -226 OFFCURVE",
"514 -226 QCURVE SMOOTH",
"566 -226 OFFCURVE",
"625 -271 OFFCURVE",
"625 -316 QCURVE SMOOTH",
"625 -360 OFFCURVE",
"554 -412 OFFCURVE",
"510 -412 QCURVE SMOOTH",
"446 -412 OFFCURVE",
"321 -364 OFFCURVE",
"289 -341 QCURVE",
"237 -450 LINE",
"296 -498 OFFCURVE",
"456 -536 OFFCURVE",
"545 -536 QCURVE SMOOTH",
"643 -536 OFFCURVE",
"788 -422 OFFCURVE",
"788 -317 QCURVE SMOOTH",
"788 -225 OFFCURVE",
"677 -126 OFFCURVE",
"601 -126 QCURVE SMOOTH",
"571 -126 OFFCURVE",
"513 -135 OFFCURVE",
"497 -139 QCURVE",
"563 -4 LINE"
);
}
);
width = 1024;
}
);
},
{
glyphname = ogonekcomb.case;
layers = (
{
layerId = "3459A980-FF7D-466A-B966-D2EC6A15CC7A";
paths = (
{
closed = 1;
nodes = (
"221 -384 OFFCURVE",
"373 -497 OFFCURVE",
"478 -497 QCURVE SMOOTH",
"582 -497 OFFCURVE",
"758 -418 OFFCURVE",
"803 -357 QCURVE",
"746 -254 LINE",
"684 -301 OFFCURVE",
"552 -347 OFFCURVE",
"505 -347 QCURVE SMOOTH",
"453 -347 OFFCURVE",
"393 -292 OFFCURVE",
"393 -244 QCURVE SMOOTH",
"393 -199 OFFCURVE",
"456 -104 OFFCURVE",
"520 -42 QCURVE SMOOTH",
"563 0 LINE",
"468 51 LINE",
"411 7 LINE SMOOTH",
"349 -41 OFFCURVE",
"221 -217 OFFCURVE",
"221 -306 QCURVE SMOOTH"
);
}
);
width = 1024;
}
);
},
{
glyphname = acutecombstack.case;
layers = (
{
layerId = "3459A980-FF7D-466A-B966-D2EC6A15CC7A";
paths = (
{
closed = 1;
nodes = (
"341 1591 LINE",
"837 1721 LINE",
"721 1885 LINE",
"283 1714 LINE"
);
}
);
width = 1024;
}
);
},
{
glyphname = brevecombstack.case;
layers = (
{
layerId = "3459A980-FF7D-466A-B966-D2EC6A15CC7A";
paths = (
{
closed = 1;
nodes = (
"877 1844 LINE",
"840 1757 OFFCURVE",
"649 1610 OFFCURVE",
"512 1610 QCURVE SMOOTH",
"390 1610 OFFCURVE",
"194 1745 OFFCURVE",
"148 1845 QCURVE",
"258 1910 LINE",
"297 1856 OFFCURVE",
"427 1769 OFFCURVE",
"512 1769 QCURVE SMOOTH",
"604 1769 OFFCURVE",
"735 1852 OFFCURVE",
"774 1910 QCURVE"
);
}
);
width = 1024;
}
);
},
{
glyphname = circumflexcombstack.case;
layers = (
{
layerId = "3459A980-FF7D-466A-B966-D2EC6A15CC7A";
paths = (
{
closed = 1;
nodes = (
"838 1585 LINE",
"676 1583 LINE",
"505 1722 LINE",
"340 1585 LINE",
"172 1585 LINE",
"429 1875 LINE",
"573 1875 LINE"
);
}
);
width = 1024;
}
);
},
{
glyphname = dieresiscombstack.case;
layers = (
{
layerId = "3459A980-FF7D-466A-B966-D2EC6A15CC7A";
paths = (
{
closed = 1;
nodes = (
"166 1782 OFFCURVE",
"226 1841 OFFCURVE",
"282 1841 QCURVE SMOOTH",
"335 1841 OFFCURVE",
"398 1778 OFFCURVE",
"398 1727 QCURVE SMOOTH",
"398 1673 OFFCURVE",
"339 1614 OFFCURVE",
"282 1614 QCURVE SMOOTH",
"229 1614 OFFCURVE",
"166 1676 OFFCURVE",
"166 1727 QCURVE SMOOTH"
);
},
{
closed = 1;
nodes = (
"626 1782 OFFCURVE",
"686 1841 OFFCURVE",
"742 1841 QCURVE SMOOTH",
"795 1841 OFFCURVE",
"858 1778 OFFCURVE",
"858 1727 QCURVE SMOOTH",
"858 1673 OFFCURVE",
"799 1614 OFFCURVE",
"742 1614 QCURVE SMOOTH",
"689 1614 OFFCURVE",
"626 1676 OFFCURVE",
"626 1727 QCURVE SMOOTH"
);
}
);
width = 1024;
}
);
},
{
glyphname = dotaccentcombstack.case;
layers = (
{
layerId = "3459A980-FF7D-466A-B966-D2EC6A15CC7A";
paths = (
{
closed = 1;
nodes = (
"391 1849 OFFCURVE",
"453 1910 OFFCURVE",
"512 1910 QCURVE SMOOTH",
"567 1910 OFFCURVE",
"633 1845 OFFCURVE",
"633 1792 QCURVE SMOOTH",
"633 1735 OFFCURVE",
"571 1674 OFFCURVE",
"512 1674 QCURVE SMOOTH",
"457 1674 OFFCURVE",
"391 1739 OFFCURVE",
"391 1792 QCURVE SMOOTH"
);
}
);
width = 1024;
}
);
},
{
glyphname = gravecombstack.case;
layers = (
{
layerId = "3459A980-FF7D-466A-B966-D2EC6A15CC7A";
paths = (
{
closed = 1;
nodes = (
"701 1697 LINE",
"265 1835 LINE",
"238 1635 LINE",
"701 1557 LINE"
);
}
);
width = 1024;
}
);
},
{
glyphname = hookabovecombstack.case;
layers = (
{
layerId = "3459A980-FF7D-466A-B966-D2EC6A15CC7A";
paths = (
{
closed = 1;
nodes = (
"374 1698 LINE",
"442 1793 LINE",
"458 1786 OFFCURVE",
"508 1779 OFFCURVE",
"529 1779 QCURVE SMOOTH",
"581 1779 OFFCURVE",
"625 1824 OFFCURVE",
"625 1869 QCURVE SMOOTH",
"625 1913 OFFCURVE",
"554 1965 OFFCURVE",
"510 1965 QCURVE SMOOTH",
"446 1965 OFFCURVE",
"327 1942 OFFCURVE",
"289 1924 QCURVE",
"237 2033 LINE",
"297 2068 OFFCURVE",
"456 2089 OFFCURVE",
"523 2089 QCURVE SMOOTH",
"643 2089 OFFCURVE",
"788 1975 OFFCURVE",
"788 1870 QCURVE SMOOTH",
"788 1778 OFFCURVE",
"677 1662 OFFCURVE",
"601 1662 QCURVE SMOOTH",
"571 1662 OFFCURVE",
"513 1671 OFFCURVE",
"497 1675 QCURVE",
"497 1557 LINE",
"374 1557 LINE"
);
}
);
width = 1024;
}
);
},
{
glyphname = macroncombstack.case;
layers = (
{
layerId = "3459A980-FF7D-466A-B966-D2EC6A15CC7A";
paths = (
{
closed = 1;
nodes = (
"216 1830 LINE",
"808 1830 LINE",
"808 1674 LINE",
"216 1674 LINE"
);
}
);
width = 1024;
}
);
},
{
glyphname = tildecombstack.case;
layers = (
{
layerId = "3459A980-FF7D-466A-B966-D2EC6A15CC7A";
paths = (
{
closed = 1;
nodes = (
"142 1831 OFFCURVE",
"293 1944 OFFCURVE",
"370 1944 QCURVE SMOOTH",
"416 1944 OFFCURVE",
"498 1914 OFFCURVE",
"540 1886 QCURVE SMOOTH",
"570 1868 OFFCURVE",
"667 1812 OFFCURVE",
"714 1812 QCURVE SMOOTH",
"760 1812 OFFCURVE",
"845 1869 OFFCURVE",
"871 1908 QCURVE",
"939 1823 LINE",
"897 1741 OFFCURVE",
"758 1652 OFFCURVE",
"695 1652 QCURVE SMOOTH",
"642 1652 OFFCURVE",
"535 1701 OFFCURVE",
"503 1723 QCURVE SMOOTH",
"467 1748 OFFCURVE",
"384 1786 OFFCURVE",
"351 1786 QCURVE SMOOTH",
"298 1786 OFFCURVE",
"200 1707 OFFCURVE",
"180 1677 QCURVE",
"105 1762 LINE"
);
}
);
width = 1024;
}
);
},
{
glyphname = caroncomb.alt;
layers = (
{
layerId = "3459A980-FF7D-466A-B966-D2EC6A15CC7A";
paths = (
{
closed = 1;
nodes = (
"510 993 LINE",
"678 1427 LINE",
"488 1481 LINE SMOOTH",
"382 1028 LINE"
);
}
);
width = 1024;
}
);
},
{
glyphname = dollar.rvrn;
layers = (
{
layerId = "3459A980-FF7D-466A-B966-D2EC6A15CC7A";
paths = (
{
closed = 1;
nodes = (
"90 221 OFFCURVE",
"368 0 OFFCURVE",
"599 0 QCURVE SMOOTH",
"829 0 OFFCURVE",
"1098 221 OFFCURVE",
"1098 394 QCURVE SMOOTH",
"1098 567 OFFCURVE",
"894 757 OFFCURVE",
"670 820 QCURVE SMOOTH",
"445 884 OFFCURVE",
"301 989 OFFCURVE",
"301 1076 QCURVE SMOOTH",
"301 1181 OFFCURVE",
"441 1298 OFFCURVE",
"589 1298 QCURVE SMOOTH",
"737 1298 OFFCURVE",
"887 1162 OFFCURVE",
"887 1051 QCURVE SMOOTH",
"887 1039 LINE",
"1071 1039 LINE",
"1071 1051 LINE SMOOTH",
"1071 1220 OFFCURVE",
"810 1456 OFFCURVE",
"589 1456 QCURVE SMOOTH",
"368 1456 OFFCURVE",
"119 1239 OFFCURVE",
"119 1076 QCURVE SMOOTH",
"119 912 OFFCURVE",
"309 734 OFFCURVE",
"537 668 QCURVE SMOOTH",
"766 603 OFFCURVE",
"916 490 OFFCURVE",
"916 394 QCURVE SMOOTH",
"916 288 OFFCURVE",
"752 158 OFFCURVE",
"599 158 QCURVE SMOOTH",
"445 158 OFFCURVE",
"274 284 OFFCURVE",
"274 411 QCURVE SMOOTH",
"274 423 LINE",
"90 423 LINE",
"90 411 LINE SMOOTH"
);
},
{
closed = 1;
nodes = (
"674 -150 LINE",
"674 90 LINE",
"664 100 LINE",
"664 128 LINE",
"524 128 LINE",
"524 -150 LINE"
);
},
{
closed = 1;
nodes = (
"674 1328 LINE",
"674 1606 LINE",
"524 1606 LINE",
"524 1366 LINE",
"534 1356 LINE",
"534 1328 LINE"
);
}
);
width = 1178;
}
);
},
{
glyphname = zero.prop;
layers = (
{
layerId = "3459A980-FF7D-466A-B966-D2EC6A15CC7A";
paths = (
{
closed = 1;
nodes = (
"110 240 OFFCURVE",
"358 -30 OFFCURVE",
"578 -30 QCURVE SMOOTH",
"796 -30 OFFCURVE",
"1046 240 OFFCURVE",
"1046 460 QCURVE SMOOTH",
"1046 996 LINE SMOOTH",
"1046 1216 OFFCURVE",
"796 1486 OFFCURVE",
"578 1486 QCURVE SMOOTH",
"358 1486 OFFCURVE",
"110 1216 OFFCURVE",
"110 996 QCURVE SMOOTH",
"110 460 LINE SMOOTH"
);
},
{
closed = 1;
nodes = (
"304 1006 LINE SMOOTH",
"304 1146 OFFCURVE",
"438 1328 OFFCURVE",
"578 1328 QCURVE SMOOTH",
"718 1328 OFFCURVE",
"852 1146 OFFCURVE",
"852 1006 QCURVE SMOOTH",
"852 450 LINE SMOOTH",
"852 310 OFFCURVE",
"718 128 OFFCURVE",
"578 128 QCURVE SMOOTH",
"438 128 OFFCURVE",
"304 310 OFFCURVE",
"304 450 QCURVE SMOOTH"
);
}
);
width = 1156;
}
);
},
{
glyphname = one.prop;
layers = (
{
layerId = "3459A980-FF7D-466A-B966-D2EC6A15CC7A";
paths = (
{
closed = 1;
nodes = (
"585 0 LINE",
"585 1476 LINE",
"555 1476 LINE",
"25 1276 LINE",
"25 1090 LINE",
"393 1245 LINE",
"393 0 LINE"
);
}
);
width = 736;
}
);
},
{
glyphname = two.prop;
layers = (
{
layerId = "3459A980-FF7D-466A-B966-D2EC6A15CC7A";
paths = (
{
closed = 1;
nodes = (
"986 0 LINE",
"986 156 LINE",
"256 156 LINE",
"671 595 LINE SMOOTH",
"786 716 OFFCURVE",
"946 948 OFFCURVE",
"946 1090 QCURVE SMOOTH",
"946 1250 OFFCURVE",
"701 1486 OFFCURVE",
"501 1486 QCURVE SMOOTH",
"301 1486 OFFCURVE",
"26 1230 OFFCURVE",
"26 1030 QCURVE SMOOTH",
"26 1020 LINE",
"216 1020 LINE",
"216 1030 LINE SMOOTH",
"216 1170 OFFCURVE",
"381 1328 OFFCURVE",
"501 1328 QCURVE SMOOTH",
"621 1328 OFFCURVE",
"756 1180 OFFCURVE",
"756 1080 QCURVE SMOOTH",
"756 980 OFFCURVE",
"650 810 OFFCURVE",
"546 700 QCURVE SMOOTH",
"26 140 LINE",
"26 0 LINE"
);
}
);
width = 988;
}
);
},
{
glyphname = three.prop;
layers = (
{
layerId = "3459A980-FF7D-466A-B966-D2EC6A15CC7A";
paths = (
{
closed = 1;
nodes = (
"17 200 OFFCURVE",
"285 -30 OFFCURVE",
"495 -30 QCURVE SMOOTH",
"705 -30 OFFCURVE",
"979 200 OFFCURVE",
"979 401 QCURVE SMOOTH",
"979 540 OFFCURVE",
"827 730 OFFCURVE",
"701 762 QCURVE",
"701 766 LINE",
"817 816 OFFCURVE",
"927 1000 OFFCURVE",
"927 1100 QCURVE SMOOTH",
"927 1270 OFFCURVE",
"685 1486 OFFCURVE",
"495 1486 QCURVE SMOOTH",
"305 1486 OFFCURVE",
"57 1260 OFFCURVE",
"57 1100 QCURVE SMOOTH",
"57 1090 LINE",
"243 1090 LINE",
"243 1100 LINE SMOOTH",
"243 1210 OFFCURVE",
"385 1328 OFFCURVE",
"495 1328 QCURVE SMOOTH",
"605 1328 OFFCURVE",
"735 1210 OFFCURVE",
"735 1090 QCURVE SMOOTH",
"735 970 OFFCURVE",
"585 836 OFFCURVE",
"447 836 QCURVE SMOOTH",
"342 836 LINE",
"342 682 LINE",
"457 682 LINE SMOOTH",
"607 682 OFFCURVE",
"785 540 OFFCURVE",
"785 400 QCURVE SMOOTH",
"785 260 OFFCURVE",
"627 128 OFFCURVE",
"495 128 QCURVE SMOOTH",
"363 128 OFFCURVE",
"203 260 OFFCURVE",
"203 380 QCURVE SMOOTH",
"203 390 LINE",
"17 390 LINE",
"17 380 LINE SMOOTH"
);
}
);
width = 1051;
}
);
},
{
glyphname = four.prop;
layers = (
{
layerId = "3459A980-FF7D-466A-B966-D2EC6A15CC7A";
paths = (
{
closed = 1;
nodes = (
"803 0 LINE",
"803 1456 LINE",
"631 1456 LINE",
"-13 468 LINE",
"-13 342 LINE",
"1007 342 LINE",
"1007 500 LINE",
"751 500 LINE",
"674 500 LINE",
"206 500 LINE",
"611 1149 LINE",
"623 1149 LINE",
"623 450 LINE",
"623 398 LINE",
"623 0 LINE"
);
}
);
width = 1011;
}
);
},
{
glyphname = five.prop;
layers = (
{
layerId = "3459A980-FF7D-466A-B966-D2EC6A15CC7A";
paths = (
{
closed = 1;
nodes = (
"58 195 OFFCURVE",
"318 -30 OFFCURVE",
"528 -30 QCURVE SMOOTH",
"738 -30 OFFCURVE",
"1014 235 OFFCURVE",
"1014 465 QCURVE SMOOTH",
"1014 695 OFFCURVE",
"748 952 OFFCURVE",
"558 952 QCURVE SMOOTH",
"478 952 OFFCURVE",
"344 906 OFFCURVE",
"294 876 QCURVE",
"338 1286 LINE",
"938 1286 LINE",
"938 1456 LINE",
"182 1456 LINE",
"108 730 LINE",
"240 668 LINE",
"300 728 OFFCURVE",
"438 793 OFFCURVE",
"528 793 QCURVE SMOOTH",
"658 793 OFFCURVE",
"824 625 OFFCURVE",
"824 465 QCURVE SMOOTH",
"824 305 OFFCURVE",
"658 128 OFFCURVE",
"528 128 QCURVE SMOOTH",
"398 128 OFFCURVE",
"242 255 OFFCURVE",
"242 365 QCURVE SMOOTH",
"242 375 LINE",
"58 375 LINE",
"58 365 LINE SMOOTH"
);
}
);
width = 1072;
}
);
},
{
glyphname = six.prop;
layers = (
{
layerId = "3459A980-FF7D-466A-B966-D2EC6A15CC7A";
paths = (
{
closed = 1;
nodes = (
"80 274 OFFCURVE",
"382 -30 OFFCURVE",
"592 -30 QCURVE SMOOTH",
"802 -30 OFFCURVE",
"1076 244 OFFCURVE",
"1076 464 QCURVE SMOOTH",
"1076 684 OFFCURVE",
"832 956 OFFCURVE",
"632 956 QCURVE SMOOTH",
"432 956 OFFCURVE",
"192 684 OFFCURVE",
"192 464 QCURVE",
"262 464 LINE",
"262 624 OFFCURVE",
"462 798 OFFCURVE",
"592 798 QCURVE SMOOTH",
"732 798 OFFCURVE",
"886 624 OFFCURVE",
"886 464 QCURVE SMOOTH",
"886 304 OFFCURVE",
"732 128 OFFCURVE",
"592 128 QCURVE SMOOTH",
"452 128 OFFCURVE",
"268 344 OFFCURVE",
"268 604 QCURVE SMOOTH",
"268 654 LINE SMOOTH",
"268 1004 OFFCURVE",
"592 1328 OFFCURVE",
"872 1328 QCURVE SMOOTH",
"892 1328 LINE",
"892 1486 LINE",
"872 1486 LINE SMOOTH",
"492 1486 OFFCURVE",
"80 1024 OFFCURVE",
"80 644 QCURVE SMOOTH",
"80 614 LINE SMOOTH"
);
}
);
width = 1136;
}
);
},
{
glyphname = seven.prop;
layers = (
{
layerId = "3459A980-FF7D-466A-B966-D2EC6A15CC7A";
paths = (
{
closed = 1;
nodes = (
"409 0 LINE",
"871 1352 LINE",
"871 1456 LINE",
"-3 1456 LINE",
"-3 1300 LINE",
"673 1300 LINE",
"213 0 LINE"
);
}
);
width = 882;
}
);
},
{
glyphname = eight.prop;
layers = (
{
layerId = "3459A980-FF7D-466A-B966-D2EC6A15CC7A";
paths = (
{
closed = 1;
nodes = (
"104 188 OFFCURVE",
"378 -30 OFFCURVE",
"578 -30 QCURVE SMOOTH",
"778 -30 OFFCURVE",
"1052 188 OFFCURVE",
"1052 386 QCURVE SMOOTH",
"1052 516 OFFCURVE",
"910 698 OFFCURVE",
"798 743 QCURVE",
"798 747 LINE",
"884 790 OFFCURVE",
"1006 967 OFFCURVE",
"1006 1087 QCURVE SMOOTH",
"1006 1267 OFFCURVE",
"758 1486 OFFCURVE",
"578 1486 QCURVE SMOOTH",
"398 1486 OFFCURVE",
"150 1267 OFFCURVE",
"150 1087 QCURVE SMOOTH",
"150 967 OFFCURVE",
"272 790 OFFCURVE",
"358 747 QCURVE",
"358 743 LINE",
"246 698 OFFCURVE",
"104 516 OFFCURVE",
"104 386 QCURVE SMOOTH"
);
},
{
closed = 1;
nodes = (
"292 516 OFFCURVE",
"448 666 OFFCURVE",
"578 666 QCURVE SMOOTH",
"708 666 OFFCURVE",
"864 516 OFFCURVE",
"864 396 QCURVE SMOOTH",
"864 276 OFFCURVE",
"708 128 OFFCURVE",
"578 128 QCURVE SMOOTH",
"448 128 OFFCURVE",
"292 276 OFFCURVE",
"292 396 QCURVE SMOOTH"
);
},
{
closed = 1;
nodes = (
"334 1187 OFFCURVE",
"468 1328 OFFCURVE",
"578 1328 QCURVE SMOOTH",
"688 1328 OFFCURVE",
"822 1187 OFFCURVE",
"822 1077 QCURVE SMOOTH",
"822 967 OFFCURVE",
"688 824 OFFCURVE",
"578 824 QCURVE SMOOTH",
"468 824 OFFCURVE",
"334 967 OFFCURVE",
"334 1077 QCURVE SMOOTH"
);
}
);
width = 1156;
}
);
},
{
glyphname = nine.prop;
layers = (
{
layerId = "3459A980-FF7D-466A-B966-D2EC6A15CC7A";
paths = (
{
closed = 1;
nodes = (
"60 786 OFFCURVE",
"305 520 OFFCURVE",
"504 520 QCURVE SMOOTH",
"704 520 OFFCURVE",
"944 786 OFFCURVE",
"944 1002 QCURVE",
"874 1002 LINE",
"874 847 OFFCURVE",
"674 678 OFFCURVE",
"544 678 QCURVE SMOOTH",
"404 678 OFFCURVE",
"250 847 OFFCURVE",
"250 1002 QCURVE SMOOTH",
"250 1157 OFFCURVE",
"404 1328 OFFCURVE",
"544 1328 QCURVE SMOOTH",
"684 1328 OFFCURVE",
"868 1112 OFFCURVE",
"868 852 QCURVE SMOOTH",
"868 802 LINE SMOOTH",
"868 452 OFFCURVE",
"544 128 OFFCURVE",
"264 128 QCURVE SMOOTH",
"244 128 LINE",
"244 -30 LINE",
"264 -30 LINE SMOOTH",
"644 -30 OFFCURVE",
"1056 432 OFFCURVE",
"1056 812 QCURVE SMOOTH",
"1056 842 LINE SMOOTH",
"1056 1182 OFFCURVE",
"754 1486 OFFCURVE",
"544 1486 QCURVE SMOOTH",
"334 1486 OFFCURVE",
"60 1218 OFFCURVE",
"60 1002 QCURVE SMOOTH"
);
}
);
width = 1136;
}
);
},
{
glyphname = .notdef;
layers = (
{
layerId = "3459A980-FF7D-466A-B966-D2EC6A15CC7A";
paths = (
{
closed = 1;
nodes = (
"127 1456 LINE",
"127 1402 LINE",
"777 1402 LINE",
"777 1456 LINE"
);
},
{
closed = 1;
nodes = (
"100 1456 LINE",
"100 0 LINE",
"154 0 LINE",
"154 1456 LINE"
);
},
{
closed = 1;
nodes = (
"754 1456 LINE",
"754 0 LINE",
"808 0 LINE",
"808 1456 LINE"
);
},
{
closed = 1;
nodes = (
"127 54 LINE",
"127 0 LINE",
"777 0 LINE",
"777 54 LINE"
);
},
{
closed = 1;
nodes = (
"719 1426 LINE",
"126 30 LINE",
"184 30 LINE",
"777 1426 LINE"
);
},
{
closed = 1;
nodes = (
"777 30 LINE",
"184 1426 LINE",
"126 1426 LINE",
"719 30 LINE"
);
}
